<svg width="271" height="235" viewBox="0 0 271 235" fill="none" xmlns="http://www.w3.org/2000/svg">
<path d="M50.1007 119.057L4.01367 165.144" stroke="#1A564D" stroke-width="6.20861" stroke-linecap="round" stroke-linejoin="round"/>
<path d="M221.496 120.576L267.583 166.663" stroke="#1A564D" stroke-width="6.20861" stroke-linecap="round" stroke-linejoin="round"/>
<path d="M104.517 177.895L90.1204 231.623L77.0557 228.122" stroke="#1A564D" stroke-width="6.20861" stroke-linecap="round" stroke-linejoin="round"/>
<path d="M172.095 177.656L186.492 231.385L199.557 227.884" stroke="#1A564D" stroke-width="6.20861" stroke-linecap="round" stroke-linejoin="round"/>
<path d="M113.329 0.570312C123.12 0.223668 131.597 2.68839 135.994 5.28027C140.422 2.71203 148.84 0.290958 158.55 0.634766C168.801 0.997789 180.591 4.44405 190.751 14.1543C191.11 14.4976 191.194 15.0396 190.956 15.4756C190.718 15.9115 190.216 16.1334 189.733 16.0166C184.359 14.7164 180.595 14.4619 178.102 14.6436C177.696 14.6731 177.327 14.7154 176.991 14.7646C186.402 17.6787 197.638 23.9385 207.345 32.0283C218.174 41.0536 227.293 52.5156 229.739 64.3848C229.825 64.7996 229.664 65.2268 229.326 65.4824C228.988 65.7381 228.533 65.777 228.157 65.582C226.201 64.5677 223.114 63.0784 220.222 61.9121C218.774 61.3283 217.398 60.8346 216.249 60.5205C216.194 60.5055 216.139 60.4916 216.086 60.4775C217.602 62.6805 219.716 66.0433 222.11 70.0889C225.485 75.7921 229.466 82.9264 233.212 90.2539C236.956 97.5772 240.479 105.116 242.93 111.625C244.155 114.878 245.121 117.896 245.711 120.515C246.295 123.107 246.538 125.415 246.225 127.198C246.157 127.58 245.893 127.899 245.53 128.036C245.167 128.173 244.759 128.108 244.456 127.866C241.151 125.222 238.492 123.106 236.306 121.595C235.187 120.822 234.232 120.235 233.412 119.821C235.236 124.272 239.029 133.719 238.384 143.75C237.986 149.929 235.919 156.39 230.729 162.147C225.548 167.893 217.331 172.856 204.775 176.189C204.328 176.308 203.855 176.135 203.591 175.755C203.327 175.375 203.33 174.871 203.597 174.493C205.36 172.004 206.775 170.088 207.712 168.783C206.852 169.117 205.819 169.521 204.65 169.983C201.041 171.411 196.154 173.352 191.087 175.225C186.025 177.096 180.753 178.909 176.377 180.076C174.192 180.659 172.197 181.089 170.547 181.279C169.722 181.375 168.957 181.414 168.283 181.374C167.622 181.335 166.974 181.217 166.43 180.944C163.582 179.52 158.229 176.899 152.42 174.554C146.577 172.195 140.4 170.168 135.863 169.852C135.791 169.846 135.72 169.834 135.652 169.815C131.153 170.211 125.148 172.192 119.459 174.489C113.65 176.835 108.297 179.456 105.449 180.88C104.905 181.152 104.257 181.271 103.596 181.31C102.922 181.349 102.157 181.31 101.332 181.215C99.682 181.024 97.6873 180.594 95.502 180.012C91.1256 178.845 85.8543 177.031 80.792 175.16C75.7248 173.287 70.8376 171.346 67.2285 169.919C66.0597 169.457 65.0273 169.052 64.167 168.719C65.1038 170.023 66.5189 171.939 68.2822 174.429C68.549 174.806 68.5517 175.311 68.2881 175.69C68.0243 176.07 67.5503 176.244 67.1035 176.125C54.5477 172.792 46.3306 167.829 41.1504 162.083C35.96 156.326 33.8929 149.864 33.4951 143.686C32.8496 133.655 36.6427 124.207 38.4668 119.757C37.6465 120.171 36.6916 120.757 35.5732 121.53C33.3868 123.042 30.7281 125.158 27.4229 127.802C27.12 128.044 26.7114 128.108 26.3486 127.972C25.9858 127.835 25.7215 127.516 25.6543 127.134C25.3414 125.35 25.5836 123.042 26.168 120.45C26.7582 117.832 27.724 114.814 28.9492 111.561C31.4003 105.052 34.9228 97.5127 38.667 90.1895C42.4134 82.862 46.3935 75.7276 49.7686 70.0244C52.1626 65.9789 54.2769 62.6161 55.793 60.4131C55.7395 60.4272 55.6848 60.441 55.6299 60.4561C54.4811 60.7702 53.1051 61.2638 51.6572 61.8477C48.765 63.014 45.6778 64.5033 43.7217 65.5176C43.3457 65.7125 42.8905 65.6735 42.5527 65.418C42.215 65.1624 42.0544 64.7351 42.1396 64.3203C44.586 52.4512 53.705 40.9892 64.5342 31.9639C74.241 23.8741 85.4767 17.6142 94.8877 14.7002C94.5519 14.6509 94.1824 14.6086 93.7773 14.5791C91.2838 14.3974 87.5196 14.652 82.1455 15.9521C81.6627 16.0689 81.1612 15.8469 80.9229 15.4111C80.6847 14.9752 80.7689 14.4331 81.1279 14.0898C91.2877 4.37959 103.078 0.933335 113.329 0.570312Z" fill="#75C4B8"/>
<path d="M113.329 0.570312C123.12 0.223668 131.597 2.68839 135.994 5.28027C140.422 2.71203 148.84 0.290958 158.55 0.634766C168.801 0.997789 180.591 4.44405 190.751 14.1543C191.11 14.4976 191.194 15.0396 190.956 15.4756C190.718 15.9115 190.216 16.1334 189.733 16.0166C184.359 14.7164 180.595 14.4619 178.102 14.6436C177.696 14.6731 177.327 14.7154 176.991 14.7646C186.402 17.6787 197.638 23.9385 207.345 32.0283C218.174 41.0536 227.293 52.5156 229.739 64.3848C229.825 64.7996 229.664 65.2268 229.326 65.4824C228.988 65.7381 228.533 65.777 228.157 65.582C226.201 64.5677 223.114 63.0784 220.222 61.9121C218.774 61.3283 217.398 60.8346 216.249 60.5205C216.194 60.5055 216.139 60.4916 216.086 60.4775C217.602 62.6805 219.716 66.0433 222.11 70.0889C225.485 75.7921 229.466 82.9264 233.212 90.2539C236.956 97.5772 240.479 105.116 242.93 111.625C244.155 114.878 245.121 117.896 245.711 120.515C246.295 123.107 246.538 125.415 246.225 127.198C246.157 127.58 245.893 127.899 245.53 128.036C245.167 128.173 244.759 128.108 244.456 127.866C241.151 125.222 238.492 123.106 236.306 121.595C235.187 120.822 234.232 120.235 233.412 119.821C235.236 124.272 239.029 133.719 238.384 143.75C237.986 149.929 235.919 156.39 230.729 162.147C225.548 167.893 217.331 172.856 204.775 176.189C204.328 176.308 203.855 176.135 203.591 175.755C203.327 175.375 203.33 174.871 203.597 174.493C205.36 172.004 206.775 170.088 207.712 168.783C206.852 169.117 205.819 169.521 204.65 169.983C201.041 171.411 196.154 173.352 191.087 175.225C186.025 177.096 180.753 178.909 176.377 180.076C174.192 180.659 172.197 181.089 170.547 181.279C169.722 181.375 168.957 181.414 168.283 181.374C167.622 181.335 166.974 181.217 166.43 180.944C163.582 179.52 158.229 176.899 152.42 174.554C146.577 172.195 140.4 170.168 135.863 169.852C135.791 169.846 135.72 169.834 135.652 169.815C131.153 170.211 125.148 172.192 119.459 174.489C113.65 176.835 108.297 179.456 105.449 180.88C104.905 181.152 104.257 181.271 103.596 181.31C102.922 181.349 102.157 181.31 101.332 181.215C99.682 181.024 97.6873 180.594 95.502 180.012C91.1256 178.845 85.8543 177.031 80.792 175.16C75.7248 173.287 70.8376 171.346 67.2285 169.919C66.0597 169.457 65.0273 169.052 64.167 168.719C65.1038 170.023 66.5189 171.939 68.2822 174.429C68.549 174.806 68.5517 175.311 68.2881 175.69C68.0243 176.07 67.5503 176.244 67.1035 176.125C54.5477 172.792 46.3306 167.829 41.1504 162.083C35.96 156.326 33.8929 149.864 33.4951 143.686C32.8496 133.655 36.6427 124.207 38.4668 119.757C37.6465 120.171 36.6916 120.757 35.5732 121.53C33.3868 123.042 30.7281 125.158 27.4229 127.802C27.12 128.044 26.7114 128.108 26.3486 127.972C25.9858 127.835 25.7215 127.516 25.6543 127.134C25.3414 125.35 25.5836 123.042 26.168 120.45C26.7582 117.832 27.724 114.814 28.9492 111.561C31.4003 105.052 34.9228 97.5127 38.667 90.1895C42.4134 82.862 46.3935 75.7276 49.7686 70.0244C52.1626 65.9789 54.2769 62.6161 55.793 60.4131C55.7395 60.4272 55.6848 60.441 55.6299 60.4561C54.4811 60.7702 53.1051 61.2638 51.6572 61.8477C48.765 63.014 45.6778 64.5033 43.7217 65.5176C43.3457 65.7125 42.8905 65.6735 42.5527 65.418C42.215 65.1624 42.0544 64.7351 42.1396 64.3203C44.586 52.4512 53.705 40.9892 64.5342 31.9639C74.241 23.8741 85.4767 17.6142 94.8877 14.7002C94.5519 14.6509 94.1824 14.6086 93.7773 14.5791C91.2838 14.3974 87.5196 14.652 82.1455 15.9521C81.6627 16.0689 81.1612 15.8469 80.9229 15.4111C80.6847 14.9752 80.7689 14.4331 81.1279 14.0898C91.2877 4.37959 103.078 0.933335 113.329 0.570312Z" fill="url(#paint0_linear_329_48)"/>
<path d="M117.541 10.8926C125.398 10.5924 132.226 12.6958 135.863 14.9541C139.522 12.7167 146.304 10.6504 154.098 10.9482C162.445 11.2674 172.033 14.3006 180.28 22.8115C180.623 23.1653 180.689 23.7044 180.44 24.1299C180.192 24.5553 179.691 24.763 179.214 24.6387C174.892 23.5096 171.882 23.294 169.907 23.4492C169.81 23.4569 169.714 23.4662 169.622 23.4756C177.153 26.1064 186.011 31.4957 193.679 38.3955C202.448 46.2865 209.834 56.3097 211.815 66.6895C211.895 67.1088 211.725 67.5364 211.379 67.7861C211.032 68.0358 210.573 68.0621 210.2 67.8535C208.624 66.9712 206.137 65.6763 203.81 64.6631C202.786 64.2174 201.812 63.8337 200.972 63.5645C202.183 65.4906 203.812 68.3008 205.642 71.6387C208.37 76.6157 211.586 82.8402 214.614 89.2344C217.64 95.6248 220.489 102.205 222.471 107.888C223.461 110.728 224.243 113.365 224.721 115.653C225.193 117.917 225.39 119.94 225.136 121.508C225.072 121.9 224.801 122.228 224.427 122.364C224.053 122.5 223.634 122.423 223.333 122.163C220.661 119.855 218.518 118.014 216.759 116.701C216.073 116.189 215.47 115.778 214.938 115.455C216.46 119.489 219.306 127.48 218.802 135.94C218.48 141.338 216.807 146.998 212.59 152.049C208.377 157.094 201.696 161.446 191.512 164.365C191.07 164.492 190.597 164.331 190.324 163.961C190.052 163.591 190.038 163.091 190.29 162.707C191.552 160.784 192.596 159.246 193.343 158.132C192.778 158.371 192.14 158.642 191.44 158.94C188.525 160.185 184.573 161.881 180.476 163.516C176.384 165.148 172.115 166.734 168.566 167.756C166.795 168.266 165.169 168.645 163.815 168.814C163.139 168.899 162.502 168.934 161.935 168.897C161.379 168.862 160.813 168.754 160.329 168.493C158.03 167.252 153.711 164.969 149.027 162.927C144.307 160.869 139.351 159.119 135.736 158.847C135.679 158.842 135.624 158.832 135.57 158.819C131.987 159.169 127.189 160.875 122.611 162.871C117.927 164.913 113.609 167.196 111.31 168.438C110.826 168.699 110.259 168.806 109.704 168.842C109.137 168.878 108.5 168.843 107.823 168.759C106.47 168.59 104.843 168.21 103.072 167.7C99.5238 166.679 95.2551 165.093 91.1631 163.46C87.0657 161.825 83.1137 160.13 80.1982 158.885C79.4992 158.586 78.8611 158.315 78.2959 158.076C79.0427 159.19 80.0869 160.728 81.3486 162.651C81.6001 163.035 81.5866 163.536 81.3145 163.905C81.0422 164.275 80.5682 164.436 80.127 164.31C69.9425 161.39 63.2621 157.039 59.0488 151.993C54.8312 146.942 53.1588 141.282 52.8369 135.885C52.3326 127.424 55.1783 119.433 56.7012 115.399C56.1691 115.722 55.5654 116.134 54.8799 116.646C53.1205 117.959 50.9779 119.799 48.3057 122.107C48.0046 122.367 47.5858 122.444 47.2119 122.309C46.8381 122.173 46.5669 121.845 46.5029 121.452C46.2482 119.884 46.4452 117.862 46.918 115.598C47.3958 113.309 48.1773 110.672 49.168 107.832C51.15 102.15 53.9983 95.5691 57.0244 89.1787C60.0523 82.7846 63.2691 76.56 65.9971 71.583C67.8266 68.2452 69.4559 65.4349 70.667 63.5088C69.8263 63.7781 68.8528 64.1617 67.8291 64.6074C65.5019 65.6207 63.0145 66.9155 61.4385 67.7979C61.0659 68.0064 60.6062 67.9799 60.2598 67.7305C59.9134 67.4808 59.7433 67.0532 59.8232 66.6338C61.8047 56.254 69.1906 46.2309 77.96 38.3398C85.6279 31.4399 94.486 26.0507 102.017 23.4199C101.925 23.4106 101.829 23.4012 101.731 23.3936C99.7563 23.2382 96.7472 23.454 92.4248 24.583C91.9483 24.7075 91.4467 24.4994 91.1982 24.0742C90.9499 23.6486 91.0155 23.1097 91.3584 22.7559C99.6062 14.2448 109.193 11.2117 117.541 10.8926Z" fill="#84CCC2" fill-opacity="0.5"/>
<path d="M121.505 23.1924C127.789 22.9407 133.276 24.6706 136.282 26.5742C139.304 24.6896 144.752 22.9907 150.983 23.2402C157.772 23.5121 165.557 26.0976 172.242 33.3252C172.575 33.6851 172.629 34.2225 172.375 34.6416C172.12 35.0607 171.618 35.2603 171.146 35.1309C168.071 34.2896 165.84 34.056 164.291 34.1035C170.236 36.4255 177.081 40.8648 183.029 46.4727C190.114 53.1514 196.09 61.643 197.694 70.4463C197.771 70.8687 197.595 71.2969 197.243 71.543C196.891 71.789 196.428 71.8081 196.058 71.5908C194.792 70.8485 192.795 69.7594 190.929 68.9082C190.315 68.6282 189.726 68.381 189.189 68.1797C190.138 69.7884 191.354 72.002 192.705 74.584C194.905 78.7883 197.498 84.0462 199.939 89.4473C202.379 94.8447 204.676 100.405 206.275 105.209C207.075 107.61 207.706 109.842 208.093 111.781C208.475 113.698 208.637 115.422 208.429 116.769C208.367 117.168 208.091 117.501 207.71 117.636C207.329 117.771 206.905 117.686 206.605 117.415C204.45 115.465 202.73 113.917 201.319 112.813C200.986 112.553 200.68 112.325 200.397 112.127C201.656 115.673 203.713 122.131 203.325 128.94C203.065 133.515 201.711 138.325 198.286 142.623C194.862 146.919 189.438 150.615 181.193 153.091C180.755 153.222 180.281 153.069 180.004 152.705C179.727 152.341 179.704 151.844 179.946 151.456C180.793 150.103 181.522 148.972 182.09 148.089C181.8 148.218 181.49 148.355 181.165 148.501C178.816 149.552 175.629 150.984 172.324 152.365C169.025 153.744 165.577 155.087 162.705 155.953C161.272 156.385 159.946 156.71 158.836 156.855C158.281 156.928 157.751 156.96 157.271 156.928C156.803 156.896 156.306 156.8 155.874 156.556C154.023 155.509 150.55 153.585 146.785 151.865C142.981 150.128 139.022 148.668 136.157 148.441C136.115 148.438 136.074 148.432 136.034 148.424C133.196 148.723 129.378 150.139 125.703 151.817C121.938 153.537 118.466 155.461 116.614 156.508C116.182 156.752 115.685 156.849 115.217 156.88C114.738 156.912 114.208 156.88 113.652 156.808C112.542 156.662 111.216 156.337 109.783 155.905C106.912 155.039 103.463 153.697 100.164 152.317C96.8591 150.936 93.672 149.504 91.3232 148.453C90.9979 148.308 90.6886 148.17 90.3984 148.041C90.9658 148.924 91.6949 150.055 92.542 151.408C92.7847 151.796 92.7617 152.293 92.4844 152.657C92.2069 153.021 91.7331 153.174 91.2949 153.043C83.0498 150.567 77.6262 146.871 74.2021 142.575C70.7768 138.277 69.4234 133.468 69.1631 128.893C68.7757 122.084 70.8323 115.625 72.0908 112.079C71.8083 112.277 71.5018 112.505 71.1689 112.766C69.7583 113.869 68.038 115.417 65.8828 117.367C65.5834 117.638 65.159 117.723 64.7783 117.588C64.3976 117.453 64.1215 117.12 64.0596 116.721C63.8508 115.375 64.0136 113.65 64.3955 111.733C64.782 109.794 65.4135 107.562 66.2129 105.161C67.8122 100.357 70.1092 94.7969 72.5488 89.3994C74.9901 83.9983 77.5836 78.7405 79.7832 74.5361C81.134 71.9541 82.3504 69.7406 83.2988 68.1318C82.7626 68.3331 82.1734 68.5804 81.5596 68.8604C79.6935 69.7115 77.6962 70.8007 76.4307 71.543C76.0603 71.7602 75.597 71.7412 75.2451 71.4951C74.8933 71.249 74.717 70.8209 74.7939 70.3984C76.398 61.5951 82.3746 53.1035 89.459 46.4248C95.4075 40.8169 102.253 36.3776 108.197 34.0557C106.648 34.0082 104.417 34.2418 101.343 35.083C100.87 35.2124 100.368 35.0128 100.113 34.5938C99.8589 34.1746 99.9132 33.6373 100.246 33.2773C106.932 26.0497 114.716 23.4643 121.505 23.1924Z" fill="#90D3C9" fill-opacity="0.75"/>
<circle cx="135.818" cy="71.2877" r="40.649" fill="white"/>
<mask id="mask0_329_48" style="mask-type:alpha" maskUnits="userSpaceOnUse" x="95" y="30" width="82" height="82">
<circle cx="135.818" cy="71.2877" r="40.649" fill="white"/>
</mask>
<g mask="url(#mask0_329_48)">
<circle cx="135.965" cy="62.6452" r="29.8093" fill="#500E0E"/>
<circle cx="135.965" cy="62.6452" r="29.8093" fill="url(#paint1_linear_329_48)"/>
<circle cx="148.488" cy="51" r="5.41987" fill="white"/>
</g>
<path d="M99.6785 155.082L99.804 155.135C106.348 157.9 130.579 154.938 137.824 155.135C143.621 155.293 151.184 157.69 169.145 155.135C187.105 152.58 189.479 107.742 164.003 116.036C138.526 124.329 129.644 118.208 109.076 116.035C95.3702 116.881 87.2068 124.417 90.0029 138.349C92.7762 152.168 94.6314 152.951 99.6785 155.082Z" fill="#500E0E"/>
<path d="M170.512 153.985C158.521 133.216 114.972 133.496 102.604 154.918H153.243C154.55 154.918 165.3 154.296 170.512 153.985Z" fill="#B33131"/>
<mask id="mask1_329_48" style="mask-type:alpha" maskUnits="userSpaceOnUse" x="102" y="138" width="69" height="17">
<path d="M170.512 153.985C158.521 133.216 114.972 133.496 102.604 154.918H153.243C154.55 154.918 165.3 154.296 170.512 153.985Z" fill="#B33131"/>
</mask>
<g mask="url(#mask1_329_48)">
<path d="M138.281 148.252C138.045 149.195 136.704 149.195 136.469 148.252L133.824 137.642C133.677 137.053 134.123 136.483 134.73 136.483L140.02 136.483C140.627 136.483 141.072 137.053 140.926 137.642L138.281 148.252Z" fill="#921C1C"/>
</g>
<path d="M160.208 131.053C152.957 131.053 153.71 124.681 153.71 118.513L167.711 116.18C167.089 120.458 165.435 131.053 160.208 131.053Z" fill="#FDF7CD"/>
<path d="M114.874 131.205C107.623 131.205 107.915 122.5 107.915 116.332L122.378 116.332C121.756 120.61 120.101 131.205 114.874 131.205Z" fill="#FDF7CD"/>
<path d="M168.557 141.533C161.306 141.533 162.185 149.276 162.185 155.444L176.027 152.587C175.405 148.309 173.784 141.533 168.557 141.533Z" fill="#FDF7CD"/>
<path d="M105.646 141.381C98.3948 141.381 98.6862 150.086 98.6862 156.254L113.149 156.254C112.527 151.976 110.873 141.381 105.646 141.381Z" fill="#FDF7CD"/>
<path d="M99.6785 155.082L99.804 155.135C106.348 157.9 130.579 154.938 137.824 155.135C143.621 155.293 151.184 157.69 169.145 155.135C187.105 152.58 189.479 107.742 164.003 116.036C138.526 124.329 129.644 118.208 109.076 116.035C95.3702 116.881 87.2068 124.417 90.0029 138.349C92.7762 152.168 94.6314 152.951 99.6785 155.082Z" stroke="#EB735B" stroke-width="3.267"/>
<defs>
<linearGradient id="paint0_linear_329_48" x1="134.739" y1="-8.99206" x2="136" y2="202.5" gradientUnits="userSpaceOnUse">
<stop stop-color="#C8FDF6"/>
<stop offset="0.366273" stop-color="#369C98"/>
<stop offset="0.930814" stop-color="#4A6D68"/>
</linearGradient>
<linearGradient id="paint1_linear_329_48" x1="121.859" y1="42.0756" x2="119.68" y2="79.4779" gradientUnits="userSpaceOnUse">
<stop stop-color="#600505"/>
<stop offset="1" stop-color="#4A1111"/>
</linearGradient>
</defs>
</svg>
