<?xml version="1.0" encoding="utf-8"?>
<!-- Generator: Adobe Illustrator 27.1.1, SVG Export Plug-In . SVG Version: 6.00 Build 0)  -->
<svg version="1.1" id="Layer_1" xmlns="http://www.w3.org/2000/svg" xmlns:xlink="http://www.w3.org/1999/xlink" x="0px" y="0px"
	 viewBox="0 0 1346 901" style="enable-background:new 0 0 1346 901;" xml:space="preserve">
<style type="text/css">
	.st0{clip-path:url(#SVGID_00000156545830313970107960000008301955606588490142_);}
	.st1{clip-path:url(#SVGID_00000124878667888599164950000004236567194085038013_);}
	.st2{fill:#FFFFFF;fill-opacity:0.31;stroke:#1E576C;stroke-width:50;}
	.st3{fill:none;stroke:url(#SVGID_00000070814516852011411790000002068858156260964280_);stroke-width:50;}
	.st4{fill:#FFFFFF;fill-opacity:0.54;}
	.st5{fill:none;stroke:#1A564D;stroke-width:6.4235;stroke-linecap:round;stroke-linejoin:round;}
	.st6{fill:url(#SVGID_00000159452015056218859120000010019382086433662597_);}
	.st7{fill:url(#SVGID_00000080192093094136894800000007606334699062442170_);}
	.st8{fill:#75C4B8;fill-opacity:0.44;}
	.st9{fill:#75C4B8;}
	.st10{fill:#FFFFFF;}
	.st11{fill:#FFFFFF;filter:url(#Adobe_OpacityMaskFilter);}
	.st12{mask:url(#mask0_1_129_00000031908995833518325490000016705879580070228632_);}
	.st13{fill:#500E0E;}
	.st14{fill:url(#SVGID_00000123434666945460902230000018163452277046727854_);}
	.st15{fill:#FFFFFF;filter:url(#Adobe_OpacityMaskFilter_00000116198454027616950970000002614284997745190549_);}
	.st16{mask:url(#mask1_1_129_00000104679337888849567170000015813225006773542562_);}
	.st17{fill:url(#SVGID_00000077282543432799704370000002325183721134540703_);}
	.st18{fill:#B33131;}
	.st19{fill:#B33131;filter:url(#Adobe_OpacityMaskFilter_00000042737829982201361900000012294345106397569713_);}
	.st20{mask:url(#mask2_1_129_00000127733905997677871960000006195726574595713459_);}
	.st21{fill:#921C1C;}
	.st22{fill:#FDF7CD;}
	.st23{fill:none;stroke:#EB735B;stroke-width:3.4588;}
	.st24{fill:url(#SVGID_00000018228284368762226080000015143847015986029724_);}
	.st25{fill:url(#SVGID_00000100369880422083508670000000906290508794414218_);}
	.st26{fill:#FFFFFF;filter:url(#Adobe_OpacityMaskFilter_00000132787110291825525760000011871191021803876760_);}
	.st27{mask:url(#mask3_1_129_00000104690446607311066530000012718114700859327928_);}
	.st28{fill:url(#SVGID_00000004517258479966061990000013972953054718700717_);}
	.st29{fill:#FFFFFF;filter:url(#Adobe_OpacityMaskFilter_00000093165823304793045510000004780275885811117476_);}
	.st30{mask:url(#mask4_1_129_00000160154303705580554300000016154875299628010625_);}
	.st31{fill:url(#SVGID_00000098180640076655334390000010864063240061536139_);}
	.st32{fill:#B33131;filter:url(#Adobe_OpacityMaskFilter_00000047056052474879998000000005199284030818669478_);}
	.st33{mask:url(#mask5_1_129_00000092444038807530746110000005531979885300005782_);}
	.st34{fill:#1E576C;}
	.st35{fill:url(#SVGID_00000059304259077377653350000010611674488476954293_);}
	.st36{fill:none;stroke:#EAFFFF;stroke-width:4;}
	.st37{fill:none;stroke:url(#SVGID_00000134928943082194282200000016670022349824928676_);stroke-width:4;}
</style>
<g>
	<g>
		<defs>
			<path id="SVGID_1_" d="M673,107c0,24.8,0,25,0,25h311.4c0.2,0,1.7,0.4,4.9,2.7c4.3,3,8.1,6.9,14,12.3
				c16.4,15.2,41.9,25.1,67.6,32.1c26.7,7.3,57.8,12.6,88.8,16.5c62.1,7.8,126.6,10.2,160.8,11c0.1,0,0.2,0,0.2,0c0,0,0.1,0,0.1,0.1
				c0,0,0.1,0.1,0.1,0.1c0,0,0,0,0,0c0,0,0,0,0,0.1v669H25V207c0-0.1,0-0.1,0-0.1c0,0,0,0,0,0c0,0,0-0.1,0.1-0.1
				c0,0,0.1-0.1,0.1-0.1c0,0,0.1,0,0.2,0c34.2-0.8,98.7-3.2,160.8-11c31-3.9,62.1-9.2,88.8-16.5c25.7-7.1,51.2-16.9,67.6-32.1
				c6-5.5,9.8-9.3,14-12.4c3.2-2.3,4.6-2.6,4.8-2.7H673C673,132,673,131.6,673,107z"/>
		</defs>
		<clipPath id="SVGID_00000031914683036527518890000004238475171287263411_">
			<use xlink:href="#SVGID_1_"  style="overflow:visible;"/>
		</clipPath>
		<g style="clip-path:url(#SVGID_00000031914683036527518890000004238475171287263411_);">
			<g>
				<defs>
					<polygon id="SVGID_00000127020292207521865650000007393935168652602272_" points="-31,76 -30,76 -31,77 					"/>
				</defs>
				<defs>
					<polygon id="SVGID_00000095298518794446282420000005158184040117504150_" points="-33,74 -34,74 -33,73 					"/>
				</defs>
				<clipPath id="SVGID_00000165941461266138034970000008334625943274373534_">
					<use xlink:href="#SVGID_00000127020292207521865650000007393935168652602272_"  style="overflow:visible;"/>
				</clipPath>
				
					<clipPath id="SVGID_00000093863644911827563050000017190195469097826235_" style="clip-path:url(#SVGID_00000165941461266138034970000008334625943274373534_);">
					<use xlink:href="#SVGID_00000095298518794446282420000005158184040117504150_"  style="overflow:visible;"/>
				</clipPath>
			</g>
		</g>
	</g>
</g>
<path class="st2" d="M673,107c0,24.8,0,25,0,25h311.4c0.2,0,1.7,0.4,4.9,2.7c4.3,3,8.1,6.9,14,12.3c16.4,15.2,41.9,25.1,67.6,32.1
	c26.7,7.3,57.8,12.6,88.8,16.5c62.1,7.8,126.6,10.2,160.8,11c0.1,0,0.2,0,0.2,0c0,0,0.1,0,0.1,0.1c0,0,0.1,0.1,0.1,0.1c0,0,0,0,0,0
	c0,0,0,0,0,0.1v669H25V207c0-0.1,0-0.1,0-0.1c0,0,0,0,0,0c0,0,0-0.1,0.1-0.1c0,0,0.1-0.1,0.1-0.1c0,0,0.1,0,0.2,0
	c34.2-0.8,98.7-3.2,160.8-11c31-3.9,62.1-9.2,88.8-16.5c25.7-7.1,51.2-16.9,67.6-32.1c6-5.5,9.8-9.3,14-12.4
	c3.2-2.3,4.6-2.6,4.8-2.7H673C673,132,673,131.6,673,107z"/>
<linearGradient id="SVGID_00000090982916291017043080000002487144725182768012_" gradientUnits="userSpaceOnUse" x1="-103.6482" y1="756.6392" x2="2003.3518" y2="-415.8629" gradientTransform="matrix(1 0 0 -1 0 852.004)">
	<stop  offset="0" style="stop-color:#47C2B0"/>
	<stop  offset="1" style="stop-color:#195E71"/>
</linearGradient>
<path style="fill:none;stroke:url(#SVGID_00000090982916291017043080000002487144725182768012_);stroke-width:50;" d="M673,88
	c0,24.8,0,25,0,25h311.4c0.2,0,1.7,0.4,4.9,2.7c4.3,3,8.1,6.9,14,12.3c16.4,15.2,41.9,25.1,67.6,32.1c26.7,7.3,57.8,12.6,88.8,16.5
	c62.1,7.8,126.6,10.2,160.8,11c0.1,0,0.2,0,0.2,0c0,0,0.1,0,0.1,0.1c0,0,0.1,0.1,0.1,0.1c0,0,0,0,0,0c0,0,0,0,0,0.1v669H25V188l0,0
	c0,0,0-0.1,0.1-0.1c0.1-0.1,0.1-0.1,0.2-0.1c0.1,0,0.1,0,0.2,0c35.3-0.8,102.8-3.3,166.7-11.7c29.9-3.9,59.7-9.2,85.4-16.5
	c24.7-7,49.1-16.7,65-31.4c6-5.5,9.8-9.3,14.1-12.4c3.2-2.3,4.6-2.6,4.9-2.7H673C673,113,673,112.6,673,88z"/>
<ellipse class="st4" cx="27.7" cy="216.7" rx="3.7" ry="3.7"/>
<ellipse class="st4" cx="28.6" cy="732.9" rx="3.7" ry="3.7"/>
<ellipse class="st4" cx="153.6" cy="865.9" rx="3.7" ry="3.7"/>
<ellipse class="st4" cx="808.8" cy="857.8" rx="3.7" ry="3.7"/>
<ellipse class="st4" cx="1238.6" cy="870.9" rx="3.7" ry="3.7"/>
<ellipse class="st4" cx="1320.6" cy="758.9" rx="3.7" ry="3.7"/>
<ellipse class="st4" cx="1289.6" cy="193.9" rx="3.7" ry="3.7"/>
<ellipse class="st4" cx="1062.6" cy="171.9" rx="3.7" ry="3.7"/>
<ellipse class="st4" cx="936.8" cy="119.8" rx="3.7" ry="3.7"/>
<ellipse class="st4" cx="478.6" cy="114.9" rx="3.7" ry="3.7"/>
<ellipse class="st4" cx="219.6" cy="176.9" rx="3.7" ry="3.7"/>
<ellipse class="st4" cx="21.6" cy="369.9" rx="3.7" ry="3.7"/>
<ellipse class="st4" cx="26.5" cy="192.2" rx="5.2" ry="5.2"/>
<ellipse class="st4" cx="37.5" cy="721.2" rx="5.2" ry="5.2"/>
<ellipse class="st4" cx="175.2" cy="860.2" rx="5.2" ry="5.2"/>
<ellipse class="st4" cx="825.2" cy="849.2" rx="5.2" ry="5.2"/>
<ellipse class="st4" cx="1247.5" cy="859.2" rx="5.2" ry="5.2"/>
<ellipse class="st4" cx="1329.5" cy="747.2" rx="5.2" ry="5.2"/>
<ellipse class="st4" cx="1298.5" cy="182.2" rx="5.2" ry="5.2"/>
<ellipse class="st4" cx="1077.2" cy="171.2" rx="5.2" ry="5.2"/>
<ellipse class="st4" cx="933.5" cy="99.2" rx="5.2" ry="5.2"/>
<ellipse class="st4" cx="498.2" cy="102.2" rx="5.2" ry="5.2"/>
<ellipse class="st4" cx="237.2" cy="172.2" rx="5.2" ry="5.2"/>
<ellipse transform="matrix(1 -9.432727e-03 9.432727e-03 1 -3.377 0.3033)" class="st4" cx="30.5" cy="358.2" rx="5.2" ry="5.2"/>
<ellipse class="st4" cx="13.3" cy="195.9" rx="2.3" ry="2.3"/>
<ellipse class="st4" cx="24.3" cy="724.9" rx="2.3" ry="2.3"/>
<ellipse class="st4" cx="149.3" cy="857.9" rx="2.3" ry="2.3"/>
<ellipse class="st4" cx="797.3" cy="845.9" rx="2.3" ry="2.3"/>
<ellipse class="st4" cx="1234.3" cy="862.9" rx="2.3" ry="2.3"/>
<ellipse class="st4" cx="1316.3" cy="750.9" rx="2.3" ry="2.3"/>
<ellipse class="st4" cx="1285.3" cy="185.9" rx="2.3" ry="2.3"/>
<ellipse class="st4" cx="1058.3" cy="163.9" rx="2.3" ry="2.3"/>
<ellipse class="st4" cx="920.3" cy="102.9" rx="2.3" ry="2.3"/>
<ellipse class="st4" cx="474.3" cy="106.9" rx="2.3" ry="2.3"/>
<ellipse class="st4" cx="205.3" cy="162.3" rx="2.3" ry="2.3"/>
<ellipse transform="matrix(0.9999 -1.514633e-02 1.514633e-02 0.9999 -5.1986 0.2718)" class="st4" cx="15.3" cy="343.3" rx="2.3" ry="2.3"/>
<g>
	<path class="st5" d="M358.1,168.7l-17,65.3"/>
	<path class="st5" d="M492.8,89.8l65.3,17"/>
	<path class="st5" d="M435,209.4l15.3,55.5l-13.5,3.7"/>
	<path class="st5" d="M495.2,173.8l41,40.4l9.8-10"/>
	
		<linearGradient id="SVGID_00000035489519362602989150000008255251663005895572_" gradientUnits="userSpaceOnUse" x1="361.4416" y1="827.1407" x2="467.2131" y2="647.0852" gradientTransform="matrix(1 0 0 -1 0 852.004)">
		<stop  offset="0" style="stop-color:#90D3C9"/>
		<stop  offset="1" style="stop-color:#4A6D68"/>
	</linearGradient>
	<path style="fill:url(#SVGID_00000035489519362602989150000008255251663005895572_);" d="M357.9,27.9c6.4,6.1,2.4,14.9-0.3,18.5
		C352,44.7,337.9,46,326,64.9c11.2-4.9,12.7-5.2,14.7-4.7c-10,5.9-26.6,22.5-22.2,42.3c7.6-6.5,8.9-5.3,10.2-4.1
		c1.3,1.2-15.5,24.3-10.7,33c5.1-7,5-9,6.4-9.5c-1,5.2-3,16.9-1.9,19.7c1.7-3.9,3.7-6.4,4.3-6.8s-3.3,23.7-2.9,29.8
		c5.3-6.6,6-7.8,7.1-8.5c0.6,3.9,0.3,16.1,3.2,21.6c2.2-4.1,2.8-8.8,3.9-9.5c1.3,5.6,3.6,15.9,8.1,21.6c1.7-5,2.5-6.9,3.6-8.1
		c1.1,8.2,8,28.3,10.5,30.5c0.8-5-1.3-9,0.1-10.6c2.3,3.8,3.4,10.6,5.8,9.8c2.4-0.8,6.8-11.8,10.2-8.6c3.3,3.2,5.3,12.9,7.2,14.1
		c2.3-1.4,1.8-8.2,3.9-7.5c2.2,0.7,7.9,11.1,9.4,11.7c0.4-3.7,4.5-7,5-6.6c0.5,0.3,0.8,4.4,3.4,5.8c2.5,1.4,17.1,1.7,18.6,0.9
		s-5.8-4.1-3.7-3.8c3.7,0.4,8.8,1.7,10.5,0.7c1.7-1,7.6-3.6,9.9-2.7c2.3,1,7.5,1,9.5-0.4c2-1.5,2-10.3,8.6-14.2
		c13,5,25.3-18.3,26.6-19.1c1.3-0.8,7.7,0.4,15-0.2c5.5-4.4,7.8-14,8.7-18.3c1.1,0.5,2.3,2.4,2.2,5.3c3.4-3.2,6.6-14.9,7.8-20.4
		c0.1,1.2,0.7,4.2,2.2,6.7c3.7-2.5,0.1-26.2,0.3-25.8c0.2,0.4,2.4-7.1,5.8-1.4c1.2-8-23.9-27.5-4.7-22.7
		c-8.1-14-22.2-29.3-21.4-29.5c1.5-0.3,8.1,4.4,12.9,7.9c-1.8-13.3-31.5-22.5-31.8-23.4c-0.3-1,10.4-0.4,18.3,3.3
		c-6.8-13.2-20.4-21-26.3-23.3c1.9,0.1,6.5,0.2,9.8-0.3c-1.1-1.9-24.5-14.8-35.2-16.6c-0.1-1.7,9-2.7,16.4-2.8
		C455.4,7.8,425,14.2,411.1,19c0.7-1.4,3.2-4.7,7.3-7.1c-5-3.6-25.4,6-35.8,15.6C379.2,19.9,366.5,19.1,357.9,27.9z"/>
	
		<linearGradient id="SVGID_00000127736065453473328950000003861482160233497220_" gradientUnits="userSpaceOnUse" x1="361.4416" y1="827.1407" x2="467.2131" y2="647.0852" gradientTransform="matrix(1 0 0 -1 0 852.004)">
		<stop  offset="0" style="stop-color:#C8FDF6"/>
		<stop  offset="0.4654" style="stop-color:#369C98"/>
		<stop  offset="0.9308" style="stop-color:#4A6D68"/>
	</linearGradient>
	<path style="fill:url(#SVGID_00000127736065453473328950000003861482160233497220_);" d="M357.9,27.9c6.4,6.1,2.4,14.9-0.3,18.5
		C352,44.7,337.9,46,326,64.9c11.2-4.9,12.7-5.2,14.7-4.7c-10,5.9-26.6,22.5-22.2,42.3c7.6-6.5,8.9-5.3,10.2-4.1
		c1.3,1.2-15.5,24.3-10.7,33c5.1-7,5-9,6.4-9.5c-1,5.2-3,16.9-1.9,19.7c1.7-3.9,3.7-6.4,4.3-6.8s-3.3,23.7-2.9,29.8
		c5.3-6.6,6-7.8,7.1-8.5c0.6,3.9,0.3,16.1,3.2,21.6c2.2-4.1,2.8-8.8,3.9-9.5c1.3,5.6,3.6,15.9,8.1,21.6c1.7-5,2.5-6.9,3.6-8.1
		c1.1,8.2,8,28.3,10.5,30.5c0.8-5-1.3-9,0.1-10.6c2.3,3.8,3.4,10.6,5.8,9.8c2.4-0.8,6.8-11.8,10.2-8.6c3.3,3.2,5.3,12.9,7.2,14.1
		c2.3-1.4,1.8-8.2,3.9-7.5c2.2,0.7,7.9,11.1,9.4,11.7c0.4-3.7,4.5-7,5-6.6c0.5,0.3,0.8,4.4,3.4,5.8c2.5,1.4,17.1,1.7,18.6,0.9
		s-5.8-4.1-3.7-3.8c3.7,0.4,8.8,1.7,10.5,0.7c1.7-1,7.6-3.6,9.9-2.7c2.3,1,7.5,1,9.5-0.4c2-1.5,2-10.3,8.6-14.2
		c13,5,25.3-18.3,26.6-19.1c1.3-0.8,7.7,0.4,15-0.2c5.5-4.4,7.8-14,8.7-18.3c1.1,0.5,2.3,2.4,2.2,5.3c3.4-3.2,6.6-14.9,7.8-20.4
		c0.1,1.2,0.7,4.2,2.2,6.7c3.7-2.5,0.1-26.2,0.3-25.8c0.2,0.4,2.4-7.1,5.8-1.4c1.2-8-23.9-27.5-4.7-22.7
		c-8.1-14-22.2-29.3-21.4-29.5c1.5-0.3,8.1,4.4,12.9,7.9c-1.8-13.3-31.5-22.5-31.8-23.4c-0.3-1,10.4-0.4,18.3,3.3
		c-6.8-13.2-20.4-21-26.3-23.3c1.9,0.1,6.5,0.2,9.8-0.3c-1.1-1.9-24.5-14.8-35.2-16.6c-0.1-1.7,9-2.7,16.4-2.8
		C455.4,7.8,425,14.2,411.1,19c0.7-1.4,3.2-4.7,7.3-7.1c-5-3.6-25.4,6-35.8,15.6C379.2,19.9,366.5,19.1,357.9,27.9z"/>
	<path class="st8" d="M368.9,39c5.3,5.1,2,12.3-0.2,15.3c-4.6-1.4-16.3-0.3-26.1,15.3c9.3-4,10.5-4.3,12.2-3.9
		c-8.3,4.9-22,18.6-18.4,35c6.3-5.4,7.4-4.4,8.5-3.4c1.1,1-12.8,20.2-8.9,27.3c4.2-5.8,4.2-7.4,5.3-7.9c-0.8,4.3-4.2,20.8-3.3,23.1
		c1.4-3.2,3-5.3,3.6-5.7c0.5-0.3-2.7,19.6-2.4,24.6c4.4-5.4,5-6.5,5.9-7c0.5,3.3,0.3,13.4,2.7,17.9c1.8-3.4,2.3-7.3,3.2-7.8
		c1,4.6,3,13.2,6.7,17.9c1.4-4.1,2.1-5.7,2.9-6.7c0.9,6.8,6.6,23.4,8.7,25.3c0.6-4.2-1.1-7.4,0-8.8c1.9,3.2,2.8,8.8,4.8,8.1
		c2-0.7,5.7-9.7,8.4-7.1c2.7,2.7,6.1,3.9,7.7,4.9c9.4,11.6,9,6,10.8,6.6c1.8,0.6,6.6,9.2,7.8,9.7c0.3-3.1,3.7-5.8,4.1-5.5
		c0.4,0.2,0.7,3.6,2.8,4.8c2.1,1.1,14.1,1.4,15.4,0.7c1.2-0.7-4.8-3.4-3.1-3.2c3,0.3,7.2,1.4,8.7,0.6c1.4-0.8,6.3-3,8.2-2.2
		c1.9,0.8,6.2,0.9,7.9-0.3c1.7-1.2,1.6-8.5,7.1-11.8c10.7,4.1,21-15.2,22-15.8c1.1-0.6,6.3,0.3,12.5-0.2c4.5-3.6,6.5-11.6,7.2-15.2
		c0.9,0.4,1.9,2,1.9,4.4c2.8-2.6,5.5-12.3,6.5-16.9c0.1,1,0.6,3.4,1.8,5.6c3.1-2,0.1-21.7,0.3-21.3c0.2,0.4,2-5.9,4.8-1.1
		c1-6.6-27.3-35.6-11.4-31.6c-6.7-11.6-18.4-24.3-17.7-24.5c1.3-0.3,6.7,3.7,10.7,6.5c-1.5-11-26.1-18.6-26.3-19.4
		c-0.2-0.8,8.6-0.3,15.1,2.7c-5.7-10.9-16.9-17.4-21.8-19.3c1.6,0.1,5.4,0.2,8.1-0.3c-0.9-1.6-20.3-12.3-29.2-13.7
		c-0.1-1.4,7.5-2.2,13.6-2.3c-8.3-10.3-33.5-5-45-1.1c0.6-1.1,2.6-3.9,6-5.9c-4.1-3-21,5-29.7,12.9C386.6,32.4,376,31.8,368.9,39z"
		/>
	<path class="st9" d="M375,53.5c3.7,3.6,1.4,8.7-0.2,10.8c-3.2-1-11.4-0.2-18.3,10.8c6.5-2.8,7.4-3,8.6-2.7
		c-5.8,3.4-15.4,13.1-12.9,24.6c4.4-3.8,5.2-3.1,5.9-2.4c0.8,0.7-16.8,30.2-14,35.2c2.9-4.1,2.9-5.2,3.7-5.5
		c-0.6,3-1.7,9.8-1.1,11.5c1-2.3,2.1-3.7,2.5-4s-1.9,13.8-1.6,17.3c3.1-3.8,3.5-4.5,4.1-4.9c0.4,2.3,12,19.7,13.7,22.8
		c1.3-2.4,1.6-5.1,2.3-5.5c0.7,3.2,4.6,13.5,7.2,16.8c1-2.9,1.5-4,2.1-4.7c0.6,4.8,18.2,20,19.6,21.3c0.4-2.9-0.7-5.2,0-6.2
		c1.3,2.2,2,6.2,3.4,5.7c1.4-0.5,4-6.8,5.9-5c1.9,1.9,3.1,7.5,4.2,8.2c1.4-0.8,1-4.8,2.3-4.3c1.3,0.4,4.6,6.5,5.5,6.8
		c0.2-2.1,2.6-4,2.9-3.9c0.3,0.2,0.5,2.5,2,3.3c1.5,0.8,9.9,1,10.8,0.5c0.9-0.5-3.4-2.4-2.1-2.2c2.1,0.2,5.1,1,6.1,0.4
		c1-0.6,4.4-2.1,5.8-1.5c1.3,0.6,4.4,0.6,5.5-0.2c1.2-0.9,1.1-6,5-8.3c7.5,2.9,25-22.4,25.7-22.9c0.7-0.4,4.5,0.2,8.7-0.1
		c3.2-2.5,4.5-8.2,5.1-10.6c0.7,0.3,1.3,1.4,1.3,3.1c2-1.8,3.8-8.7,4.5-11.8c0.1,0.7,0.4,2.4,1.3,3.9c2.2-1.4,0-15.2,0.2-15
		c0.1,0.2,1.4-4.2,3.4-0.8c0.7-4.6-21.4-28.8-10.3-26c-4.7-8.2-12.9-17.1-12.4-17.2c0.9-0.2,4.7,2.6,7.5,4.6
		c-1-7.7-18.6-20.2-18.8-20.8c-0.2-0.6,1.3-1.6,5.9,0.5c-4-7.7-11.8-12.2-15.3-13.5c1.1,0.1,3.8,0.1,5.7-0.2
		c-0.7-1.1-32-9.7-38.3-10.7c-0.1-1,5.2-1.6,9.5-1.6c-5.9-7.2-23.5-3.5-31.6-0.8c0.4-0.8,1.8-2.8,4.2-4.1
		c-2.9-2.1-14.8,3.5-20.8,9.1C387.4,48.9,380,48.4,375,53.5z"/>
	
		<ellipse transform="matrix(0.2368 -0.9716 0.9716 0.2368 160.033 461.6512)" class="st10" cx="373.9" cy="129" rx="21.7" ry="19.8"/>
	<defs>
		<filter id="Adobe_OpacityMaskFilter" filterUnits="userSpaceOnUse" x="358" y="115.6" width="32.6" height="32.6">
			<feColorMatrix  type="matrix" values="1 0 0 0 0  0 1 0 0 0  0 0 1 0 0  0 0 0 1 0"/>
		</filter>
	</defs>
	
		<mask maskUnits="userSpaceOnUse" x="358" y="115.6" width="32.6" height="32.6" id="mask0_1_129_00000031908995833518325490000016705879580070228632_">
		
			<ellipse transform="matrix(0.2368 -0.9716 0.9716 0.2368 160.034 461.6504)" class="st11" cx="373.9" cy="129" rx="21.7" ry="19.8"/>
	</mask>
	<g class="st12">
		
			<ellipse transform="matrix(0.8622 -0.5065 0.5065 0.8622 -15.2602 207.7564)" class="st13" cx="374.3" cy="131.9" rx="16.3" ry="16.3"/>
		
			<linearGradient id="SVGID_00000071543915288267073950000010041083406811413911_" gradientUnits="userSpaceOnUse" x1="563.769" y1="923.176" x2="562.5771" y2="902.717" gradientTransform="matrix(0.8622 -0.5065 -0.5065 -0.8622 350.873 1203.8789)">
			<stop  offset="0" style="stop-color:#600505"/>
			<stop  offset="1" style="stop-color:#4A1111"/>
		</linearGradient>
		<circle style="fill:url(#SVGID_00000071543915288267073950000010041083406811413911_);" cx="374.3" cy="131.9" r="16.3"/>
		<circle class="st10" cx="368.9" cy="129.1" r="4.2"/>
	</g>
	
		<ellipse transform="matrix(0.2662 -0.9639 0.9639 0.2662 247.9479 497.0798)" class="st10" cx="450.5" cy="85.7" rx="19.8" ry="21.7"/>
	<defs>
		
			<filter id="Adobe_OpacityMaskFilter_00000037679061375477060500000000291159753268337567_" filterUnits="userSpaceOnUse" x="436.5" y="71.2" width="32.6" height="32.6">
			<feColorMatrix  type="matrix" values="1 0 0 0 0  0 1 0 0 0  0 0 1 0 0  0 0 0 1 0"/>
		</filter>
	</defs>
	
		<mask maskUnits="userSpaceOnUse" x="436.5" y="71.2" width="32.6" height="32.6" id="mask1_1_129_00000104679337888849567170000015813225006773542562_">
		
			<ellipse transform="matrix(0.2662 -0.9639 0.9639 0.2662 247.9479 497.0798)" style="fill:#FFFFFF;filter:url(#Adobe_OpacityMaskFilter_00000037679061375477060500000000291159753268337567_);" cx="450.5" cy="85.7" rx="19.8" ry="21.7"/>
	</mask>
	<g class="st16">
		<circle class="st13" cx="452.8" cy="87.5" r="16.3"/>
		
			<linearGradient id="SVGID_00000064339841380554691600000012696703675541259421_" gradientUnits="userSpaceOnUse" x1="724.0804" y1="1088.7991" x2="722.8886" y2="1068.3398" gradientTransform="matrix(-0.8622 0.5065 -0.5065 -0.8622 1622.6592 650.586)">
			<stop  offset="0" style="stop-color:#600505"/>
			<stop  offset="1" style="stop-color:#4A1111"/>
		</linearGradient>
		<circle style="fill:url(#SVGID_00000064339841380554691600000012696703675541259421_);" cx="452.8" cy="87.5" r="16.3"/>
		<circle class="st10" cx="445.5" cy="85.8" r="4.2"/>
	</g>
	<path class="st13" d="M398.2,177.5c10,11.2,12.1,10.8,17.9,10.1c7.5-1,28-16.7,34.7-20.4c5.4-3,13.6-4.8,28.6-16.8
		c15-12-6.9-54.2-25.7-32.9c-18.8,21.2-30.2,20.4-50.1,29.5C391.6,155,388.2,166.3,398.2,177.5z"/>
	<path class="st18" d="M480.1,148.6c-22.1-12.5-61.7,11.1-61.5,37.3l46.2-27.2C466,158,475.5,151.7,480.1,148.6z"/>
	<defs>
		
			<filter id="Adobe_OpacityMaskFilter_00000168106077831475749350000005668415539989198270_" filterUnits="userSpaceOnUse" x="437.5" y="148.8" width="10.1" height="13.1">
			<feColorMatrix  type="matrix" values="1 0 0 0 0  0 1 0 0 0  0 0 1 0 0  0 0 0 1 0"/>
		</filter>
	</defs>
	
		<mask maskUnits="userSpaceOnUse" x="437.5" y="148.8" width="10.1" height="13.1" id="mask2_1_129_00000127733905997677871960000006195726574595713459_">
		<path style="fill:#B33131;filter:url(#Adobe_OpacityMaskFilter_00000168106077831475749350000005668415539989198270_);" d="
			M480.1,148.6c-22.1-12.5-61.7,11.1-61.5,37.3l46.2-27.2C466,158,475.5,151.7,480.1,148.6z"/>
	</mask>
	<g class="st20">
		<path class="st21" d="M447.6,160.6c0.3,1-0.9,1.7-1.7,1l-8.1-8.3c-0.5-0.5-0.3-1.2,0.2-1.5l4.8-2.8c0.6-0.3,1.3,0,1.4,0.6
			L447.6,160.6z"/>
	</g>
	<path class="st22" d="M466.3,160L466.3,160l18.8-15.3c-2.9-3.6-14.6-10.9-19.4-8.1C473.6,145.7,468.7,155.4,466.3,160z"/>
	<path class="st22" d="M432.2,180.1L432.2,180.1l-22.5,8.9c-1.7-4.2-2.4-18.1,2.4-20.9C416.2,179.5,427,179.9,432.2,180.1z"/>
	<path class="st22" d="M454.9,136.5c-2.8-9.2-4-11-9.2-11.2l11.5-9.6C459,119.8,459.7,133.6,454.9,136.5z"/>
	<path class="st22" d="M420.3,157.1c-6.7-7-7.7-8.9-5.3-13.5l-14,5.4C403.8,152.5,415.5,159.9,420.3,157.1z"/>
	<path class="st23" d="M416,187.6l0.1,0c7.5-1,28-16.7,34.7-20.4c5.4-3,13.6-4.8,28.6-16.8c15-12-6.9-54.2-25.7-32.9
		c-18.8,21.2-30.2,20.4-50.1,29.5c-12.1,8.1-15.5,19.4-5.4,30.6C408.1,188.6,410.2,188.3,416,187.6z"/>
</g>
<g>
	<path class="st5" d="M856.1,79.8L791,97.2"/>
	<path class="st5" d="M991.2,158l17.5,65.1"/>
	<path class="st5" d="M858.7,166.8L818,207.5l-9.9-9.9"/>
	<path class="st5" d="M919.3,201.5l-14.9,55.6l13.5,3.6"/>
	
		<linearGradient id="SVGID_00000005957089517315628920000009209247120552818858_" gradientUnits="userSpaceOnUse" x1="982.9099" y1="840.2785" x2="878.4977" y2="659.4316" gradientTransform="matrix(1 0 0 -1 0 852.004)">
		<stop  offset="0" style="stop-color:#90D3C9"/>
		<stop  offset="1" style="stop-color:#4A6D68"/>
	</linearGradient>
	<path style="fill:url(#SVGID_00000005957089517315628920000009209247120552818858_);" d="M978.5,10.1c-2.2,8.5-11.7,9.5-16.2,8.9
		c-1.3-5.7-9.4-17.3-31.7-18.3c9.7,7.3,10.8,8.5,11.3,10.5c-10.1-5.8-32.7-12-47.7,1.6c9.4,3.4,9,5.2,8.6,6.9
		c-0.4,1.7-28.8-1.5-34,7c8.6,1,10.3,0,11.5,0.9c-5,1.7-16.2,5.8-18.1,8.1c4.2-0.4,7.4,0,8.1,0.4c0.6,0.4-22.2,8.8-27.3,12.2
		c8.3,1.4,9.8,1.4,10.8,2c-3.1,2.5-13.9,8.2-17.2,13.5c4.7-0.2,9.1-1.9,10.1-1.3c-4.2,3.8-12.1,11-14.8,17.7c5.2-1,7.3-1.2,8.8-0.9
		c-6.6,5-20.6,20.9-21.4,24.2c4.8-1.8,7.2-5.5,9.3-5.2c-2.2,3.9-7.6,8.2-5.7,9.8c1.9,1.7,13.6,0.2,12.5,4.6
		c-1.2,4.5-8.6,11-8.8,13.2c2.4,1.4,8-2.5,8.4-0.3s-5.7,12.4-5.5,13.9c3.4-1.5,8.3,0.5,8.2,1c0,0.6-3.4,2.9-3.3,5.8
		c0,2.9,6.9,15.7,8.4,16.6c1.5,0.9,0.7-7.1,1.5-5.1c1.5,3.4,2.8,8.5,4.5,9.5c1.7,1,6.9,4.8,7.2,7.3c0.3,2.5,2.8,7,5.1,8.1
		c2.3,1,9.9-3.4,16.6,0.4c2.1,13.7,28.4,13,29.7,13.7c1.3,0.7,3.5,6.9,7.6,13c6.5,2.6,16.1-0.1,20.2-1.4c0.1,1.2-1,3.2-3.5,4.6
		c4.4,1.4,16.2-1.6,21.6-3.2c-1,0.7-3.3,2.7-4.7,5.2c4,2,22.8-12.8,22.6-12.4c-0.2,0.4,7.4-1.4,4.1,4.3c7.6-2.9,12.1-34.4,17.4-15.3
		c8.2-13.9,14.5-33.8,15.1-33.1c1,1.2,0.1,9.2-0.5,15.1c10.7-8.1,4-38.5,4.7-39.2c0.7-0.7,5.4,8.9,6.1,17.5
		c8.1-12.4,8.2-28.1,7.3-34.3c0.8,1.7,3,5.8,5.1,8.4c1.1-1.9,0.8-28.6-3-38.8c1.4-0.9,6.8,6.5,10.5,12.9
		c5.8-14.9-14.7-38.1-25.7-47.9c1.6-0.1,5.7,0.4,9.8,2.8c0.7-6.2-17.8-19.1-31.2-23.5C996,24.8,990.4,13.2,978.5,10.1z"/>
	
		<linearGradient id="SVGID_00000008113493494326835270000007628078301105952949_" gradientUnits="userSpaceOnUse" x1="982.9099" y1="840.2785" x2="878.4977" y2="659.4316" gradientTransform="matrix(1 0 0 -1 0 852.004)">
		<stop  offset="0" style="stop-color:#C8FDF6"/>
		<stop  offset="0.4654" style="stop-color:#369C98"/>
		<stop  offset="0.9308" style="stop-color:#4A6D68"/>
	</linearGradient>
	<path style="fill:url(#SVGID_00000008113493494326835270000007628078301105952949_);" d="M978.5,10.1c-2.2,8.5-11.7,9.5-16.2,8.9
		c-1.3-5.7-9.4-17.3-31.7-18.3c9.7,7.3,10.8,8.5,11.3,10.5c-10.1-5.8-32.7-12-47.7,1.6c9.4,3.4,9,5.2,8.6,6.9
		c-0.4,1.7-28.8-1.5-34,7c8.6,1,10.3,0,11.5,0.9c-5,1.7-16.2,5.8-18.1,8.1c4.2-0.4,7.4,0,8.1,0.4c0.6,0.4-22.2,8.8-27.3,12.2
		c8.3,1.4,9.8,1.4,10.8,2c-3.1,2.5-13.9,8.2-17.2,13.5c4.7-0.2,9.1-1.9,10.1-1.3c-4.2,3.8-12.1,11-14.8,17.7c5.2-1,7.3-1.2,8.8-0.9
		c-6.6,5-20.6,20.9-21.4,24.2c4.8-1.8,7.2-5.5,9.3-5.2c-2.2,3.9-7.6,8.2-5.7,9.8c1.9,1.7,13.6,0.2,12.5,4.6
		c-1.2,4.5-8.6,11-8.8,13.2c2.4,1.4,8-2.5,8.4-0.3s-5.7,12.4-5.5,13.9c3.4-1.5,8.3,0.5,8.2,1c0,0.6-3.4,2.9-3.3,5.8
		c0,2.9,6.9,15.7,8.4,16.6c1.5,0.9,0.7-7.1,1.5-5.1c1.5,3.4,2.8,8.5,4.5,9.5c1.7,1,6.9,4.8,7.2,7.3c0.3,2.5,2.8,7,5.1,8.1
		c2.3,1,9.9-3.4,16.6,0.4c2.1,13.7,28.4,13,29.7,13.7c1.3,0.7,3.5,6.9,7.6,13c6.5,2.6,16.1-0.1,20.2-1.4c0.1,1.2-1,3.2-3.5,4.6
		c4.4,1.4,16.2-1.6,21.6-3.2c-1,0.7-3.3,2.7-4.7,5.2c4,2,22.8-12.8,22.6-12.4c-0.2,0.4,7.4-1.4,4.1,4.3c7.6-2.9,12.1-34.4,17.4-15.3
		c8.2-13.9,14.5-33.8,15.1-33.1c1,1.2,0.1,9.2-0.5,15.1c10.7-8.1,4-38.5,4.7-39.2c0.7-0.7,5.4,8.9,6.1,17.5
		c8.1-12.4,8.2-28.1,7.3-34.3c0.8,1.7,3,5.8,5.1,8.4c1.1-1.9,0.8-28.6-3-38.8c1.4-0.9,6.8,6.5,10.5,12.9
		c5.8-14.9-14.7-38.1-25.7-47.9c1.6-0.1,5.7,0.4,9.8,2.8c0.7-6.2-17.8-19.1-31.2-23.5C996,24.8,990.4,13.2,978.5,10.1z"/>
	<path class="st8" d="M974.3,25.2c-1.8,7.1-9.7,7.8-13.5,7.4c-1.1-4.7-7.8-14.3-26.2-15.1c8.1,6.1,8.9,7,9.4,8.7
		c-8.3-4.8-27.1-10-39.5,1.3c7.8,2.9,7.5,4.3,7.1,5.7c-0.4,1.4-23.9-1.2-28.1,5.8c7.1,0.8,8.5,0,9.5,0.8c-4.1,1.4-20.1,6.6-21.7,8.5
		c3.5-0.3,6.1,0,6.7,0.3c0.5,0.3-18.4,7.3-22.6,10.1c6.9,1.1,8.1,1.1,9,1.6c-2.6,2-11.5,6.8-14.2,11.2c3.9-0.1,7.5-1.6,8.4-1.1
		c-3.5,3.2-10,9.1-12.2,14.7c4.3-0.8,6-1,7.3-0.8c-5.5,4.2-17.1,17.3-17.7,20c3.9-1.5,6-4.6,7.7-4.3c-1.8,3.2-6.3,6.8-4.7,8.2
		c1.6,1.4,11.3,0.1,10.3,3.8c-1,3.7-0.4,7.3-0.5,9.1c-5.5,14-0.8,10.8-0.4,12.6c0.3,1.9-4.7,10.3-4.5,11.6c2.8-1.2,6.8,0.4,6.8,0.9
		c0,0.5-2.8,2.4-2.8,4.8c0,2.4,5.7,13,7,13.7c1.2,0.7,0.6-5.9,1.3-4.2c1.2,2.8,2.3,7,3.7,7.8c1.4,0.8,5.7,4,6,6
		c0.2,2,2.3,5.8,4.2,6.7c1.9,0.8,8.2-2.8,13.7,0.4c1.7,11.4,23.5,10.8,24.6,11.4c1.1,0.6,2.9,5.7,6.3,10.7
		c5.4,2.2,13.3-0.1,16.8-1.2c0.1,1-0.8,2.6-2.9,3.8c3.7,1.2,13.4-1.3,17.9-2.7c-0.8,0.6-2.7,2.2-3.9,4.3
		c3.3,1.7,18.9-10.6,18.7-10.3c-0.2,0.4,6.1-1.2,3.4,3.6c6.3-2.4,17.5-41.3,21.8-25.5c6.8-11.5,12-28,12.5-27.4
		c0.9,1,0.1,7.6-0.4,12.5c8.8-6.7,3.3-31.9,3.9-32.5c0.6-0.6,4.5,7.3,5.1,14.5c6.7-10.3,6.8-23.2,6-28.4c0.7,1.4,2.5,4.8,4.3,6.9
		c0.9-1.6,0.7-23.7-2.5-32.1c1.2-0.8,5.6,5.4,8.7,10.7c4.9-12.3-12.2-31.6-21.3-39.7c1.3,0,4.7,0.4,8.1,2.3
		c0.6-5.1-14.7-15.8-25.9-19.4C988.7,37.3,984.1,27.8,974.3,25.2z"/>
	<path class="st9" d="M964.7,37.7c-1.3,5-6.8,5.5-9.4,5.2c-0.7-3.3-5.5-10.1-18.4-10.6c5.7,4.3,6.3,4.9,6.6,6.1
		c-5.8-3.4-19-7-27.7,0.9c5.5,2,5.2,3,5,4c-0.3,1-34.5,0.3-37.5,5.2c5,0.6,6,0,6.7,0.5c-2.9,1-9.4,3.4-10.5,4.7
		c2.5-0.2,4.3,0,4.7,0.2c0.4,0.2-12.9,5.2-15.9,7.1c4.8,0.8,5.7,0.8,6.3,1.1c-1.8,1.4-11.2,20.1-13.1,23.2c2.7-0.1,5.3-1.1,5.9-0.7
		c-2.5,2.2-9.5,10.7-11.1,14.6c3-0.6,4.2-0.7,5.1-0.5c-3.8,2.9-8.4,25.7-8.8,27.6c2.8-1.1,4.2-3.2,5.4-3c-1.3,2.2-4.4,4.8-3.3,5.7
		c1.1,1,7.9,0.1,7.2,2.7c-0.7,2.6-5,6.4-5.1,7.7c1.4,0.8,4.7-1.5,4.9-0.2c0.2,1.3-3.3,7.2-3.2,8.1c2-0.8,4.8,0.3,4.8,0.6
		c0,0.3-2,1.7-1.9,3.4c0,1.7,4,9.1,4.9,9.6c0.9,0.5,0.4-4.1,0.9-3c0.8,2,1.6,4.9,2.6,5.5c1,0.6,4,2.8,4.2,4.2
		c0.2,1.4,1.6,4.1,2.9,4.7c1.3,0.6,5.8-2,9.6,0.2c1.2,8,31.8,10.7,32.6,11.1c0.7,0.4,2,4,4.4,7.5c3.8,1.5,9.3-0.1,11.8-0.8
		c0.1,0.7-0.6,1.8-2,2.6c2.6,0.8,9.4-0.9,12.5-1.9c-0.6,0.4-1.9,1.6-2.8,3.1c2.3,1.2,13.3-7.5,13.1-7.2c-0.1,0.2,4.3-0.8,2.4,2.5
		c4.4-1.7,14.5-32.8,17.5-21.8c4.8-8.1,8.5-19.7,8.8-19.3c0.6,0.7,0.1,5.3-0.3,8.8c6.2-4.7,8.4-26.2,8.8-26.6
		c0.4-0.4,2.1,0.4,2.5,5.4c4.7-7.2,4.8-16.3,4.2-20c0.5,1,1.7,3.4,3,4.9c0.7-1.1-7.4-32.6-9.6-38.5c0.8-0.5,4,3.8,6.1,7.5
		c3.4-8.7-8.5-22.2-14.9-27.9c0.9,0,3.3,0.2,5.7,1.6c0.4-3.6-10.3-11.1-18.1-13.6C974.8,46.2,971.6,39.5,964.7,37.7z"/>
	
		<ellipse transform="matrix(0.9619 -0.2734 0.2734 0.9619 14.0364 248.5071)" class="st10" cx="898.5" cy="73.9" rx="21.7" ry="19.8"/>
	<defs>
		
			<filter id="Adobe_OpacityMaskFilter_00000017491312451693743490000015844416054919271578_" filterUnits="userSpaceOnUse" x="879.8" y="59.4" width="32.6" height="32.6">
			<feColorMatrix  type="matrix" values="1 0 0 0 0  0 1 0 0 0  0 0 1 0 0  0 0 0 1 0"/>
		</filter>
	</defs>
	
		<mask maskUnits="userSpaceOnUse" x="879.8" y="59.4" width="32.6" height="32.6" id="mask3_1_129_00000104690446607311066530000012718114700859327928_">
		
			<ellipse transform="matrix(0.9619 -0.2734 0.2734 0.9619 14.0364 248.5071)" style="fill:#FFFFFF;filter:url(#Adobe_OpacityMaskFilter_00000017491312451693743490000015844416054919271578_);" cx="898.5" cy="73.9" rx="21.7" ry="19.8"/>
	</mask>
	<g class="st27">
		<ellipse transform="matrix(0.5 -0.866 0.866 0.5 382.4757 813.9335)" class="st13" cx="896.1" cy="75.7" rx="16.3" ry="16.3"/>
		
			<linearGradient id="SVGID_00000016045049431890892110000010099502762210396054_" gradientUnits="userSpaceOnUse" x1="831.2723" y1="529.4087" x2="830.0813" y2="508.9497" gradientTransform="matrix(0.866 0.5 0.5 -0.866 -82.5569 109.5685)">
			<stop  offset="0" style="stop-color:#600505"/>
			<stop  offset="1" style="stop-color:#4A1111"/>
		</linearGradient>
		<circle style="fill:url(#SVGID_00000016045049431890892110000010099502762210396054_);" cx="896.1" cy="75.7" r="16.3"/>
		<circle class="st10" cx="895.9" cy="69.6" r="4.2"/>
	</g>
	
		<ellipse transform="matrix(0.9697 -0.2441 0.2441 0.9697 0.3785 241.3721)" class="st10" cx="973.9" cy="119.2" rx="19.8" ry="21.7"/>
	<defs>
		
			<filter id="Adobe_OpacityMaskFilter_00000016783187716332959340000016083738223804537279_" filterUnits="userSpaceOnUse" x="957.2" y="105.8" width="32.6" height="32.6">
			<feColorMatrix  type="matrix" values="1 0 0 0 0  0 1 0 0 0  0 0 1 0 0  0 0 0 1 0"/>
		</filter>
	</defs>
	
		<mask maskUnits="userSpaceOnUse" x="957.2" y="105.8" width="32.6" height="32.6" id="mask4_1_129_00000160154303705580554300000016154875299628010625_">
		
			<ellipse transform="matrix(0.9697 -0.2441 0.2441 0.9697 0.3785 241.3723)" style="fill:#FFFFFF;filter:url(#Adobe_OpacityMaskFilter_00000016783187716332959340000016083738223804537279_);" cx="973.9" cy="119.2" rx="19.8" ry="21.7"/>
	</mask>
	<g class="st30">
		<circle class="st13" cx="973.5" cy="122.1" r="16.3"/>
		
			<linearGradient id="SVGID_00000085224865219013463460000013226278148335536819_" gradientUnits="userSpaceOnUse" x1="978.4126" y1="638.8341" x2="977.2208" y2="618.3749" gradientTransform="matrix(-0.866 -0.5 0.5 -0.866 1506.2782 1154.947)">
			<stop  offset="0" style="stop-color:#600505"/>
			<stop  offset="1" style="stop-color:#4A1111"/>
		</linearGradient>
		<circle style="fill:url(#SVGID_00000085224865219013463460000013226278148335536819_);" cx="973.5" cy="122.1" r="16.3"/>
		<circle class="st10" cx="971.4" cy="114.9" r="4.2"/>
	</g>
	<path class="st13" d="M868.3,119c-4.8,14.3-3.5,15.9,0.1,20.6c4.5,6,28.3,16.1,34.9,20.1c5.2,3.2,10.9,9.4,28.7,16.6
		c17.8,7.2,43.7-32.7,16-38.6c-27.7-5.9-32.7-16.2-50.4-29.1C884.6,102.2,873.1,104.7,868.3,119z"/>
	<path class="st18" d="M933.8,176c0-25.4-40.1-48.2-62.8-35.1l46.4,26.8C918.7,168.4,928.9,173.5,933.8,176z"/>
	<defs>
		
			<filter id="Adobe_OpacityMaskFilter_00000044166509705105359120000006247324400265143197_" filterUnits="userSpaceOnUse" x="905.6" y="140.8" width="10" height="13.1">
			<feColorMatrix  type="matrix" values="1 0 0 0 0  0 1 0 0 0  0 0 1 0 0  0 0 0 1 0"/>
		</filter>
	</defs>
	
		<mask maskUnits="userSpaceOnUse" x="905.6" y="140.8" width="10" height="13.1" id="mask5_1_129_00000092444038807530746110000005531979885300005782_">
		<path style="fill:#B33131;filter:url(#Adobe_OpacityMaskFilter_00000044166509705105359120000006247324400265143197_);" d="
			M933.8,176c0-25.4-40.1-48.2-62.8-35.1l46.4,26.8C918.7,168.4,928.9,173.5,933.8,176z"/>
	</mask>
	<g class="st33">
		<path class="st21" d="M907.3,153.6c-0.7,0.7-1.9,0-1.7-1l3.2-11.1c0.2-0.6,0.9-0.9,1.4-0.6l4.8,2.8c0.6,0.3,0.7,1.1,0.2,1.5
			L907.3,153.6z"/>
	</g>
	<path class="st22" d="M917.1,169.7L917.1,169.7l22.5,8.8c1.7-4.3,2.3-18.1-2.5-20.8C933.1,168.9,922.3,169.4,917.1,169.7z"/>
	<path class="st22" d="M882.8,149.9L882.8,149.9L864,134.8c2.8-3.6,14.5-11,19.3-8.2C875.5,135.6,880.4,145.2,882.8,149.9z"/>
	<path class="st22" d="M932,148.1c6.6-7,7.6-8.9,5.2-13.5l14.1,5.3C948.4,143.4,936.8,150.8,932,148.1z"/>
	<path class="st22" d="M897,128.1c2.8-9.2,3.9-11.1,9.1-11.3l-11.6-9.6C892.8,111.5,892.2,125.4,897,128.1z"/>
	<path class="st23" d="M868.3,139.5l0.1,0.1c4.5,6,28.3,16.1,34.9,20.1c5.2,3.2,10.9,9.4,28.7,16.6c17.8,7.2,43.7-32.7,16-38.6
		c-27.7-5.9-32.7-16.2-50.4-29.1c-13-6.5-24.5-3.9-29.3,10.4C863.5,133.1,864.8,134.8,868.3,139.5z"/>
</g>
<g>
	<path class="st34" d="M512,0h321c23.2,0,42,18.8,42,42v134c0,23.2-18.8,42-42,42H512c-23.2,0-42-18.8-42-42V42
		C470,18.8,488.8,0,512,0z"/>
	
		<linearGradient id="SVGID_00000050651086137163614790000002095160505840303281_" gradientUnits="userSpaceOnUse" x1="215.5772" y1="1087.6852" x2="1019.5772" y2="481.1852" gradientTransform="matrix(1 0 0 -1 0 852.004)">
		<stop  offset="0" style="stop-color:#47C2B0"/>
		<stop  offset="0.6731" style="stop-color:#195E71"/>
	</linearGradient>
	<path style="fill:url(#SVGID_00000050651086137163614790000002095160505840303281_);" d="M512,0h321c23.2,0,42,18.8,42,42v134
		c0,23.2-18.8,42-42,42H512c-23.2,0-42-18.8-42-42V42C470,18.8,488.8,0,512,0z"/>
	<path class="st36" d="M512,2h321c22.1,0,40,17.9,40,40v134c0,22.1-17.9,40-40,40H512c-22.1,0-40-17.9-40-40V42
		C472,19.9,489.9,2,512,2z"/>
	
		<linearGradient id="SVGID_00000028287615535714620280000007005833912880211615_" gradientUnits="userSpaceOnUse" x1="467.3454" y1="849.0641" x2="1318.0653" y2="409.2621" gradientTransform="matrix(1 0 0 -1 0 852.004)">
		<stop  offset="0" style="stop-color:#47C2B0"/>
		<stop  offset="1" style="stop-color:#195E71"/>
	</linearGradient>
	<path style="fill:none;stroke:url(#SVGID_00000028287615535714620280000007005833912880211615_);stroke-width:4;" d="M512,2h321
		c22.1,0,40,17.9,40,40v134c0,22.1-17.9,40-40,40H512c-22.1,0-40-17.9-40-40V42C472,19.9,489.9,2,512,2z"/>
</g>
<g>
	<path class="st10" d="M769,98c-5.1-4.3-5.6-4.8-8.7-10.5c-0.6-1-0.8-2-0.9-3.2c0-0.9,0.1-2.3,0.8-3c0.3-0.1,1.7-1.6,2.1-2
		c0.5-0.2,1.6-1.3,1.8-1.5c0.3-0.2,2.3-1.5,2.6-1.7c1.2-0.7,4.1-2.8,5.5-2.5c3.4,0.7,7,9.9,12.9,9.9c7.7,0,7-5.2-0.8-11
		c-3.7-2.8-6.6-5.7-10.1-8.6c-20-16-18.3-40.6,7.5-43.7c10.1-1.3,20.6,3.3,26.6,10.6c1.6,2.2-4.9,11.3-6.1,12.8
		c-0.5,0.9-1.1,2.8-2.3,2.8c-0.8,0-1.7-0.2-2.3-0.5c-3.7-2.3-6.9-6.8-11.7-6.8c-3.7,0-5.1,4.3-3.1,7c4.3,4.3,11.4,10,16.3,13.4
		c9.7,6.8,12.9,19.9,8,29.4c-4.7,9.4-13.8,13.3-24.7,13.3c-3.7,0-6.6-0.8-9.8-2.4C770.8,98.9,770.4,98.4,769,98z"/>
	<path class="st10" d="M718,98c-5.1-4.3-5.6-4.8-8.7-10.5c-0.6-1-0.8-2-0.9-3.2c0-0.9,0.1-2.3,0.8-3c0.3-0.1,1.7-1.6,2.1-2
		c0.5-0.2,1.6-1.3,1.8-1.5c0.3-0.2,2.3-1.5,2.6-1.7c1.1-0.7,4.1-2.8,5.5-2.5c3.4,0.7,7,9.9,12.9,9.9c7.7,0,7-5.2-0.8-11
		c-3.7-2.8-6.6-5.7-10.1-8.6c-20-16-18.3-40.6,7.5-43.7c10.1-1.3,20.6,3.3,26.6,10.6c1.6,2.2-4.9,11.3-6.1,12.8
		c-0.5,0.9-1.1,2.8-2.3,2.8c-0.8,0-1.7-0.2-2.3-0.5c-3.7-2.3-6.9-6.8-11.7-6.8c-3.7,0-5.1,4.3-3.1,7c4.3,4.3,11.4,10,16.3,13.4
		c9.7,6.8,12.9,19.9,8,29.4c-4.7,9.4-13.8,13.3-24.7,13.3c-3.7,0-6.6-0.8-9.8-2.4C719.9,98.9,719.4,98.4,718,98z"/>
	<path class="st10" d="M665.6,101.8c-1-0.6-3.2-0.8-4.3-1.3c-1.3-0.3-1.8-0.8-2.9-1.3c-1.7-1-3.8-2.1-5.2-3.6
		c-1.8-2.2-3-5.1-3.9-7.8c-2.8-8.3-3.2-18.6-3.6-27.2c0-0.8,0.1-4.6,0.1-5.4l1.3-14.1c0.9-3.1,1.4-6.2,2.4-9.4c0,0,0.1-0.2,0.2-0.3
		c0.1-0.1,0.1-0.3,0.2-0.5c1.2-2,2.2-3.8,3.7-5.7c0.7-1,0.7-0.9,1.7-1.4c9.3-4.6,24.5-4.3,32.4-2.4c2.5,0.6,4.8,2.1,6.8,4
		c4.4,4.1,6.9,7.6,7.6,13.6c0.7,6.8,1.5,13.7,1.5,20.5c0,6.7-0.6,13.9-1.6,20.7c0,0.1-0.2,0.7-0.2,0.8c-0.3,1.5-2.2,8.7-2.6,10.1
		c-2.9,6.6-8.5,11.5-16,11.5C678.6,102.5,670.5,102.5,665.6,101.8z M665.6,53.7c0,0.5,0,1,0,1.8c-0.1,7.6-0.2,22.9,5.2,26.9
		c0.6,0.5,1.6,0.3,2.1,0.3c5.9,0,10.8,1.4,11.1-6.9c0-0.6,0.1-5.6,0.1-15.1c0,0,0-3.4,0-4.7c0-0.2,0-0.7,0-1.1c0-0.2,0-0.3,0-0.6
		c-0.1-14.5-3.2-14.6-8.2-14.6c-10.8,0-9.7,5.1-10.3,14.7C665.6,54.5,665.6,53.2,665.6,53.7z"/>
	<path class="st10" d="M598,100.8c0.7-28.3-0.5-66.6-0.9-74.6v-1.6c0.2-2.8,4.4-2.1,6-2.1c1.3,0,12.1-0.8,13.2-0.1l1.3,0.8
		c0.9,10.5,0.2,39.9,1.4,60.9h1.6c5.9,0,20.2,0.6,19.1,0.6c0.1,0,0.3,0.1,0.6,0.1c1.6,2.8,2.1,15.2,0,17.5
		c-10.8,0-25.4-1.1-39.7-0.2C600,102.1,598,102,598,100.8z"/>
	<path class="st10" d="M584.4,22.2c2.4,0,2.5,9.1,2.6,11.1v0.5c0,0.1,0.2,1,0.2,1.1c0,0.2,0.1-0.6,0.1-1.1c0-0.4,0-0.3,0,0
		c0,0.5-0.1,1.8-0.3,4.7c0,2.4-3.2,2.8-5.2,2.8h-0.7c-0.5-0.1-4.1-0.1-4.7-0.2h-15.4c-2,0-3.6,1.6-3.6,3.6l0.4,24
		c0,2,1.7,3.5,3.6,3.5l20.5-0.3c4.4,0.2,5.2,7.5,5.2,15.3c-1.1,3.6-5.1,5.4-8.5,3.8l-0.3-0.2c-9.3-4.4-19.5,3.9-17.1,13.9l4.5,18.7
		l2.9,51.4c0,1.8-0.2,9.1-0.2,10.6c-0.1,2.4-0.5,2.9-2.6,3.4c-0.6,0.2-2.4,0.8-2.5,0.8h-2.1c-1.4,0-8.3-0.2-9.6-0.2h-10.5
		c-0.6,0-2.5-0.1-2.5-1.3l-1.5-149.3c-0.1-8.4,6.5-15.3,15-15.3c8.5,0,17.8,0.1,22.8-0.2C580.8,23.3,582.1,21.8,584.4,22.2z"/>
	<path class="st10" d="M759.6,176.1c0-3.4,9.1-16.9,11.5-14.7c2.1,1.8,5.9,9.1,11.4,9.1c2.8,0,5.2-1.5,5.2-4c0-5.9-6-7.6-10.9-11.4
		c-6.9-5.3-14-9.1-14.7-19.5c-1.8-10.7,4.4-23.6,15.9-26.3c2.5-0.6,6.4-0.7,9.2-0.7c8.2,0,14.8,4.6,22,14.9
		c-2.8,4.3-9,8.7-12.4,11.7c-0.1,0-0.3,0.2-0.5,0.1c-4.4-7.2-15.7-15.1-15.7-5.5c0,4.3,8,9,10.9,10.9c13.7,9.3,17.5,16.8,17.5,25.7
		c0,12.5-9.5,23.4-22.2,23.4C775.1,189.9,767.2,185.1,759.6,176.1z"/>
	<path class="st10" d="M708.3,176.1c0-3.4,9.1-16.9,11.5-14.7c2.1,1.8,5.9,9.1,11.4,9.1c2.8,0,5.2-1.5,5.2-4c0-5.9-6-7.6-10.9-11.4
		c-6.9-5.3-14-9.1-14.7-19.5c-1.8-10.7,4.4-23.6,15.9-26.3c2.5-0.6,6.4-0.7,9.2-0.7c8.2,0,14.8,4.6,22,14.9
		c-2.8,4.3-9,8.7-12.4,11.7c-0.1,0-0.3,0.2-0.5,0.1c-4.4-7.2-15.7-15.1-15.7-5.5c0,4.3,8,9,10.9,10.9c13.7,9.3,17.5,16.8,17.5,25.7
		c0,12.5-9.5,23.4-22.2,23.4C723.9,189.9,715.9,185.1,708.3,176.1z"/>
	<path class="st10" d="M647.4,140c0-1.5,0-4.8,0-4.9c0.1-1.7,1.3-9.9,1.7-11.6c0.9-5.3,5.7-11.3,10.9-12.9
		c6.8-2.2,25.7-3.1,32.2,1.4c9.1,6.3,12.9,13.6,12.9,27.8c0,12.9,4.4,45.3-17,48.7c-2.9,0.5-10.9,1-13.8,1c-0.6,0-3.2-0.1-3.8-0.1
		c-0.5-0.1-0.9-0.1-1.4-0.2c-4.4-0.7-10-1.5-12.6-4.6c-7.4-8.5-8.5-20.6-8.9-34.6C647.5,146.9,647.4,143,647.4,140z M666.3,142.9
		c0.2,2.4-0.6,10.5,0.5,19.4c0.8,6.3,3.4,9,8.3,9c0.3,0,0.6,0,0.9,0c4.8,0.1,10.6,0.1,10.2-13.8c0-1.4-0.1-10.3-0.1-11.1
		c0-0.1,0-1.4,0-1.8c0-2.8-0.1-5.3-0.2-8.2c0-0.3,0-0.6,0-0.9c-0.1-8.5-6.3-8.3-10.1-8.2c-0.3,0-0.7,0-1,0c-6.9,0-7.2,2.6-8.4,11.3
		c0,0.2,0,0.5,0,0.7C666.3,139.9,666.3,142.4,666.3,142.9z"/>
	<path class="st10" d="M603.3,188.4c-1.1,0-2.3-0.1-3.3-0.5c-0.2-0.1-1-0.3-1-0.8c0-3.1,0.3-6.3,0.3-9.3v-1.7
		c-0.1-0.8-0.5-7-0.5-7.8v-5.8c0-0.9-0.4-7.5-0.4-8.3v-7.5c0-0.8-0.4-6.5-0.5-7.3c0-0.2,0.1-1.9,0-2.2c0,0,0-0.3-0.1-0.5
		c0.2-7.9-0.6-15.7-0.6-23.6c0-0.9-0.3-3.3,0.4-4.2c8.1-0.3,17.2-1.4,26.1-0.7c16.1,1.3,18.7,27.6,11.4,36.1l-3,3.1
		c-0.1,0-0.3,0.1-0.3,0.2v0.1c0,0.3,2.5,2.1,2.8,2.4c0.5,0.6,3.4,3.5,3.9,4.2c7.6,10.4,5.4,32.4-7.5,34.5c-3.3,0.6-6.5,0.7-9.8,0.7
		L603.3,188.4z M621.2,175.3c0.1,0,0.4,0.2,0.5,0.2h0.1c4.1,0,6.3-4.3,6.3-8.5c0-3-1.7-8.7-4.4-9.8c-0.6-0.1-2.5-0.3-3.2-0.3
		c-1.7,0-3.2,0.2-4.8,0.2l0.6,17c0.1,0.5,1.8,0.5,1.9,0.5C618.6,174.8,620.7,175.2,621.2,175.3z M614.3,137.9l0.4,0.5h1.4
		c4.1,0,6.6-1.4,7.7-5.9c0-0.1,0.2-1,0.2-1.1v-5.4c0-3.7-2.6-5.1-5.4-5.1h-0.9c-0.3,0-3.6,0.5-3.9,0.5h-0.2l-0.3,0.2v1.7
		c0,4.5,0.7,8.6,1.1,13.1V137.9z"/>
	<path class="st10" d="M579.2,30v44.4h0.7l2.1-25.8L579.9,30H579.2z"/>
</g>
</svg>
