<svg width="400" height="400" viewBox="0 0 400 400" fill="none" xmlns="http://www.w3.org/2000/svg">
<path d="M206.811 39.145C208.457 38.8521 210.814 38.8877 213.057 40.3613C215.289 41.8312 216.265 43.9728 216.657 45.5414C217.041 47.0797 217.019 48.614 216.922 49.8756L215.017 74.7719C214.755 78.1655 214.603 81.5814 214.593 84.9736V87.3865C217.351 87.548 220.02 87.9951 222.235 88.4247C226.139 89.1816 230.735 90.33 235.893 91.7822C247.012 94.9127 257.673 99.2376 267.854 104.745C277.928 110.194 287.425 116.63 296.335 124.032C306.876 132.789 314.521 143.78 319.076 156.703C322.596 166.691 325.898 176.517 328.981 186.18C332.336 196.697 334.753 207.503 336.238 218.585C337.949 231.36 336.776 243.971 332.737 256.21C329.437 266.208 325.822 276.062 321.894 285.77C317.674 296.202 312.425 306.271 306.177 315.974C299.147 326.892 290.136 335.993 279.272 343.174C268.841 350.068 257.567 355.1 245.52 358.217C233.662 361.285 221.665 362.501 209.595 361.813C199.694 361.249 189.823 360.873 179.983 360.688C167.154 360.446 154.912 357.402 143.458 351.612C133.563 346.61 124.165 340.848 115.276 334.329C106.568 327.942 98.1936 320.934 90.1518 313.318C80.445 304.125 73.4374 293.061 69.2781 280.364C65.4717 268.744 63.6231 257.034 63.9491 245.324C64.1443 238.315 65.9153 229.501 72.648 222.655C79.7619 215.422 88.9539 213.828 96.4742 214.307C104.317 214.807 111.862 217.561 118.101 223.096C124.128 228.442 127.783 235.354 129.964 242.365C131.946 248.735 135.449 254.18 140.808 258.928C148.509 265.75 156.059 272.325 163.457 278.651C168.391 282.871 173.895 285.421 180.308 286.458C189.07 287.876 197.892 288.588 206.781 288.595C214.63 288.602 222.584 287.342 230.703 284.713C236.375 282.877 240.428 279.669 243.512 274.571C248.655 266.071 253.365 257.637 257.648 249.271C261.156 242.416 263.45 235.026 264.498 226.991C265.544 218.971 265.277 210.755 263.615 202.264C262.257 195.324 259.231 189.456 254.341 184.299C247.873 177.479 240.848 171.366 233.257 165.947C227.647 161.943 221.648 158.934 215.201 156.884L217.981 180.224C218.248 182.453 218.279 184.953 217.557 187.308C216.763 189.889 217.45 199.973 214.434 201.294L209.797 204C205.142 206.026 190.148 199.471 186.587 197.721L164.141 186.726C160.66 185.015 157.299 183.079 154.083 180.912L143.759 173.935L133.383 166.905C130.598 165.028 127.696 163.325 124.754 161.724L102.837 149.778C99.6631 148.052 96.4884 146.297 93.3602 144.492L71.7607 132.018C70.2151 131.126 69.0207 130.374 68.1608 129.85C67.7422 129.596 67.3218 129.38 66.9962 129.163C66.8421 129.06 66.5921 128.918 66.3604 128.74C66.2485 128.654 66.0531 128.469 65.8316 128.265C65.7068 128.151 65.0914 127.543 64.5609 126.626L63.9259 125.569L63.0788 123.243C62.7188 120.986 63.6832 119.132 64.1373 118.433C64.7659 117.471 65.4818 116.879 65.7255 116.688C66.3173 116.226 66.9081 115.893 67.2075 115.737C67.9121 115.371 68.825 115.006 69.749 114.627L75.9955 112.09L82.1895 109.553C83.6345 108.961 85.8462 107.867 88.9132 106.223L99.9252 100.302L110.936 94.4355C113.816 92.891 116.579 91.1186 119.248 89.2019L129.412 81.9081L139.63 74.6134C142.838 72.3104 146.201 70.2709 149.741 68.534L172.188 57.5399C175.275 56.0252 178.298 54.4379 181.24 52.7827L191.988 46.7042L202.681 40.6782C203.782 40.0599 205.221 39.4321 206.811 39.145Z" fill="white"/>
</svg>
