<svg width="967" height="244" viewBox="0 0 967 244" fill="none" xmlns="http://www.w3.org/2000/svg">
<path d="M203.438 231C187.688 231 169.438 228.5 168.188 228.25L167.688 162L166.938 56.25C168.188 56 179.687 54.25 193.938 54.25C249.438 54.25 253.938 80.25 253.938 92.75C253.938 95.25 253.688 97.25 253.688 98.5C253.688 124.5 242.438 131 238.438 135.5C244.938 138.5 270.188 145.5 270.188 183.75C270.188 201.5 261.438 231 203.438 231ZM199.688 118C214.188 117 217.688 107.75 217.688 102.25C217.688 96.25 211.688 88.25 199.688 89.25V118ZM205.188 191.5C207.188 191.75 208.938 191.75 210.688 191.75C221.938 191.75 226.688 188 226.688 183.5C226.688 178 218.688 171.5 205.688 171.5H205.188V191.5ZM321.527 229C310.527 228.75 318.527 227.75 282.027 227.75H279.277L280.277 165V133.5C280.277 120.75 280.277 107.75 279.527 95C278.527 79.75 278.527 68.75 277.777 61C286.777 59.25 310.777 54 337.027 58C361.777 62 372.277 74.75 372.277 99.25V101C372.277 130.75 357.527 145.25 354.027 148.75C362.277 164.75 372.777 201.75 385.777 225.5C379.777 226.25 373.277 227.25 360.777 227L344.027 226.75C326.277 188 323.527 184 322.277 182C321.777 181.25 320.777 179.75 320.277 179.25C320.027 181.25 319.777 193.75 319.777 198.25C319.777 219 321.527 227.5 321.527 229ZM316.027 95L316.277 97.5V116.25L316.527 124.25C317.527 124 330.027 123.5 330.027 111.5V110.5C330.027 96.75 316.527 95 316.027 95ZM440.246 231C386.996 231 383.246 198.5 383.246 157.25C383.246 145.25 383.746 133.25 383.496 121.25V89.5C383.496 56.5 383.246 71.5 383.746 56.25C393.496 56.25 421.496 55.5 425.746 55.5C426.496 65 424.746 86.75 424.746 115C424.746 131.25 425.496 147.75 427.996 164C429.746 177.25 434.746 177.25 436.996 177.25C451.746 177.25 452.746 158.75 452.996 147C453.746 120.75 455.246 62 454.996 57.75L493.496 56.75C493.746 68.25 495.496 124.75 495.496 145C495.496 161.5 497.996 231 440.246 231ZM545.492 230C521.742 230 509.492 216 497.992 208.5L520.492 173C524.992 175.75 531.492 180 540.992 180C550.492 180 568.992 173 568.992 161C568.992 158.25 567.992 145 542.742 142.75C521.742 140.75 512.492 131.25 512.992 109.25C513.492 88.5 521.242 71.75 539.742 61.25C565.492 47 595.242 53.5 612.242 60.75L609.992 65.5C603.242 80.5 596.992 94.25 593.742 100.75C590.742 99.25 587.492 97.25 581.742 97.25C565.492 97.25 565.992 104 565.992 105.25C565.992 108 566.992 114 577.992 117.5C605.242 126 617.742 145.5 617.742 168C617.742 226.25 561.242 230 545.492 230ZM625.189 231C625.189 224.25 625.689 215.5 625.689 208.75V167.25L625.439 126.25V122.25C625.439 101.25 625.689 77.25 625.939 56.25H672.689L671.939 109.5V132.25L702.189 133.75V122.25C702.689 109.5 703.439 97 703.939 84.25C704.439 78.25 704.939 69.25 704.939 63C708.439 62.75 728.939 62 747.689 61.75V89.75C747.689 105.5 747.939 121.5 747.939 137.5L747.689 157.75C747.189 183.5 744.939 205 744.439 229C713.939 229 717.939 229 705.939 229.5L705.189 214.75C703.189 168.25 703.439 171.25 703.189 166.25L673.439 166.5C673.439 170 672.439 213.25 672.189 217.25V230L626.189 231H625.189ZM760.561 168.5C760.561 163 760.811 177.25 757.061 71.5L756.811 57.25L799.811 53.25C791.061 175.75 792.061 164 791.811 168.5H760.561ZM755.561 211C755.811 194.25 764.561 185.25 777.561 185.25C795.811 185.25 800.061 201.75 800.061 211C800.061 216.75 798.561 222.5 795.311 226.5C790.561 232.5 782.311 235.75 774.811 235.75C756.561 235.75 756.061 217.5 755.561 211Z" fill="white"/>
</svg>
