<svg width="203" height="209" viewBox="0 0 203 209" fill="none" xmlns="http://www.w3.org/2000/svg">
<path d="M100.667 18.1084C101.063 17.5124 101.937 17.5124 102.333 18.1084L130.258 60.1963C131.985 62.7996 134.593 64.6939 137.603 65.5322L186.259 79.084C186.948 79.2759 187.219 80.1085 186.774 80.6689L155.376 120.232C153.434 122.68 152.438 125.745 152.57 128.866L154.717 179.329C154.747 180.044 154.039 180.559 153.369 180.31L106.039 162.674V162.673C103.111 161.582 99.8886 161.582 96.9609 162.673V162.674L49.6309 180.31C48.9605 180.559 48.2528 180.044 48.2832 179.329L50.4297 128.866C50.5624 125.745 49.5662 122.68 47.624 120.232L16.2256 80.6689C15.7811 80.1085 16.0521 79.2759 16.7412 79.084L65.3975 65.5322C68.4072 64.6939 71.0148 62.7996 72.7422 60.1963L100.667 18.1084Z" fill="#EC9E0A" stroke="url(#paint0_linear_418_3210)" stroke-width="12"/>
<path d="M100.667 12.1084C101.063 11.5124 101.937 11.5124 102.333 12.1084L130.258 54.1963C131.985 56.7996 134.593 58.6939 137.603 59.5322L186.259 73.084C186.948 73.2759 187.219 74.1085 186.774 74.6689L155.376 114.232C153.434 116.68 152.438 119.745 152.57 122.866L154.717 173.329C154.747 174.044 154.039 174.559 153.369 174.31L106.039 156.674V156.673C103.111 155.582 99.8886 155.582 96.9609 156.673V156.674L49.6309 174.31C48.9605 174.559 48.2528 174.044 48.2832 173.329L50.4297 122.866C50.5624 119.745 49.5662 116.68 47.624 114.232L16.2256 74.6689C15.7811 74.1085 16.0521 73.2759 16.7412 73.084L65.3975 59.5322C68.4072 58.6939 71.0148 56.7996 72.7422 54.1963L100.667 12.1084Z" fill="#D9D9D9"/>
<path d="M100.667 12.1084C101.063 11.5124 101.937 11.5124 102.333 12.1084L130.258 54.1963C131.985 56.7996 134.593 58.6939 137.603 59.5322L186.259 73.084C186.948 73.2759 187.219 74.1085 186.774 74.6689L155.376 114.232C153.434 116.68 152.438 119.745 152.57 122.866L154.717 173.329C154.747 174.044 154.039 174.559 153.369 174.31L106.039 156.674V156.673C103.111 155.582 99.8886 155.582 96.9609 156.673V156.674L49.6309 174.31C48.9605 174.559 48.2528 174.044 48.2832 173.329L50.4297 122.866C50.5624 119.745 49.5662 116.68 47.624 114.232L16.2256 74.6689C15.7811 74.1085 16.0521 73.2759 16.7412 73.084L65.3975 59.5322C68.4072 58.6939 71.0148 56.7996 72.7422 54.1963L100.667 12.1084Z" fill="url(#paint1_linear_418_3210)"/>
<path d="M100.667 12.1084C101.063 11.5124 101.937 11.5124 102.333 12.1084L130.258 54.1963C131.985 56.7996 134.593 58.6939 137.603 59.5322L186.259 73.084C186.948 73.2759 187.219 74.1085 186.774 74.6689L155.376 114.232C153.434 116.68 152.438 119.745 152.57 122.866L154.717 173.329C154.747 174.044 154.039 174.559 153.369 174.31L106.039 156.674V156.673C103.111 155.582 99.8886 155.582 96.9609 156.673V156.674L49.6309 174.31C48.9605 174.559 48.2528 174.044 48.2832 173.329L50.4297 122.866C50.5624 119.745 49.5662 116.68 47.624 114.232L16.2256 74.6689C15.7811 74.1085 16.0521 73.2759 16.7412 73.084L65.3975 59.5322C68.4072 58.6939 71.0148 56.7996 72.7422 54.1963L100.667 12.1084Z" stroke="url(#paint2_linear_418_3210)" stroke-width="12"/>
<defs>
<linearGradient id="paint0_linear_418_3210" x1="163" y1="191.5" x2="-24.5964" y2="64.6047" gradientUnits="userSpaceOnUse">
<stop stop-color="#E2990F"/>
<stop offset="1" stop-color="#FFA600"/>
</linearGradient>
<linearGradient id="paint1_linear_418_3210" x1="-10.4818" y1="-13.806" x2="365.21" y2="109.52" gradientUnits="userSpaceOnUse">
<stop stop-color="#FEEB97"/>
<stop offset="1" stop-color="#FFC60F"/>
</linearGradient>
<linearGradient id="paint2_linear_418_3210" x1="163" y1="185.5" x2="-24.5964" y2="58.6047" gradientUnits="userSpaceOnUse">
<stop stop-color="#FEEB97"/>
<stop offset="1" stop-color="#FFC60F"/>
</linearGradient>
</defs>
</svg>
