<svg width="967" height="244" viewBox="0 0 967 244" fill="none" xmlns="http://www.w3.org/2000/svg">
<path d="M218.134 229C207.134 228.75 215.134 227.75 178.634 227.75H175.884L176.884 165V133.5C176.884 120.75 176.884 107.75 176.134 95C175.134 79.75 175.134 68.75 174.384 61C183.384 59.25 207.384 54 233.634 58C258.384 62 268.884 74.75 268.884 99.25V101C268.884 130.75 254.134 145.25 250.634 148.75C258.884 164.75 269.384 201.75 282.384 225.5C276.384 226.25 269.884 227.25 257.384 227L240.634 226.75C222.884 188 220.134 184 218.884 182C218.384 181.25 217.384 179.75 216.884 179.25C216.634 181.25 216.384 193.75 216.384 198.25C216.384 219 218.134 227.5 218.134 229ZM212.634 95L212.884 97.5V116.25L213.134 124.25C214.134 124 226.634 123.5 226.634 111.5V110.5C226.634 96.75 213.134 95 212.634 95ZM292.612 229.25C292.362 224.25 291.612 192.5 291.362 177.25C291.112 165.25 291.362 153 291.112 141C290.862 123.25 290.362 105.75 290.112 88L289.862 57.5C293.612 57.25 291.362 57 331.862 56.75C366.862 56.5 381.612 56.5 394.362 56.25V92.75C382.362 93.5 342.362 93.5 333.112 94.25V121.5C336.862 121.25 332.112 121.5 364.362 120.25V128.5L364.612 146.25V149.25L342.112 150.5C340.612 150.75 338.862 151 336.862 151V175.75L354.612 175C366.362 174.5 383.112 174.25 394.862 174.25L395.112 179.25C395.612 194.75 395.862 206.75 395.862 215.75V228.5L382.612 229.25C379.862 229.5 377.362 229.25 374.612 229.25H292.612ZM484.138 229.75L480.388 210.5L476.388 187.25C452.138 188 456.138 187.75 452.638 188L446.388 214L443.138 228H442.638C437.388 228 410.388 227.75 403.388 227.25L409.388 203.75C412.638 191.25 415.638 178.75 419.138 166.5C426.138 141.5 432.888 116.25 441.138 91.5L452.388 57.75L503.888 56.25C504.888 61.5 508.138 81.5 510.138 95C512.138 108 513.638 121.25 515.388 134.25C517.888 152 519.888 170 523.138 187.5L530.888 229.5L521.388 229.75H484.138ZM461.888 147.75H475.638L469.888 122.75L461.888 147.75ZM551.897 229.25C547.647 229.25 543.897 229 540.147 229V211.5L538.897 143L538.397 56C538.647 56 549.897 55.75 562.397 55.75C570.147 55.75 578.397 56 584.647 56.25C616.647 58 623.897 78.5 624.897 81.25C632.397 99 635.147 128 635.647 136C636.147 142.75 636.647 149.25 636.647 155.5C636.647 192 625.647 214 586.897 224.5C573.397 228.25 561.897 229.25 551.897 229.25ZM572.147 182C587.147 178.75 591.397 163.5 591.897 160.5C593.647 152.5 594.397 144.5 594.397 136.75C594.397 131 593.897 125.25 593.397 119.75C590.897 99.75 576.647 98.5 573.147 98.5H572.147L572.397 159.5V161.25L572.147 182ZM679.282 228.5C679.282 224.5 679.032 224 679.032 207L679.282 189.25L679.032 171.75L679.282 157L679.032 151L626.532 55.75L685.282 56.25L716.032 112.75C718.032 105.5 735.282 62.75 738.282 53.75C781.532 55.25 782.532 54.75 792.532 55.5C791.532 57.75 792.032 57.75 774.032 93L735.532 163.75V174C735.782 226.75 735.532 220.25 735.532 225.5L679.282 228.5Z" fill="white"/>
</svg>
