<svg width="967" height="244" viewBox="0 0 967 244" fill="none" xmlns="http://www.w3.org/2000/svg">
<path d="M283.651 230C259.901 230 247.651 216 236.151 208.5L258.651 173C263.151 175.75 269.651 180 279.151 180C288.651 180 307.151 173 307.151 161C307.151 158.25 306.151 145 280.901 142.75C259.901 140.75 250.651 131.25 251.151 109.25C251.651 88.5 259.401 71.75 277.901 61.25C303.651 47 333.401 53.5 350.401 60.75L348.151 65.5C341.401 80.5 335.151 94.25 331.901 100.75C328.901 99.25 325.651 97.25 319.901 97.25C303.651 97.25 304.151 104 304.151 105.25C304.151 108 305.151 114 316.151 117.5C343.401 126 355.901 145.5 355.901 168C355.901 226.25 299.401 230 283.651 230ZM366.099 229.25C365.849 224.25 365.099 192.5 364.849 177.25C364.599 165.25 364.849 153 364.599 141C364.349 123.25 363.849 105.75 363.599 88L363.349 57.5C367.099 57.25 364.849 57 405.349 56.75C440.349 56.5 455.099 56.5 467.849 56.25V92.75C455.849 93.5 415.849 93.5 406.599 94.25V121.5C410.349 121.25 405.599 121.5 437.849 120.25V128.5L438.099 146.25V149.25L415.599 150.5C414.099 150.75 412.349 151 410.349 151V175.75L428.099 175C439.849 174.5 456.599 174.25 468.349 174.25L468.599 179.25C469.099 194.75 469.349 206.75 469.349 215.75V228.5L456.099 229.25C453.349 229.5 450.849 229.25 448.099 229.25H366.099ZM514.624 231.5C514.374 223.75 514.624 234.5 514.624 201.25L513.874 149V117.5L477.624 117.75C477.374 113 476.874 59.25 476.874 57.5L599.124 53.75L599.374 115.5L591.124 115.75L563.374 116L562.874 158C562.874 178 563.124 198 563.624 218.25L564.124 229.75L551.874 230.5C524.874 231 523.624 231.5 514.624 231.5ZM607.237 234.25C600.487 234.25 586.737 230.75 586.737 211C586.737 190 601.237 183 609.237 183C630.237 183 629.487 205 629.737 207.75C629.737 223.5 615.737 234.25 607.237 234.25ZM657.774 234.25C651.024 234.25 637.274 230.75 637.274 211C637.274 190 651.774 183 659.774 183C680.774 183 680.024 205 680.274 207.75C680.274 223.5 666.274 234.25 657.774 234.25ZM708.312 234.25C701.562 234.25 687.812 230.75 687.812 211C687.812 190 702.312 183 710.312 183C731.312 183 730.562 205 730.812 207.75C730.812 223.5 716.812 234.25 708.312 234.25Z" fill="white"/>
</svg>
