<svg width="1920" height="1080" viewBox="0 0 1920 1080" fill="none" xmlns="http://www.w3.org/2000/svg">
<g filter="url(#filter0_d_441_3)">
<path d="M743.667 430.106C744.063 429.51 744.937 429.51 745.333 430.106L773.258 472.194C774.985 474.798 777.593 476.692 780.603 477.53L829.259 491.082C829.948 491.274 830.219 492.107 829.774 492.667L798.376 532.23C796.434 534.678 795.438 537.743 795.57 540.864L797.717 591.327C797.747 592.042 797.039 592.557 796.369 592.308L749.039 574.672C746.111 573.581 742.889 573.581 739.961 574.672L692.631 592.308C691.961 592.557 691.253 592.042 691.283 591.327L693.43 540.864C693.562 537.743 692.566 534.678 690.624 532.23L659.226 492.667C658.781 492.107 659.052 491.274 659.741 491.082L708.397 477.53C711.407 476.692 714.015 474.798 715.742 472.194L743.667 430.106Z" fill="#EC9E0A" stroke="url(#paint0_linear_441_3)" stroke-width="12"/>
<path d="M743.667 424.106C744.063 423.51 744.937 423.51 745.333 424.106L773.258 466.194C774.985 468.798 777.593 470.692 780.603 471.53L829.259 485.082C829.948 485.274 830.219 486.107 829.774 486.667L798.376 526.23C796.434 528.678 795.438 531.743 795.57 534.864L797.717 585.327C797.747 586.042 797.039 586.557 796.369 586.308L749.039 568.672C746.111 567.581 742.889 567.581 739.961 568.672L692.631 586.308C691.961 586.557 691.253 586.042 691.283 585.327L693.43 534.864C693.562 531.743 692.566 528.678 690.624 526.23L659.226 486.667C658.781 486.107 659.052 485.274 659.741 485.082L708.397 471.53C711.407 470.692 714.015 468.798 715.742 466.194L743.667 424.106Z" fill="#D9D9D9"/>
<path d="M743.667 424.106C744.063 423.51 744.937 423.51 745.333 424.106L773.258 466.194C774.985 468.798 777.593 470.692 780.603 471.53L829.259 485.082C829.948 485.274 830.219 486.107 829.774 486.667L798.376 526.23C796.434 528.678 795.438 531.743 795.57 534.864L797.717 585.327C797.747 586.042 797.039 586.557 796.369 586.308L749.039 568.672C746.111 567.581 742.889 567.581 739.961 568.672L692.631 586.308C691.961 586.557 691.253 586.042 691.283 585.327L693.43 534.864C693.562 531.743 692.566 528.678 690.624 526.23L659.226 486.667C658.781 486.107 659.052 485.274 659.741 485.082L708.397 471.53C711.407 470.692 714.015 468.798 715.742 466.194L743.667 424.106Z" fill="url(#paint1_linear_441_3)"/>
<path d="M743.667 424.106C744.063 423.51 744.937 423.51 745.333 424.106L773.258 466.194C774.985 468.798 777.593 470.692 780.603 471.53L829.259 485.082C829.948 485.274 830.219 486.107 829.774 486.667L798.376 526.23C796.434 528.678 795.438 531.743 795.57 534.864L797.717 585.327C797.747 586.042 797.039 586.557 796.369 586.308L749.039 568.672C746.111 567.581 742.889 567.581 739.961 568.672L692.631 586.308C691.961 586.557 691.253 586.042 691.283 585.327L693.43 534.864C693.562 531.743 692.566 528.678 690.624 526.23L659.226 486.667C658.781 486.107 659.052 485.274 659.741 485.082L708.397 471.53C711.407 470.692 714.015 468.798 715.742 466.194L743.667 424.106Z" stroke="url(#paint2_linear_441_3)" stroke-width="12"/>
</g>
<defs>
<filter id="filter0_d_441_3" x="613.7" y="382.698" width="261.6" height="267.6" filterUnits="userSpaceOnUse" color-interpolation-filters="sRGB">
<feFlood flood-opacity="0" result="BackgroundImageFix"/>
<feColorMatrix in="SourceAlpha" type="matrix" values="0 0 0 0 0 0 0 0 0 0 0 0 0 0 0 0 0 0 127 0" result="hardAlpha"/>
<feOffset/>
<feGaussianBlur stdDeviation="14.65"/>
<feComposite in2="hardAlpha" operator="out"/>
<feColorMatrix type="matrix" values="0 0 0 0 0 0 0 0 0 0 0 0 0 0 0 0 0 0 0.25 0"/>
<feBlend mode="normal" in2="BackgroundImageFix" result="effect1_dropShadow_441_3"/>
<feBlend mode="normal" in="SourceGraphic" in2="effect1_dropShadow_441_3" result="shape"/>
</filter>
<linearGradient id="paint0_linear_441_3" x1="806" y1="603.498" x2="618.404" y2="476.603" gradientUnits="userSpaceOnUse">
<stop stop-color="#E2990F"/>
<stop offset="1" stop-color="#FFA600"/>
</linearGradient>
<linearGradient id="paint1_linear_441_3" x1="632.518" y1="398.192" x2="1008.21" y2="521.518" gradientUnits="userSpaceOnUse">
<stop stop-color="#FEEB97"/>
<stop offset="1" stop-color="#FFC60F"/>
</linearGradient>
<linearGradient id="paint2_linear_441_3" x1="806" y1="597.498" x2="618.404" y2="470.603" gradientUnits="userSpaceOnUse">
<stop stop-color="#FEEB97"/>
<stop offset="1" stop-color="#FFC60F"/>
</linearGradient>
</defs>
</svg>
