<svg width="179" height="95" viewBox="0 0 179 95" fill="none" xmlns="http://www.w3.org/2000/svg">
<g filter="url(#filter0_d_2491_1440)">
<foreignObject x="10.0826" y="9.03229" width="158.677" height="73.9647"><div xmlns="http://www.w3.org/1999/xhtml" style="backdrop-filter:blur(5.46px);clip-path:url(#bgblur_0_2491_1440_clip_path);height:100%;width:100%"></div></foreignObject><rect data-figma-bg-blur-radius="10.9169" x="21.7906" y="20.7403" width="135.261" height="50.5486" rx="25.2743" fill="white" fill-opacity="0.2" stroke="white" stroke-width="1.58216"/>
<path d="M63.5918 57.4884L55.0934 57.4577C54.94 57.4577 54.4184 57.427 54.4184 57.1202C54.5104 49.6342 54.1116 39.2335 53.9889 37.0859V36.6257C54.0195 35.92 55.124 36.1041 55.5842 36.1041C55.9217 36.1041 58.3762 36.0734 58.7443 36.0734L64.7577 36.2575C65.5554 36.4416 65.5554 37.7608 65.5554 38.4051V38.5892C65.5554 39.6323 65.8315 40.8596 64.2668 40.8596C63.5305 40.8596 62.7328 40.7368 59.4193 40.7982V40.9823C59.4193 41.5959 59.5113 43.6822 59.5727 44.081L63.3771 44.0196C64.2361 44.3878 64.2055 44.9401 64.0827 47.4865C64.0827 47.732 64.0521 47.9774 64.0521 48.2535C64.0521 48.3763 63.96 48.7444 63.9293 48.7444L63.8066 48.7751C63.7146 48.8058 62.426 48.7751 62.0271 48.7751C62.0271 48.7751 61.6283 48.8058 61.5056 48.8058C61.0147 48.8058 60.5545 48.8365 60.0636 48.8365H59.6647V48.8978C59.6647 48.9899 59.6954 49.0819 59.6034 49.174V52.5488C60.7079 52.5488 62.4873 52.5795 65.0645 52.6409C65.8622 53.0397 65.8622 55.0953 65.8622 56.3225V56.9361C65.6781 57.427 64.1441 57.4884 63.5918 57.4884ZM72.3897 47.7013C72.2363 49.8796 72.942 55.1873 72.6351 57.335C72.359 57.6724 72.267 57.5497 71.8068 57.5804C71.4386 57.5804 69.4137 57.6724 69.0455 57.7031C68.708 57.6111 67.2047 57.5804 67.2047 57.0588C67.2047 57.0282 67.2354 56.9054 67.2661 56.8748C67.2661 56.7214 67.2661 56.0157 67.2661 55.893C67.2661 55.2487 67.2661 54.6964 67.2047 54.0522V45.3082C67.2661 44.5719 67.2661 44.173 67.2661 43.4367C67.2661 41.8413 67.1433 40.3687 67.082 38.7733C67.082 38.6812 67.082 37.7302 67.082 37.6074C67.082 37.5768 67.082 37.5154 67.082 37.4847C67.082 36.5643 67.082 36.2268 68.3706 36.2268C68.4319 36.2268 68.5546 36.2268 68.5546 36.2268C68.616 36.2268 68.708 36.2882 68.7694 36.2882C68.9535 36.2882 70.2114 36.2882 70.3648 36.2882C70.3955 36.2882 70.4262 36.2882 70.4568 36.2882C70.825 36.2882 71.3159 36.2882 71.5307 36.5643C74.3226 39.9698 75.6418 43.7128 78.0042 47.1491L78.0963 47.2104C78.0963 47.1491 78.0963 46.965 78.0963 46.9036C78.0963 45.6764 78.0042 43.9276 77.9735 42.7004C77.9735 42.4243 77.9122 41.2891 77.9122 41.0436C77.9122 40.7368 77.7895 38.2824 77.7895 37.9756C77.7895 37.8529 77.8201 36.9938 77.8508 36.7791C77.8815 36.2575 78.0963 36.2575 78.5258 36.2575C78.5565 36.2575 78.5565 36.2575 78.5872 36.2575C79.0167 36.2575 79.5076 36.3189 79.9064 36.3189C80.6427 36.3189 81.2564 36.2575 81.9927 36.2575C82.2995 36.2575 82.9131 36.3802 83.0972 36.7177C83.0972 36.7791 83.0972 37.0859 83.0972 37.1472C83.0972 39.6017 83.404 57.4884 83.404 55.4941C83.404 55.5248 83.404 55.5862 83.404 55.5862C83.404 55.9543 83.3426 56.8748 83.3426 56.9361C83.2813 57.6724 82.2074 57.7645 81.6245 57.7645C81.3177 57.7645 78.7099 57.7645 78.5565 57.7031C78.0349 57.5804 77.7895 56.9361 77.544 56.4759C76.0407 53.7453 73.9237 50.5239 72.5431 47.7627C72.4817 47.6399 72.4817 47.7013 72.3897 47.7013ZM84.9155 35.92C89.2721 36.1654 91.297 35.8893 96.0525 35.9814L96.2672 36.012C96.5127 36.1654 96.5127 37.9449 96.482 38.3744L96.4513 38.9881C96.4513 39.571 96.4513 39.9391 96.3593 40.5221C96.3593 40.5528 96.3286 40.7982 96.2366 40.7982C95.7764 40.7982 95.3161 40.8902 94.8866 40.8596L94.6412 40.8289C94.5185 40.8596 93.598 40.9209 93.4753 40.9209H93.3833C93.506 45.8912 93.414 52.9783 93.598 56.4145C93.6287 57.0588 93.4753 57.1816 92.8924 57.335C92.739 57.3963 92.2481 57.5497 92.2174 57.5497H91.6652C91.297 57.5497 91.0516 57.4884 90.7141 57.4884C90.0698 57.4884 89.4255 57.6111 88.7505 57.6111C88.5971 57.6111 88.0756 57.5804 88.0756 57.2736C88.1369 52.0579 88.0449 45.2469 87.9528 40.8596C87.0938 40.8596 86.2347 40.9209 85.345 40.8289C85.1916 40.8289 84.8541 40.8902 84.7007 40.7062C84.7621 39.6937 84.6394 38.6812 84.67 37.6688C84.7007 37.2699 84.6087 35.8893 84.9155 35.92ZM107.335 57.4884L98.837 57.4577C98.6836 57.4577 98.162 57.427 98.162 57.1202C98.254 49.6342 97.8552 39.2335 97.7325 37.0859V36.6257C97.7632 35.92 98.8676 36.1041 99.3279 36.1041C99.6653 36.1041 102.12 36.0734 102.488 36.0734L108.501 36.2575C109.299 36.4416 109.299 37.7608 109.299 38.4051V38.5892C109.299 39.6323 109.575 40.8596 108.01 40.8596C107.274 40.8596 106.476 40.7368 103.163 40.7982V40.9823C103.163 41.5959 103.255 43.6822 103.316 44.081L107.121 44.0196C107.98 44.3878 107.949 44.9401 107.826 47.4865C107.826 47.732 107.796 47.9774 107.796 48.2535C107.796 48.3763 107.704 48.7444 107.673 48.7444L107.55 48.7751C107.458 48.8058 106.17 48.7751 105.771 48.7751C105.771 48.7751 105.372 48.8058 105.249 48.8058C104.758 48.8058 104.298 48.8365 103.807 48.8365H103.408V48.8978C103.408 48.9899 103.439 49.0819 103.347 49.174V52.5488C104.451 52.5488 106.231 52.5795 108.808 52.6409C109.606 53.0397 109.606 55.0953 109.606 56.3225V56.9361C109.422 57.427 107.888 57.4884 107.335 57.4884ZM119.662 57.1509C118.373 53.8681 117.821 52.917 116.563 50.0944L116.716 57.427L112.758 57.519C112.421 57.519 112.053 57.4884 111.715 57.3963C111.654 57.3656 111.409 57.3043 111.409 57.2122C111.378 56.9668 111.224 51.0761 111.224 46.3207C111.224 46.1059 111.102 44.5719 111.071 44.3571C111.071 44.2958 111.102 43.8356 111.071 43.7742C111.071 43.7742 111.071 43.6822 111.04 43.6515C111.102 41.5345 110.856 39.4483 110.856 37.3006C110.856 37.0552 110.764 36.4109 110.979 36.1654C113.495 36.0734 117.882 35.8586 120.643 36.012C126.012 36.3189 126.902 46.9036 121.502 47.4559C121.993 48.4069 122.208 49.5114 124.724 56.2305C124.724 56.2611 124.755 56.2918 124.755 56.3225C124.877 56.5986 125.031 57.0588 124.877 57.2736C124.049 57.6111 122.515 57.5497 121.502 57.5497C121.134 57.5497 119.876 57.7338 119.662 57.1509ZM116.256 44.3264L116.379 44.4492H117.054C117.146 44.4492 117.268 44.4492 117.391 44.4492C118.649 44.3264 120.429 45.0321 120.091 41.5038C119.968 40.0925 118.557 40.0312 117.667 40.0312H117.391C117.299 40.0312 116.409 40.1539 116.317 40.1539H116.256L116.164 40.2153V40.6755C116.164 41.872 116.133 42.6697 116.256 43.8969V44.3264Z" fill="white"/>
</g>
<defs>
<filter id="filter0_d_2491_1440" x="-9.53674e-06" y="-0.000326395" width="178.842" height="94.1299" filterUnits="userSpaceOnUse" color-interpolation-filters="sRGB">
<feFlood flood-opacity="0" result="BackgroundImageFix"/>
<feColorMatrix in="SourceAlpha" type="matrix" values="0 0 0 0 0 0 0 0 0 0 0 0 0 0 0 0 0 0 127 0" result="hardAlpha"/>
<feOffset dy="1.04998"/>
<feGaussianBlur stdDeviation="10.4998"/>
<feComposite in2="hardAlpha" operator="out"/>
<feColorMatrix type="matrix" values="0 0 0 0 0.184588 0 0 0 0 0.281916 0 0 0 0 0.317308 0 0 0 0.5 0"/>
<feBlend mode="normal" in2="BackgroundImageFix" result="effect1_dropShadow_2491_1440"/>
<feBlend mode="normal" in="SourceGraphic" in2="effect1_dropShadow_2491_1440" result="shape"/>
</filter>
<clipPath id="bgblur_0_2491_1440_clip_path" transform="translate(-10.0826 -9.03229)"><rect x="21.7906" y="20.7403" width="135.261" height="50.5486" rx="25.2743"/>
</clipPath></defs>
</svg>
