<svg width="248" height="249" viewBox="0 0 248 249" fill="none" xmlns="http://www.w3.org/2000/svg">
<g filter="url(#filter0_d_367_3)">
<circle cx="124.133" cy="123.619" r="106.139" fill="#1E576C"/>
<circle cx="124.133" cy="123.619" r="104.268" stroke="white" stroke-width="3.74056"/>
</g>
<path d="M93.7549 39.9764C97.5177 46.3407 92.4098 52.553 89.3855 54.8636C85.2574 52.2548 73.5592 50.1886 59.7912 62.7933C69.9108 61.3677 71.2177 61.4462 72.7389 62.3245C63.3407 64.8427 46.2302 74.5711 45.4103 91.5076C53.0337 87.9647 53.7993 89.2221 54.5743 90.5146C55.3493 91.8072 36.6274 106.72 38.5706 114.772C44.2193 110.258 44.6441 108.644 45.8974 108.523C43.9552 112.472 39.7389 121.532 39.9819 124.038C42.2456 121.289 44.3772 119.646 44.9771 119.485C45.577 119.324 37.0515 137.897 36.0306 142.885C41.7864 138.771 42.6255 137.904 43.6253 137.636C43.2292 140.957 40.2806 150.748 41.4201 155.801C44.0837 152.944 45.6795 149.301 46.6794 149.033C46.4584 153.808 46.0556 162.703 48.4093 168.287C50.8586 164.63 51.9904 163.256 53.083 162.534C52.1445 169.43 53.2458 187.137 54.7422 189.522C56.4844 185.626 55.7199 181.974 57.1589 180.945C58.1233 184.544 57.5168 190.279 59.6236 190.143C61.7303 190.007 67.7751 182.173 69.7393 185.504C71.7035 188.835 71.1401 197.13 72.3686 198.516C74.5681 197.926 75.6282 192.284 77.203 193.363C78.7778 194.441 81.1497 204.093 82.2174 204.878C83.3741 201.996 87.4126 200.271 87.7197 200.618C88.0268 200.964 87.4308 204.339 89.1664 206.017C90.9019 207.695 102.561 211.215 103.961 210.84C105.36 210.464 100.155 206.234 101.836 206.908C104.717 208.065 108.521 210.261 110.12 209.832C111.72 209.403 117.08 208.61 118.708 209.888C120.337 211.167 124.525 212.402 126.471 211.666C128.417 210.93 130.356 203.767 136.554 202.106C145.911 209.029 161.107 192.956 162.306 192.634C163.506 192.313 168.416 194.64 174.512 195.793C179.896 193.493 183.941 186.194 185.644 182.952C186.459 183.591 186.941 185.39 186.277 187.711C189.742 185.926 194.954 177.171 197.127 173.017C196.96 173.99 196.785 176.537 197.428 178.937C200.974 177.773 203.341 157.812 203.448 158.212C203.555 158.612 206.975 152.98 208.422 158.379C211.204 152.2 195.254 130.831 209.652 138.975C206.24 125.863 198.231 110.321 198.986 110.366C200.293 110.445 204.5 115.747 207.678 119.61C209.198 108.487 187.219 94.4449 187.204 93.5915C187.19 92.7381 195.675 95.6083 201.228 100.336C198.653 88.1664 189.467 78.8402 185.196 75.6983C186.695 76.2254 190.396 77.3483 193.213 77.6223C192.731 75.8226 176.75 60.173 168.451 56.3958C168.729 55.0353 176.332 56.213 182.334 57.8194C176.986 45.5362 151.034 43.9173 138.726 44.6432C139.614 43.6909 142.35 41.5291 146.189 40.5004C142.957 36.4371 124.332 39.7131 113.777 45.1131C112.809 38.3001 102.657 34.8051 93.7549 39.9764Z" fill="#90D3C9"/>
<path d="M100.156 51.4304C103.271 56.7013 99.0423 61.8457 96.5383 63.7591C93.1201 61.5985 83.4338 59.8868 72.0344 70.325C80.4134 69.1448 81.4955 69.2098 82.7552 69.9372C74.9735 72.0223 60.8063 80.0782 60.1282 94.1042C66.4403 91.1705 67.0742 92.2118 67.7159 93.2823C68.3577 94.3528 52.8565 106.702 54.4658 113.371C59.1428 109.633 59.4944 108.296 60.5322 108.195C58.9242 111.466 52.5058 124.039 52.7071 126.115C54.5814 123.838 56.3463 122.478 56.843 122.345C57.3397 122.212 50.2813 137.592 49.4363 141.723C54.2019 138.317 54.8967 137.598 55.7245 137.376C55.3967 140.126 52.9556 148.235 53.8994 152.42C56.1047 150.054 57.4259 147.037 58.2538 146.815C58.071 150.769 57.7379 158.136 59.687 162.761C61.7148 159.732 62.6519 158.594 63.5566 157.996C62.7798 163.707 63.6925 178.372 64.9316 180.347C66.374 177.121 65.7408 174.095 66.9323 173.244C67.731 176.225 67.229 180.974 68.9734 180.861C70.7178 180.749 75.7226 174.261 77.3491 177.02C78.9757 179.779 81.4371 181.577 82.4544 182.725C87.4904 194.235 88.3679 189.562 89.6719 190.455C90.9759 191.348 92.9402 199.341 93.8243 199.992C94.782 197.605 98.1258 196.177 98.3801 196.464C98.6344 196.751 98.141 199.545 99.5782 200.935C101.015 202.325 110.669 205.24 111.828 204.93C112.987 204.619 108.677 201.115 110.069 201.674C112.455 202.632 115.604 204.451 116.928 204.096C118.253 203.741 122.691 203.084 124.039 204.143C125.387 205.201 128.856 206.225 130.467 205.615C132.078 205.006 133.683 199.074 138.816 197.699C146.563 203.432 159.145 190.122 160.138 189.855C161.131 189.589 165.197 191.517 170.244 192.472C174.703 190.568 178.052 184.523 179.462 181.838C180.136 182.367 180.535 183.857 179.986 185.78C182.855 184.301 187.17 177.051 188.969 173.611C188.83 174.417 188.686 176.526 189.218 178.514C192.154 177.549 194.113 161.019 194.202 161.35C194.291 161.681 197.123 157.018 198.321 161.489C200.624 156.372 184.201 126.677 196.124 133.422C193.298 122.562 186.666 109.691 187.291 109.729C188.373 109.794 191.856 114.185 194.488 117.385C195.747 108.173 177.547 96.5429 177.535 95.8361C177.523 95.1293 184.548 97.5067 189.146 101.422C187.014 91.3438 179.408 83.6198 175.871 81.0176C177.112 81.4543 180.177 82.3843 182.509 82.6113C182.11 81.1209 168.877 68.16 162.005 65.0315C162.236 63.9048 168.53 64.8804 173.501 66.211C169.071 56.0384 147.583 54.6965 137.392 55.2972C138.128 54.5086 140.392 52.7184 143.571 51.8666C140.895 48.5014 125.473 51.2137 116.734 55.6853C115.932 50.043 107.526 47.1482 100.156 51.4304Z" fill="#90D3C9"/>
<path d="M101.866 64.5235C104.053 68.2287 101.088 71.8426 99.3324 73.1864C96.9336 71.6668 90.1376 70.4604 82.1441 77.792C88.0219 76.9655 88.7811 77.0116 89.6651 77.5232C84.2066 78.9858 74.2705 84.6422 73.7997 94.499C78.2269 92.4394 78.672 93.1715 79.1226 93.924C79.5732 94.6765 58.8483 114.563 59.9796 119.25C63.2594 116.625 63.5056 115.685 64.2336 115.615C63.1067 117.913 60.6604 123.184 60.8024 124.643C62.1164 123.044 63.3542 122.088 63.7026 121.995C64.051 121.901 59.1046 132.708 58.5132 135.611C61.8554 133.218 62.3425 132.714 62.9232 132.558C62.6942 134.491 68.1985 151.114 68.8621 154.055C70.4084 152.394 71.3342 150.274 71.9149 150.119C71.7881 152.897 72.6286 162.073 73.9976 165.324C75.4191 163.197 76.0761 162.397 76.7106 161.977C76.1676 165.99 86.9547 182.151 87.8247 183.54C88.8355 181.273 88.3902 179.147 89.2258 178.549C89.7871 180.644 89.4367 183.981 90.6604 183.903C91.8842 183.825 95.3929 179.267 96.535 181.206C97.6771 183.146 97.3524 187.973 98.0665 188.78C99.344 188.438 99.9579 185.154 100.873 185.782C101.788 186.41 103.169 192.029 103.79 192.486C104.461 190.809 106.806 189.807 106.984 190.008C107.163 190.21 106.818 192.174 107.826 193.151C108.835 194.128 115.609 196.18 116.422 195.963C117.235 195.745 114.209 193.281 115.186 193.674C116.86 194.348 119.07 195.627 119.999 195.378C120.929 195.129 124.042 194.669 124.988 195.414C125.934 196.158 128.368 196.878 129.498 196.451C130.628 196.023 131.752 191.855 135.352 190.89C140.789 194.922 160.537 178.358 161.234 178.172C161.931 177.985 164.784 179.341 168.325 180.014C171.452 178.677 173.799 174.431 174.788 172.544C175.261 172.916 175.541 173.964 175.157 175.314C177.169 174.276 180.194 169.183 181.455 166.766C181.358 167.332 181.257 168.815 181.631 170.211C183.69 169.535 185.059 157.919 185.121 158.151C185.184 158.384 187.169 155.108 188.011 158.25C189.625 154.655 177.138 130.216 185.504 134.96C183.518 127.327 178.861 118.28 179.299 118.306C180.059 118.352 182.504 121.44 184.351 123.689C185.231 117.216 173.799 103.218 173.791 102.721C173.782 102.224 175.228 101.718 178.455 104.471C176.955 97.3874 171.617 91.9566 169.135 90.1266C170.005 90.4339 172.156 91.0886 173.792 91.2489C173.511 90.2014 150.082 76.3046 145.261 74.1036C145.422 73.3118 149.838 73.9997 153.326 74.9365C150.215 67.786 135.139 66.8355 127.99 67.254C128.506 66.7001 130.094 65.4428 132.324 64.8453C130.445 62.4794 119.627 64.3801 113.498 67.5195C112.933 63.554 107.035 61.5167 101.866 64.5235Z" fill="#90D3C9"/>
<path d="M89.8984 197.076L90.1096 197.184C101.123 202.84 131.626 185.445 141.591 183.39C149.563 181.746 161.669 185.964 184 172.027C206.331 158.089 174.647 26.9836 146.605 60.3183C118.564 93.6529 101.773 79.0935 72.2316 80.2463C54.3316 87.6735 49.144 112.527 63.7738 151.982C78.2839 191.114 81.4056 192.716 89.8984 197.076Z" fill="#500E0E"/>
<path d="M186.328 172.026C158.976 135.119 99.9547 151.53 94.5566 198.603C96.4591 198.094 126.31 189.228 140.148 184.218C163.787 181.788 179.412 174.541 186.328 172.026Z" fill="#B33131"/>
<mask id="mask0_367_3" style="mask-type:alpha" maskUnits="userSpaceOnUse" x="95" y="151" width="93" height="51">
<path d="M187.146 175.078C158.689 134.044 99.682 150.51 95.4246 201.841C97.327 201.331 138.739 184.596 140.958 184.001C142.734 183.526 180.247 177.655 187.146 175.078Z" fill="#B33131"/>
</mask>
<g mask="url(#mask0_367_3)">
<path d="M139.466 175.397C139.532 176.13 138.526 176.399 138.217 175.732L126.939 151.424C126.768 151.054 126.971 150.619 127.365 150.514L136.255 148.132C136.649 148.026 137.043 148.301 137.079 148.707L139.466 175.397Z" fill="#921C1C"/>
</g>
<path d="M165.225 182.099L165.162 182.205L184.041 171.587L191.397 161.809C188.275 153.449 175.869 137.697 168.954 139.55C177.707 161.16 169.283 175.292 165.225 182.099Z" fill="#F3FFD0"/>
<path d="M89.1772 160.928C92.3436 184.16 106.474 191.025 113.497 194.829L94.9608 198.495L82.2703 193.22C80.8165 184.412 82.0747 162.831 89.1772 160.928Z" fill="#F3FFD0"/>
<path d="M143.038 92.0835C141.71 75.4725 141.789 75.195 134.805 72.0062L151.923 56.5758C153.106 64.4446 150.29 90.1403 143.038 92.0835Z" fill="#F3FFD0"/>
<path d="M92.0679 106.608C84.9185 91.5569 80.9511 85.8703 85.3937 79.6197L68.103 82.0713C71.0109 89.4779 84.8311 108.547 92.0679 106.608Z" fill="#F3FFD0"/>
<path d="M89.8984 197.076L90.1096 197.184C101.123 202.84 131.626 185.445 141.591 183.39C149.563 181.746 161.669 185.964 184 172.027C206.331 158.089 174.647 26.9836 146.605 60.3183C118.564 93.6529 101.773 79.0935 72.2316 80.2463C54.3316 87.6735 49.144 112.527 63.7738 151.982C78.2839 191.114 81.4056 192.716 89.8984 197.076Z" stroke="#EB735B" stroke-width="3.74056"/>
<defs>
<filter id="filter0_d_367_3" x="0.461409" y="0.823909" width="247.343" height="247.344" filterUnits="userSpaceOnUse" color-interpolation-filters="sRGB">
<feFlood flood-opacity="0" result="BackgroundImageFix"/>
<feColorMatrix in="SourceAlpha" type="matrix" values="0 0 0 0 0 0 0 0 0 0 0 0 0 0 0 0 0 0 127 0" result="hardAlpha"/>
<feOffset dy="0.876661"/>
<feGaussianBlur stdDeviation="8.76661"/>
<feComposite in2="hardAlpha" operator="out"/>
<feColorMatrix type="matrix" values="0 0 0 0 0.184588 0 0 0 0 0.281916 0 0 0 0 0.317308 0 0 0 0.5 0"/>
<feBlend mode="normal" in2="BackgroundImageFix" result="effect1_dropShadow_367_3"/>
<feBlend mode="normal" in="SourceGraphic" in2="effect1_dropShadow_367_3" result="shape"/>
</filter>
</defs>
</svg>
