<svg width="296" height="545" viewBox="0 0 296 545" fill="none" xmlns="http://www.w3.org/2000/svg">
<path d="M151.876 298.735C155.321 302.769 167.769 311.772 184.654 321.693C185.667 322.289 186.97 321.954 187.577 320.948L193.246 311.536C193.865 310.509 193.524 309.173 192.488 308.571C175.586 298.747 161.898 292.035 156.527 291.013C153.145 290.37 149.665 296.147 151.876 298.735Z" fill="#F68068"/>
<path d="M151.736 298.651C153.832 301.846 172.364 314.656 184.84 321.984C185.848 322.577 187.136 322.236 187.739 321.234L190.08 317.347C191.237 315.426 188.763 312.732 186.571 313.208C174.517 315.826 165.542 307.166 159.446 302.656C157.519 301.231 150.373 296.574 151.736 298.651Z" fill="#E25E44"/>
<path d="M127.178 293.481C127.125 294.42 141.947 296.65 151.747 298.075C152.069 298.121 152.401 298.107 152.686 297.949C154.809 296.766 155.1 292.577 153.079 291.215C152.808 291.033 152.475 290.992 152.149 291.013C142.099 291.651 127.246 292.283 127.178 293.481Z" fill="#EB735B"/>
<path d="M152.686 297.949C154.097 297.163 154.699 295.05 154.351 293.321C154.059 291.871 151.301 291.71 149.903 292.194C145.776 293.624 138.243 295.709 136.394 295.603C139.721 296.122 148.295 297.554 151.747 298.074C152.069 298.122 152.401 298.108 152.686 297.949Z" fill="#E25E44"/>
<path d="M147.68 323.21C151.892 326.435 165.945 332.64 184.53 338.816C185.645 339.186 186.85 338.588 187.233 337.476L190.812 327.088C191.202 325.955 190.59 324.72 189.451 324.347C170.87 318.269 156.082 314.564 150.616 314.686C147.175 314.763 144.978 321.14 147.68 323.21Z" fill="#F68068"/>
<path d="M147.526 323.157C150.243 325.844 171.042 334.501 184.773 339.062C185.883 339.431 187.071 338.829 187.452 337.723L188.93 333.433C189.66 331.313 186.657 329.168 184.602 330.067C173.163 335.07 162.087 328.202 155.903 325.464C153.711 324.493 145.76 321.41 147.526 323.157Z" fill="#E25E44"/>
<path d="M122.431 323.233C122.574 324.162 137.535 323.247 147.416 322.594C147.741 322.573 148.064 322.489 148.309 322.275C150.138 320.675 149.548 316.517 147.287 315.608C146.983 315.486 146.65 315.516 146.335 315.604C136.64 318.326 122.247 322.047 122.431 323.233Z" fill="#EB735B"/>
<path d="M148.308 322.275C149.524 321.212 149.671 319.02 148.97 317.401C148.382 316.045 145.651 316.463 144.385 317.228C140.647 319.489 133.716 323.101 131.886 323.384C135.248 323.196 143.931 322.806 147.416 322.593C147.741 322.573 148.063 322.49 148.308 322.275Z" fill="#E25E44"/>
<path d="M156.264 353.357C161.413 354.633 176.775 354.713 196.28 352.957C197.451 352.852 198.316 351.822 198.224 350.651L197.359 339.697C197.264 338.502 196.211 337.614 195.017 337.727C175.555 339.571 160.517 342.076 155.554 344.37C152.429 345.814 152.96 352.538 156.264 353.357Z" fill="#F68068"/>
<path d="M156.101 353.37C159.665 354.749 182.191 354.385 196.602 353.087C197.766 352.982 198.615 351.956 198.523 350.79L198.165 346.267C197.989 344.031 194.439 343.297 192.952 344.976C184.927 354.036 173.261 352.142 164.703 352.142C162.306 352.142 153.784 352.474 156.101 353.37Z" fill="#E25E44"/>
<path d="M124.794 367.442C125.503 368.43 144.457 359.914 156.822 354.294C157.106 354.165 157.358 353.988 157.514 353.738C159.223 350.983 155.917 346.25 152.343 346.529C152.02 346.554 151.733 346.688 151.484 346.867C140.518 354.747 123.888 366.181 124.794 367.442Z" fill="#EB735B"/>
<path d="M157.514 353.738C158.803 351.661 157.24 348.459 154.86 347.129C153.525 346.383 151.234 347.853 150.373 348.962C147.098 353.184 139.409 361.639 137.064 362.944C141.352 361.045 152.579 356.205 156.819 354.295C157.104 354.167 157.358 353.988 157.514 353.738Z" fill="#E25E44"/>
<path d="M164.014 379.474C169.163 380.75 184.525 380.83 204.03 379.075C205.201 378.969 206.066 377.939 205.974 376.768L205.109 365.814C205.014 364.619 203.961 363.731 202.767 363.844C183.305 365.688 168.267 368.193 163.304 370.487C160.179 371.932 160.71 378.655 164.014 379.474Z" fill="#F68068"/>
<path d="M163.851 379.487C167.415 380.867 189.941 380.502 204.352 379.204C205.516 379.099 206.365 378.073 206.273 376.907L205.915 372.384C205.739 370.148 202.189 369.414 200.702 371.093C192.677 380.153 181.011 378.259 172.453 378.259C170.056 378.259 161.534 378.591 163.851 379.487Z" fill="#E25E44"/>
<path d="M132.542 393.563C133.251 394.551 152.205 386.035 164.57 380.416C164.854 380.286 165.107 380.109 165.262 379.859C166.971 377.105 163.665 372.371 160.091 372.65C159.768 372.675 159.481 372.809 159.232 372.988C148.266 380.868 131.636 392.302 132.542 393.563Z" fill="#EB735B"/>
<path d="M165.262 379.857C166.551 377.781 164.988 374.578 162.608 373.248C161.273 372.502 158.982 373.973 158.121 375.082C154.846 379.303 147.157 387.758 144.812 389.063C149.1 387.164 160.328 382.324 164.567 380.415C164.852 380.286 165.107 380.107 165.262 379.857Z" fill="#E25E44"/>
<circle cx="138.69" cy="192.659" r="34.3697" fill="#D9D9D9"/>
<circle cx="138.69" cy="192.659" r="34.3697" fill="url(#paint0_linear_329_164)"/>
<circle cx="138.69" cy="192.659" r="34.3697" fill="url(#paint1_linear_329_164)"/>
<ellipse cx="124.756" cy="191.057" rx="19.7476" ry="24.1518" transform="rotate(8.27577 124.756 191.057)" fill="#FDFAFA"/>
<ellipse cx="124.756" cy="191.057" rx="19.7476" ry="24.1518" transform="rotate(8.27577 124.756 191.057)" fill="url(#paint2_linear_329_164)"/>
<circle cx="130.64" cy="181.493" r="5.86238" fill="#FDFAFA"/>
<path d="M114.576 493.187C117.739 465.018 132.071 402.861 159.454 410.044C181.458 415.816 141.314 465.908 114.576 493.187Z" fill="#E25E44"/>
<path d="M114.576 493.187C117.739 465.019 136.324 423.776 147.589 428.511C159.5 433.519 141.313 465.908 114.576 493.187Z" fill="#D63A1A"/>
<path d="M114.576 493.187C113.733 465.456 116.326 411.495 132.764 417.413C149.202 423.33 127.431 470.387 114.576 493.187Z" fill="#E9836E"/>
<path d="M114.576 493.188C113.732 465.456 121.011 432.807 129.292 434.899C136.109 436.621 127.431 470.388 114.576 493.188Z" fill="#E95639"/>
<path d="M114.577 493.188C107.561 479.289 96.6433 450.546 109.827 446.056C121.69 441.607 117.997 475.564 114.577 493.188Z" fill="#FFC4A9"/>
<path d="M114.576 493.188C107.561 479.289 105.757 459.725 110.565 456.711C117.022 453.841 117.997 475.564 114.576 493.188Z" fill="#FF9B6C"/>
<path d="M114.666 493.202C86.5019 490.004 22.7132 490.116 23.6103 518.411C24.3312 541.149 82.1128 513.183 114.666 493.202Z" fill="#E25E44"/>
<path d="M114.666 493.202C86.5015 490.005 42.1529 498.926 44.2576 510.964C46.483 523.691 82.1124 513.184 114.666 493.202Z" fill="#D63A1A"/>
<path d="M114.666 493.203C87.8206 486.197 34.6398 476.694 36.7436 494.037C38.8473 511.381 89.5738 500.65 114.666 493.203Z" fill="#E9836E"/>
<path d="M114.667 493.203C87.8211 486.198 54.3704 486.013 54.5633 494.552C54.7222 501.581 89.5742 500.651 114.667 493.203Z" fill="#E95639"/>
<path d="M114.666 493.202C102.681 483.264 77.0963 466.213 69.7798 478.063C62.7978 488.636 96.7233 492.607 114.666 493.202Z" fill="#FFC4A9"/>
<path d="M114.666 493.201C102.681 483.263 84.0117 477.143 80.0021 481.157C75.7644 486.813 96.7234 492.606 114.666 493.201Z" fill="#FF9B6C"/>
<path d="M155.408 204.23C114.71 233.448 44.3106 231.329 14.1982 226.617C36.0112 251.3 138.351 276.701 186.795 286.316C180.203 300.858 179.223 316.959 180.683 331.858C182.808 353.541 206.534 414.629 209.223 422.697C214.82 439.487 182.766 488.212 181.311 490.166C178.656 493.733 168.037 507.531 114.509 493.108C155.982 546.995 199.895 523.439 209.223 516.356C217.897 509.77 265.621 481.032 288.869 422.697C303.722 378.21 276.972 288.07 265.621 268.572C254.27 249.073 249.548 249.793 236.633 240.107C221.61 228.84 206.281 167.708 155.408 204.23Z" fill="#EB735B"/>
<path d="M144.789 261.827C139.264 265.584 135.891 271.155 107.406 267.13C116.97 269.855 126.579 272.415 135.891 274.766C145.793 270.294 146.583 260.607 144.789 261.827Z" fill="#4A1111"/>
<path d="M209.223 516.356C217.897 509.77 265.621 481.033 288.869 422.697H209.223C214.82 439.487 182.766 488.212 181.311 490.166C178.656 493.733 168.037 507.531 114.509 493.108C155.982 546.995 199.895 523.439 209.223 516.356Z" fill="#C1371B"/>
<path d="M193.666 464.236C197.878 455.092 206.888 440.308 209.48 430.174C209.737 429.171 210.595 428.438 211.63 428.426C225.952 428.266 270.151 426.418 284.876 426.229C286.065 426.213 287.005 427.159 286.874 428.34C285.122 444.169 265.888 484.046 252.921 484.046C243.583 484.046 225.449 471.866 195.299 467.154C193.917 466.938 193.081 465.506 193.666 464.236Z" fill="#D34427"/>
<path d="M207.92 432.113C202.472 424.237 193.724 398.217 194.58 386.427C194.655 385.394 195.52 384.668 196.555 384.632C212.331 384.083 275.273 377.359 291.408 376.748C292.544 376.705 293.446 377.579 293.5 378.714C294.159 392.661 293.141 415.764 288.152 427.863C285.977 433.135 241.036 437.119 209.291 432.93C208.737 432.856 208.238 432.573 207.92 432.113Z" fill="#DB4D30"/>
<path d="M193.579 386.403C185.321 379.414 178.796 353.018 179.921 341.078C180.019 340.047 180.881 339.321 181.914 339.268C198.593 338.414 271.55 327.503 285.772 327.064C286.316 327.048 286.796 327.245 287.158 327.652C294.935 336.408 297.135 370.187 294.824 379.431C293.437 384.982 226.562 391.057 194.555 386.823C194.189 386.774 193.861 386.641 193.579 386.403Z" fill="#E85C40"/>
<path d="M178.537 342.432C170.583 314.295 182.008 293.062 188.07 285.223C188.464 284.713 189.064 284.443 189.704 284.367C203.32 282.754 241.576 250.604 250.338 248.697C262.536 246.041 296.116 322.241 289.443 329.92C285.723 334.2 218.585 341.799 180.674 343.964C179.687 344.021 178.806 343.384 178.537 342.432Z" fill="#EE694F" stroke="#EB735B" stroke-width="0.143506"/>
<circle cx="181.743" cy="192.659" r="34.3697" fill="#D9D9D9"/>
<circle cx="181.743" cy="192.659" r="34.3697" fill="url(#paint3_linear_329_164)"/>
<ellipse cx="168.382" cy="191.919" rx="19.7476" ry="24.1518" transform="rotate(8.27577 168.382 191.919)" fill="#FDFAFA"/>
<ellipse cx="168.382" cy="191.919" rx="19.7476" ry="24.1518" transform="rotate(8.27577 168.382 191.919)" fill="url(#paint4_linear_329_164)"/>
<circle cx="174.266" cy="181.493" r="5.86238" fill="#FDFAFA"/>
<path d="M90.6718 239.597C91.2056 239.662 91.7418 239.511 92.1626 239.176C92.5834 238.842 92.8545 238.351 92.9159 237.813C92.9772 237.276 92.8239 236.736 92.4893 236.315C92.1547 235.895 91.6663 235.627 91.1318 235.569C85.8425 234.994 80.5948 233.766 75.4641 232.136C54.8858 225.267 34.9013 213.091 23.0589 194.763C17.2996 185.685 15.0663 174.102 19.5483 164.227C23.8585 154.35 32.6198 147.012 42.0101 141.225C87.8984 113.268 130.843 71.2021 139.603 16.389C140.419 11.0027 140.839 5.42019 140.77 0C140.772 5.4208 140.284 10.9915 139.402 16.3576C129.963 70.941 86.7923 112.103 40.8681 139.334C31.2136 145.143 21.9726 152.546 17.1488 163.176C12.1156 173.836 14.478 186.709 20.4658 196.331C32.782 215.819 53.0134 228.367 74.2728 235.799C79.583 237.557 85.0458 238.914 90.6718 239.597Z" fill="url(#paint5_linear_329_164)"/>
<path d="M90.6722 239.597C91.206 239.661 91.7422 239.51 92.1631 239.176C92.5839 238.841 92.8549 238.35 92.9163 237.813C92.9776 237.276 92.8243 236.736 92.4897 236.316C92.1551 235.895 91.6667 235.627 91.1322 235.569C85.5738 234.96 80.0448 233.689 74.6159 232.083C52.6588 225.254 31.301 214.05 15.4548 197.364C7.80126 189.054 1.53701 178.099 3.79886 166.95C6.05243 155.831 15.4087 147.676 25.2358 141.628C73.3885 111.981 118.087 71.064 137.162 16.8161C138.894 11.3518 140.534 5.72703 140.77 0C140.467 5.72091 138.762 11.3175 136.97 16.752C117.284 70.6728 72.3192 110.816 24.0964 139.742C14.0029 145.832 3.94551 154.1 1.23603 166.427C-1.40036 178.857 5.39011 190.691 13.2094 199.395C29.4967 216.91 50.9802 228.448 73.4978 235.769C79.0763 237.489 84.7812 238.88 90.6722 239.597Z" fill="url(#paint6_linear_329_164)"/>
<defs>
<linearGradient id="paint0_linear_329_164" x1="122.689" y1="185.34" x2="158.207" y2="198.184" gradientUnits="userSpaceOnUse">
<stop stop-color="#600505"/>
<stop offset="1" stop-color="#4A1111"/>
</linearGradient>
<linearGradient id="paint1_linear_329_164" x1="123.837" y1="177.662" x2="161.579" y2="212.176" gradientUnits="userSpaceOnUse">
<stop stop-color="#F8F2F2"/>
<stop offset="1" stop-color="#B0C0C4"/>
</linearGradient>
<linearGradient id="paint2_linear_329_164" x1="115.563" y1="185.914" x2="136.783" y2="192.189" gradientUnits="userSpaceOnUse">
<stop stop-color="#600505"/>
<stop offset="1" stop-color="#4A1111"/>
</linearGradient>
<linearGradient id="paint3_linear_329_164" x1="173.276" y1="179.743" x2="204.489" y2="228.392" gradientUnits="userSpaceOnUse">
<stop stop-color="#F8F2F2"/>
<stop offset="1" stop-color="#B0C0C4"/>
</linearGradient>
<linearGradient id="paint4_linear_329_164" x1="159.188" y1="186.776" x2="180.409" y2="193.05" gradientUnits="userSpaceOnUse">
<stop stop-color="#600505"/>
<stop offset="1" stop-color="#4A1111"/>
</linearGradient>
<linearGradient id="paint5_linear_329_164" x1="78.258" y1="0" x2="78.258" y2="237.583" gradientUnits="userSpaceOnUse">
<stop stop-color="#7C3223"/>
<stop offset="1" stop-color="#E25B40"/>
</linearGradient>
<linearGradient id="paint6_linear_329_164" x1="71.3852" y1="0" x2="71.3852" y2="237.583" gradientUnits="userSpaceOnUse">
<stop stop-color="#7C3223"/>
<stop offset="1" stop-color="#E25B40"/>
</linearGradient>
</defs>
</svg>
