<svg width="259" height="256" viewBox="0 0 259 256" fill="none" xmlns="http://www.w3.org/2000/svg">
<path d="M51.6823 122.287L4 169.969" stroke="#1A564D" stroke-width="6.42353" stroke-linecap="round" stroke-linejoin="round"/>
<path d="M207.824 122.535L255.506 170.217" stroke="#1A564D" stroke-width="6.42353" stroke-linecap="round" stroke-linejoin="round"/>
<path d="M97.3883 196.406L82.4935 251.994L68.9766 248.373" stroke="#1A564D" stroke-width="6.42353" stroke-linecap="round" stroke-linejoin="round"/>
<path d="M167.305 196.158L182.2 251.746L195.717 248.125" stroke="#1A564D" stroke-width="6.42353" stroke-linecap="round" stroke-linejoin="round"/>
<path d="M122.835 0.776844C125.207 9.27566 117.4 14.8592 113.2 16.5886C109.247 12.3062 96.3999 6.31095 76.6353 16.5886C88.7411 18.071 90.2235 18.5651 91.7058 20.0474C80.0941 20.0474 57.3647 25.9768 51.1882 45.2474C61.0705 43.518 61.5647 45.2039 62.0588 46.9333C62.5529 48.6628 36.3647 60.0709 36.1176 69.9533C44.0235 66.4945 45.0117 64.7651 46.4941 65.0121C43.0353 68.9651 35.3764 78.1062 34.8823 81.0709C38.3411 78.6003 41.3059 77.3651 42.047 77.3651C42.7882 77.3651 27.2235 96.1415 24.5059 101.577C32.4117 98.6121 33.647 97.8709 34.8823 97.8709C33.4 101.577 26.9764 111.953 26.7294 118.13C30.6823 115.659 33.647 111.953 34.8823 111.953C33.1529 117.389 29.9412 127.518 30.9294 134.683C34.8823 131.224 36.6117 129.989 38.0941 129.494C34.8823 137.153 30.6823 157.906 31.6706 161.118C34.8823 157.165 35.1294 152.718 37.1059 151.977C37.1059 156.424 34.6353 162.847 37.1059 163.341C39.5764 163.836 48.9647 156.671 50.2 161.118C51.4353 165.565 48.2235 174.953 49.2117 176.93C51.9294 176.93 54.8941 170.753 56.3764 172.483C57.8588 174.212 57.6117 186.071 58.6 187.306C60.8235 184.341 66.0117 183.6 66.2588 184.094C66.5058 184.589 64.7764 188.294 66.2588 190.765C67.7411 193.236 80.0941 200.894 81.8235 200.894C83.5529 200.894 78.8588 194.409 80.5882 195.706C83.5529 197.93 87.2588 201.636 89.2352 201.636C91.2117 201.636 97.6352 202.377 99.1176 204.353C100.6 206.33 105.047 209.047 107.518 208.8C109.988 208.553 114.435 200.894 122.094 200.894C130.741 211.765 153.223 197.93 154.706 197.93C156.188 197.93 161.129 202.13 167.8 205.341C174.718 204.353 181.635 197.189 184.6 193.977C185.341 194.965 185.341 197.189 183.859 199.659C188.405 198.671 197.118 190.189 200.906 186.071C200.412 187.141 199.423 190.024 199.423 192.989C203.87 192.741 212.765 170.463 212.765 170.957C212.765 171.451 218.447 166.016 218.447 172.686C223.563 166.422 211.776 136.863 225.859 150.698C225.975 134.528 221.544 114.139 222.4 114.424C223.882 114.918 227.094 122.33 229.565 127.765C234.753 115.412 213.753 92.4356 214 91.4474C214.247 90.4592 223.141 96.3886 228.082 103.553C228.873 88.7298 221.165 75.1415 217.212 70.2004C218.776 71.2709 222.696 73.7086 225.859 74.8945C225.859 72.6709 212.27 49.6945 203.87 42.7768C204.612 41.2945 213.012 45.0004 219.435 48.7062C217.063 32.8945 187.647 23.0121 173.235 20.0474C174.553 19.2239 178.374 17.5768 183.118 17.5768C180.647 11.8945 158.165 9.91803 144.329 12.8827C145.318 4.72978 134.694 -2.43492 122.835 0.776844Z" fill="url(#paint0_linear_367_2)"/>
<path d="M122.835 0.776844C125.207 9.27566 117.4 14.8592 113.2 16.5886C109.247 12.3062 96.3999 6.31095 76.6353 16.5886C88.7411 18.071 90.2235 18.5651 91.7058 20.0474C80.0941 20.0474 57.3647 25.9768 51.1882 45.2474C61.0705 43.518 61.5647 45.2039 62.0588 46.9333C62.5529 48.6628 36.3647 60.0709 36.1176 69.9533C44.0235 66.4945 45.0117 64.7651 46.4941 65.0121C43.0353 68.9651 35.3764 78.1062 34.8823 81.0709C38.3411 78.6003 41.3059 77.3651 42.047 77.3651C42.7882 77.3651 27.2235 96.1415 24.5059 101.577C32.4117 98.6121 33.647 97.8709 34.8823 97.8709C33.4 101.577 26.9764 111.953 26.7294 118.13C30.6823 115.659 33.647 111.953 34.8823 111.953C33.1529 117.389 29.9412 127.518 30.9294 134.683C34.8823 131.224 36.6117 129.989 38.0941 129.494C34.8823 137.153 30.6823 157.906 31.6706 161.118C34.8823 157.165 35.1294 152.718 37.1059 151.977C37.1059 156.424 34.6353 162.847 37.1059 163.341C39.5764 163.836 48.9647 156.671 50.2 161.118C51.4353 165.565 48.2235 174.953 49.2117 176.93C51.9294 176.93 54.8941 170.753 56.3764 172.483C57.8588 174.212 57.6117 186.071 58.6 187.306C60.8235 184.341 66.0117 183.6 66.2588 184.094C66.5058 184.589 64.7764 188.294 66.2588 190.765C67.7411 193.236 80.0941 200.894 81.8235 200.894C83.5529 200.894 78.8588 194.409 80.5882 195.706C83.5529 197.93 87.2588 201.636 89.2352 201.636C91.2117 201.636 97.6352 202.377 99.1176 204.353C100.6 206.33 105.047 209.047 107.518 208.8C109.988 208.553 114.435 200.894 122.094 200.894C130.741 211.765 153.223 197.93 154.706 197.93C156.188 197.93 161.129 202.13 167.8 205.341C174.718 204.353 181.635 197.189 184.6 193.977C185.341 194.965 185.341 197.189 183.859 199.659C188.405 198.671 197.118 190.189 200.906 186.071C200.412 187.141 199.423 190.024 199.423 192.989C203.87 192.741 212.765 170.463 212.765 170.957C212.765 171.451 218.447 166.016 218.447 172.686C223.563 166.422 211.776 136.863 225.859 150.698C225.975 134.528 221.544 114.139 222.4 114.424C223.882 114.918 227.094 122.33 229.565 127.765C234.753 115.412 213.753 92.4356 214 91.4474C214.247 90.4592 223.141 96.3886 228.082 103.553C228.873 88.7298 221.165 75.1415 217.212 70.2004C218.776 71.2709 222.696 73.7086 225.859 74.8945C225.859 72.6709 212.27 49.6945 203.87 42.7768C204.612 41.2945 213.012 45.0004 219.435 48.7062C217.063 32.8945 187.647 23.0121 173.235 20.0474C174.553 19.2239 178.374 17.5768 183.118 17.5768C180.647 11.8945 158.165 9.91803 144.329 12.8827C145.318 4.72978 134.694 -2.43492 122.835 0.776844Z" fill="url(#paint1_linear_367_2)"/>
<path d="M126.675 15.9604C128.639 22.9988 122.174 27.6229 118.697 29.0552C115.424 25.5087 104.787 20.5435 88.4215 29.0552C98.4451 30.2828 99.6725 30.692 100.9 31.9196C91.2853 31.9196 72.4655 36.8302 67.3514 52.7895C75.534 51.3572 75.9431 52.7534 76.3522 54.1857C76.7613 55.6179 55.0776 65.0658 54.873 73.2501C61.4191 70.3856 62.2373 68.9533 63.4647 69.1579C60.6008 72.4316 49.3182 84.9432 48.909 87.3985C51.7729 85.3524 54.2277 84.3294 54.8414 84.3294C55.4551 84.3294 42.5676 99.8795 40.3174 104.381C46.8634 101.926 47.8862 101.312 48.909 101.312C47.6817 104.381 42.363 112.974 42.1585 118.089C45.4315 116.043 47.8862 112.974 48.909 112.974C47.4771 117.476 44.8178 125.864 45.636 131.798C48.9091 128.934 50.341 127.91 51.5684 127.501C48.909 133.844 45.4315 151.031 46.2497 153.691C48.9091 150.417 49.1136 146.734 50.7501 146.12C50.7501 149.803 48.7045 155.123 50.7501 155.532C52.7958 155.942 60.5692 150.008 61.592 153.691C62.6148 157.374 64.8967 160.208 65.7149 161.844C67.9651 176.668 70.4199 171.553 71.6473 172.985C72.8746 174.417 72.6701 184.238 73.4883 185.261C75.3294 182.806 79.6252 182.192 79.8298 182.602C80.0344 183.011 78.6024 186.08 79.8298 188.126C81.0572 190.172 91.2854 196.515 92.7173 196.515C94.1492 196.515 90.2625 191.144 91.6945 192.218C94.1492 194.059 97.2177 197.129 98.8542 197.129C100.491 197.129 105.809 197.742 107.037 199.379C108.264 201.016 111.946 203.267 113.992 203.062C116.038 202.858 119.72 196.515 126.061 196.515C133.221 205.517 151.836 194.059 153.064 194.059C154.291 194.059 158.382 197.538 163.905 200.198C169.633 199.379 175.361 193.446 177.816 190.786C178.429 191.604 178.429 193.446 177.202 195.492C180.966 194.673 188.18 187.648 191.317 184.238C190.908 185.125 190.09 187.512 190.09 189.967C193.772 189.763 201.136 171.312 201.136 171.721C201.136 172.131 205.841 167.629 205.841 173.154C210.077 167.966 200.318 128.662 211.978 140.12C212.074 126.729 208.405 109.843 209.114 110.079C210.341 110.488 213.001 116.627 215.046 121.128C219.342 110.898 201.954 91.8692 202.159 91.0508C202.363 90.2324 209.728 95.1429 213.819 101.076C214.473 88.8001 208.091 77.5468 204.818 73.4547C206.114 74.3413 209.359 76.3601 211.978 77.3422C211.978 75.5007 200.727 56.4724 193.772 50.7434C194.385 49.5158 201.341 52.5849 206.659 55.6539C204.695 42.5592 180.339 34.3749 168.406 31.9196C169.497 31.2376 172.661 29.8736 176.588 29.8736C174.543 25.1677 155.927 23.5308 144.472 25.9861C145.29 19.2341 136.494 13.3005 126.675 15.9604Z" fill="#75C4B8" fill-opacity="0.44"/>
<path d="M124.604 31.5778C125.981 36.5249 121.447 39.7749 119.008 40.7816C116.712 38.2889 109.25 34.7991 97.771 40.7816C104.802 41.6445 105.663 41.9321 106.524 42.7949C99.7799 42.7949 86.5787 46.2463 82.9914 57.4634C88.7311 56.4568 89.0181 57.4381 89.305 58.4448C89.592 59.4514 59.5585 75.9743 59.415 81.7266C64.0067 79.7133 64.5806 78.7067 65.4416 78.8505C63.4327 81.1514 58.9845 86.4723 58.6975 88.198C60.7064 86.76 62.4283 86.0409 62.8588 86.0409C63.2892 86.0409 54.2493 96.9704 52.6709 100.134C57.2626 98.4085 57.9801 97.977 58.6975 97.977C57.8366 100.134 59.047 120.998 58.9035 124.593C61.1993 123.155 62.9212 120.998 63.6387 120.998C62.6343 124.161 60.7689 134.999 61.3428 139.169C63.6387 137.156 64.6431 136.437 65.5041 136.149C63.6387 140.607 71.0817 162.57 71.6557 164.439C73.521 162.138 73.6645 159.55 74.8125 159.118C74.8125 161.707 73.3776 165.446 74.8125 165.733C76.2474 166.021 81.7 161.851 82.4175 164.439C83.1349 167.028 81.2696 172.492 81.8435 173.643C83.4219 173.643 85.1438 170.048 86.0048 171.054C86.8657 172.061 86.7222 178.964 87.2962 179.683C88.5876 177.957 91.6009 177.526 91.7444 177.813C91.8879 178.101 90.8834 180.258 91.7444 181.696C92.6053 183.134 99.7799 187.592 100.784 187.592C101.789 187.592 99.0624 183.817 100.067 184.572C101.789 185.867 103.941 188.024 105.089 188.024C106.237 188.024 109.968 188.455 110.829 189.606C111.69 190.756 114.272 192.338 115.707 192.194C117.142 192.05 119.725 187.592 124.173 187.592C129.196 193.92 157.077 180.925 157.938 180.925C158.799 180.925 161.668 183.37 165.543 185.24C169.56 184.665 173.578 180.494 175.3 178.625C175.731 179.2 175.731 180.494 174.87 181.932C177.51 181.357 182.57 176.419 184.771 174.023C184.484 174.646 183.91 176.324 183.91 178.049C186.492 177.906 191.658 164.937 191.658 165.225C191.658 165.513 194.958 162.349 194.958 166.232C197.929 162.586 191.084 130.556 199.263 138.609C199.331 129.197 196.757 117.329 197.254 117.495C198.115 117.782 199.981 122.096 201.415 125.26C204.429 118.07 195.574 98.4022 195.718 97.827C195.861 97.2517 197.685 97.1142 200.554 101.285C201.014 92.6561 196.537 84.7466 194.241 81.8705C195.15 82.4936 197.426 83.9125 199.263 84.6028C199.263 83.3085 176.548 60.052 171.669 56.0253C172.099 55.1625 176.978 57.3196 180.709 59.4767C179.331 50.273 162.246 44.5206 153.876 42.7949C154.641 42.3156 156.861 41.3568 159.616 41.3568C158.181 38.0492 145.123 36.8988 137.088 38.6245C137.661 33.8788 131.491 29.7083 124.604 31.5778Z" fill="#75C4B8"/>
<ellipse cx="85.4331" cy="96.0419" rx="19.8232" ry="21.6508" transform="rotate(44.1306 85.4331 96.0419)" fill="white"/>
<mask id="mask0_367_2" style="mask-type:alpha" maskUnits="userSpaceOnUse" x="64" y="75" width="43" height="42">
<ellipse cx="85.4322" cy="96.0419" rx="19.8232" ry="21.6508" transform="rotate(44.1306 85.4322 96.0419)" fill="white"/>
</mask>
<g mask="url(#mask0_367_2)">
<circle cx="84.2942" cy="98.8176" r="16.3059" fill="#500E0E"/>
<circle cx="84.2942" cy="98.8176" r="16.3059" fill="url(#paint2_linear_367_2)"/>
<circle cx="4.2" cy="4.2" r="4.2" transform="matrix(-1 0 0 1 85.2822 89.4277)" fill="white"/>
</g>
<ellipse cx="19.8232" cy="21.6508" rx="19.8232" ry="21.6508" transform="matrix(-0.717755 0.696296 0.696296 0.717755 172.538 68.1816)" fill="white"/>
<mask id="mask1_367_2" style="mask-type:alpha" maskUnits="userSpaceOnUse" x="152" y="76" width="43" height="43">
<ellipse cx="19.8232" cy="21.6508" rx="19.8232" ry="21.6508" transform="matrix(-0.717755 0.696296 0.696296 0.717755 172.539 68.1816)" fill="white"/>
</mask>
<g mask="url(#mask1_367_2)">
<circle cx="16.3059" cy="16.3059" r="16.3059" transform="matrix(-1 0 0 1 190.83 83.9922)" fill="#500E0E"/>
<circle cx="16.3059" cy="16.3059" r="16.3059" transform="matrix(-1 0 0 1 190.83 83.9922)" fill="url(#paint3_linear_367_2)"/>
<circle cx="4.2" cy="4.2" r="4.2" transform="matrix(-1 0 0 1 173.235 90.9102)" fill="white"/>
</g>
<path d="M81.8231 150.206C84.7834 164.956 86.7557 165.678 92.1997 167.977C99.1284 170.904 124.781 167.768 132.452 167.977C138.589 168.145 146.597 170.682 165.612 167.977C184.627 165.272 187.14 117.801 160.168 126.582C133.195 135.363 123.792 128.882 102.016 126.582C87.5055 127.476 78.8628 135.456 81.8231 150.206Z" fill="#500E0E"/>
<path d="M167.058 166.758C154.363 144.77 108.258 145.066 95.1641 167.746H148.776C150.159 167.746 161.541 167.087 167.058 166.758Z" fill="#B33131"/>
<mask id="mask2_367_2" style="mask-type:alpha" maskUnits="userSpaceOnUse" x="95" y="150" width="73" height="18">
<path d="M167.058 166.758C154.363 144.77 108.258 145.066 95.1641 167.746H148.776C150.159 167.746 161.541 167.087 167.058 166.758Z" fill="#B33131"/>
</mask>
<g mask="url(#mask2_367_2)">
<path d="M132.935 160.689C132.686 161.688 131.266 161.688 131.017 160.689L128.217 149.457C128.061 148.833 128.533 148.229 129.175 148.229L134.776 148.229C135.419 148.229 135.891 148.833 135.735 149.457L132.935 160.689Z" fill="#921C1C"/>
</g>
<path d="M149.418 169.679L149.35 169.723L173.314 166.017C172.655 161.487 166.248 149.217 160.714 149.217C162.926 161.014 153.81 166.862 149.418 169.679Z" fill="#FDF7CD"/>
<path d="M109.841 169.679L109.909 169.723L85.9445 166.017C86.6033 161.487 93.0104 149.217 98.5445 149.217C96.3325 161.014 105.449 166.862 109.841 169.679Z" fill="#FDF7CD"/>
<path d="M151.494 143.537C153.718 134.149 153.635 132.008 149.271 129.208L164.094 126.737C163.435 131.267 157.028 143.537 151.494 143.537Z" fill="#FDF7CD"/>
<path d="M111.223 143.783C108.999 134.395 109.082 132.254 113.446 129.454L98.6228 126.983C99.2816 131.513 105.689 143.783 111.223 143.783Z" fill="#FDF7CD"/>
<path d="M92.0668 167.921L92.1997 167.977C99.1284 170.904 124.781 167.768 132.452 167.977C138.589 168.145 146.597 170.682 165.612 167.977C184.627 165.272 187.14 117.801 160.168 126.582C133.195 135.363 123.792 128.882 102.016 126.582C87.5055 127.476 78.8628 135.456 81.8231 150.206C84.7592 164.835 86.7233 165.665 92.0668 167.921Z" stroke="#EB735B" stroke-width="3.45882"/>
<defs>
<linearGradient id="paint0_linear_367_2" x1="127.448" y1="-0.0078125" x2="127.448" y2="208.816" gradientUnits="userSpaceOnUse">
<stop stop-color="#90D3C9"/>
<stop offset="1" stop-color="#4A6D68"/>
</linearGradient>
<linearGradient id="paint1_linear_367_2" x1="127.448" y1="-0.0078125" x2="127.448" y2="208.816" gradientUnits="userSpaceOnUse">
<stop stop-color="#C8FDF6"/>
<stop offset="0.465407" stop-color="#369C98"/>
<stop offset="0.930814" stop-color="#4A6D68"/>
</linearGradient>
<linearGradient id="paint2_linear_367_2" x1="76.5782" y1="87.5659" x2="75.3864" y2="108.025" gradientUnits="userSpaceOnUse">
<stop stop-color="#600505"/>
<stop offset="1" stop-color="#4A1111"/>
</linearGradient>
<linearGradient id="paint3_linear_367_2" x1="8.58987" y1="5.05417" x2="7.39807" y2="25.5134" gradientUnits="userSpaceOnUse">
<stop stop-color="#600505"/>
<stop offset="1" stop-color="#4A1111"/>
</linearGradient>
</defs>
</svg>
