<svg width="266" height="232" viewBox="0 0 266 232" fill="none" xmlns="http://www.w3.org/2000/svg">
<path d="M199.322 128.71L261.997 146.594" stroke="#1A564D" stroke-width="6.20861" stroke-linecap="round" stroke-linejoin="round"/>
<path d="M66.1695 129.989L3.4944 147.874" stroke="#1A564D" stroke-width="6.20861" stroke-linecap="round" stroke-linejoin="round"/>
<path d="M104.254 175.137L89.8577 228.865L76.793 225.364" stroke="#1A564D" stroke-width="6.20861" stroke-linecap="round" stroke-linejoin="round"/>
<path d="M171.832 174.896L186.228 228.625L199.293 225.124" stroke="#1A564D" stroke-width="6.20861" stroke-linecap="round" stroke-linejoin="round"/>
<path d="M133.741 69.9521C146.476 66.1238 169.138 67.5349 187.941 90.4463C175.695 87.7046 172.557 88.2383 169.892 88.3906C184.439 97.0732 212.16 117.271 213.988 123.12C209.876 122.206 200.92 120.378 197.995 120.378C207.592 126.776 236.608 147.11 238.437 152.822C232.725 152.822 227.013 150.767 224.956 150.767C228.064 155.337 241.33 170.492 247.575 177.499C240.721 175.9 226.603 172.838 224.956 173.386C222.9 174.071 217.212 175.214 204.621 175.214C192.283 175.214 192.283 170.645 187.256 170.645C180.63 170.645 173.775 180.012 164.407 180.012C153.811 180.012 138.309 171.267 133.976 170.676C130.236 170.749 114.098 180.042 103.174 180.042C93.806 180.042 86.9512 170.675 80.3252 170.675C75.2989 170.675 75.2986 175.244 62.9609 175.244C50.3698 175.244 44.6825 174.101 42.626 173.416C40.9809 172.868 26.8604 175.93 20.0059 177.529C26.2511 170.522 39.5186 155.366 42.626 150.796C40.5697 150.796 34.8575 152.852 29.1455 152.853C30.9739 147.14 59.9907 126.806 69.5869 120.408C66.6623 120.408 57.7055 122.235 53.5928 123.149C55.4216 117.3 83.1439 97.1021 97.6904 88.4199C95.0248 88.2676 91.8864 87.7348 79.6396 90.4766C98.3942 67.6244 120.988 66.1609 133.741 69.9521Z" fill="#75C4B8"/>
<path d="M133.741 69.9521C146.476 66.1238 169.138 67.5349 187.941 90.4463C175.695 87.7046 172.557 88.2383 169.892 88.3906C184.439 97.0732 212.16 117.271 213.988 123.12C209.876 122.206 200.92 120.378 197.995 120.378C207.592 126.776 236.608 147.11 238.437 152.822C232.725 152.822 227.013 150.767 224.956 150.767C228.064 155.337 241.33 170.492 247.575 177.499C240.721 175.9 226.603 172.838 224.956 173.386C222.9 174.071 217.212 175.214 204.621 175.214C192.283 175.214 192.283 170.645 187.256 170.645C180.63 170.645 173.775 180.012 164.407 180.012C153.811 180.012 138.309 171.267 133.976 170.676C130.236 170.749 114.098 180.042 103.174 180.042C93.806 180.042 86.9512 170.675 80.3252 170.675C75.2989 170.675 75.2986 175.244 62.9609 175.244C50.3698 175.244 44.6825 174.101 42.626 173.416C40.9809 172.868 26.8604 175.93 20.0059 177.529C26.2511 170.522 39.5186 155.366 42.626 150.796C40.5697 150.796 34.8575 152.852 29.1455 152.853C30.9739 147.14 59.9907 126.806 69.5869 120.408C66.6623 120.408 57.7055 122.235 53.5928 123.149C55.4216 117.3 83.1439 97.1021 97.6904 88.4199C95.0248 88.2676 91.8864 87.7348 79.6396 90.4766C98.3942 67.6244 120.988 66.1609 133.741 69.9521Z" fill="url(#paint0_linear_329_82)"/>
<path d="M135.576 88.7168C145.958 85.8899 164.435 86.9314 179.766 103.847C169.781 101.823 167.223 102.216 165.05 102.328C176.909 108.738 199.511 123.65 201.001 127.968C197.648 127.293 190.346 125.943 187.962 125.943C195.786 130.666 219.441 145.679 220.932 149.896C216.275 149.895 211.619 148.377 209.942 148.377C212.476 151.751 223.291 162.94 228.383 168.112C222.795 166.932 211.285 164.672 209.942 165.076C208.266 165.582 203.629 166.425 193.363 166.425C183.305 166.425 183.305 163.052 179.207 163.052C173.805 163.052 168.216 169.968 160.579 169.968C151.936 169.968 139.289 163.505 135.764 163.074C132.704 163.137 119.559 169.989 110.658 169.989C103.021 169.989 97.433 163.074 92.0312 163.073C87.9332 163.073 87.9328 166.447 77.874 166.447C67.6091 166.447 62.9725 165.604 61.2959 165.098C59.9547 164.693 48.4427 166.953 42.8545 168.134C47.946 162.961 58.7626 151.772 61.2959 148.398C59.6195 148.398 54.9624 149.917 50.3057 149.917C51.7959 145.7 75.4529 130.688 83.2764 125.965C80.8921 125.965 73.5893 127.315 70.2363 127.989C71.7265 123.671 94.328 108.76 106.188 102.351C104.014 102.238 101.456 101.844 91.4717 103.868C106.76 86.999 125.178 85.9187 135.576 88.7168Z" fill="#84CCC2" fill-opacity="0.5"/>
<path d="M135.361 89.0859C142.905 86.5423 156.33 87.4793 167.469 102.7C160.214 100.879 158.355 101.234 156.776 101.335C165.393 107.103 181.816 120.521 182.898 124.406C180.462 123.799 175.156 122.585 173.424 122.585C179.108 126.835 196.297 140.343 197.381 144.138C193.998 144.138 190.614 142.773 189.396 142.772C191.237 145.809 199.096 155.877 202.795 160.531C198.735 159.469 190.372 157.435 189.396 157.799C188.177 158.254 184.808 159.013 177.35 159.013C170.041 159.013 170.04 155.978 167.062 155.978C163.138 155.978 159.077 162.2 153.528 162.2C147.248 162.2 138.058 156.385 135.497 155.998C133.274 156.054 123.723 162.22 117.256 162.221C111.707 162.221 107.646 155.997 103.721 155.997C100.743 155.997 100.743 159.033 93.4346 159.033C85.9762 159.033 82.607 158.275 81.3887 157.819C80.4142 157.455 72.0497 159.488 67.9893 160.551C71.6888 155.896 79.548 145.828 81.3887 142.792C80.1706 142.792 76.7869 144.158 73.4033 144.158C74.4864 140.363 91.6749 126.854 97.3594 122.604C95.6268 122.605 90.321 123.819 87.8848 124.426C88.9681 120.54 105.39 107.122 114.007 101.354C112.428 101.253 110.569 100.899 103.314 102.721C114.424 87.5403 127.806 86.5678 135.361 89.0859Z" fill="#90D3C9"/>
<path d="M143.997 78.3683C143.464 53.2351 149.481 5.75621 177.813 16.9062" stroke="#1A564D" stroke-width="3.19877" stroke-linecap="round" stroke-linejoin="round"/>
<path d="M141.255 79.9681C141.332 78.5972 139.199 76.7693 138.285 75.3984C141.941 76.4952 142.931 80.2729 143.083 81.5676L143.54 77.2263L143.997 81.5676C144.683 79.9682 147.562 76.5409 148.11 76.5409C148.795 76.5409 147.196 79.7396 146.739 80.6536" stroke="#84CCC2" stroke-width="2.28484" stroke-linecap="round" stroke-linejoin="round"/>
<circle cx="189.58" cy="21.8182" r="21.5916" fill="white"/>
<mask id="mask0_329_82" style="mask-type:alpha" maskUnits="userSpaceOnUse" x="167" y="0" width="45" height="44">
<circle cx="189.58" cy="21.8182" r="21.5916" fill="white"/>
</mask>
<g mask="url(#mask0_329_82)">
<circle cx="189.657" cy="17.2284" r="15.8339" fill="#500E0E"/>
<circle cx="189.657" cy="17.2284" r="15.8339" fill="url(#paint1_linear_329_82)"/>
<circle cx="196.311" cy="11.041" r="2.87888" fill="white"/>
</g>
<path d="M121.609 78.3507C122.142 53.2175 116.125 5.73863 87.7935 16.8886" stroke="#1A564D" stroke-width="3.19877" stroke-linecap="round" stroke-linejoin="round"/>
<path d="M124.351 79.9486C124.275 78.5777 126.407 76.7498 127.321 75.3789C123.666 76.4757 122.675 80.2533 122.523 81.5481L122.066 77.2068L121.609 81.5481C120.924 79.9487 118.045 76.5213 117.496 76.5213C116.811 76.5213 118.41 79.7201 118.867 80.634" stroke="#84CCC2" stroke-width="2.28484" stroke-linecap="round" stroke-linejoin="round"/>
<circle cx="21.5916" cy="21.5916" r="21.5916" transform="matrix(-1 0 0 1 97.6182 0.208984)" fill="white"/>
<mask id="mask1_329_82" style="mask-type:alpha" maskUnits="userSpaceOnUse" x="54" y="0" width="44" height="44">
<circle cx="21.5916" cy="21.5916" r="21.5916" transform="matrix(-1 0 0 1 97.6182 0.208984)" fill="white"/>
</mask>
<g mask="url(#mask1_329_82)">
<circle cx="15.8339" cy="15.8339" r="15.8339" transform="matrix(-1 0 0 1 91.7832 1.375)" fill="#500E0E"/>
<circle cx="15.8339" cy="15.8339" r="15.8339" transform="matrix(-1 0 0 1 91.7832 1.375)" fill="url(#paint2_linear_329_82)"/>
<circle cx="2.87888" cy="2.87888" r="2.87888" transform="matrix(-1 0 0 1 72.1748 8.14453)" fill="white"/>
</g>
<path d="M107.832 150.786L107.923 150.824C112.66 152.826 130.201 150.681 135.447 150.824C139.643 150.939 145.118 152.674 158.12 150.824C171.122 148.975 172.841 116.515 154.398 122.519C135.955 128.523 129.525 124.092 114.635 122.519C104.713 123.131 98.8033 128.587 100.828 138.673C102.835 148.676 104.178 149.243 107.832 150.786Z" fill="#500E0E"/>
<path d="M159.11 149.991C150.429 134.956 118.904 135.159 109.95 150.667H146.609C147.555 150.667 155.337 150.216 159.11 149.991Z" fill="#B33131"/>
<mask id="mask2_329_82" style="mask-type:alpha" maskUnits="userSpaceOnUse" x="109" y="138" width="51" height="13">
<path d="M159.11 149.991C150.429 134.956 118.904 135.159 109.95 150.667H146.609C147.555 150.667 155.337 150.216 159.11 149.991Z" fill="#B33131"/>
</mask>
<g mask="url(#mask2_329_82)">
<path d="M135.777 145.841C135.607 146.524 134.636 146.524 134.466 145.841L132.551 138.16C132.445 137.734 132.767 137.321 133.207 137.321L137.036 137.321C137.476 137.321 137.798 137.734 137.692 138.16L135.777 145.841Z" fill="#921C1C"/>
</g>
<path d="M151.65 133.393C146.401 133.393 146.946 128.78 146.946 124.315L157.082 122.626C156.631 125.723 155.434 133.393 151.65 133.393Z" fill="#FDF7CD"/>
<path d="M118.832 133.502C113.583 133.502 113.794 127.2 113.794 122.735L124.264 122.735C123.814 125.832 122.616 133.502 118.832 133.502Z" fill="#FDF7CD"/>
<path d="M157.695 140.977C152.445 140.977 153.082 146.582 153.082 151.047L163.103 148.979C162.652 145.882 161.479 140.977 157.695 140.977Z" fill="#FDF7CD"/>
<path d="M112.152 140.867C106.903 140.867 107.113 147.169 107.113 151.634L117.584 151.634C117.133 148.537 115.936 140.867 112.152 140.867Z" fill="#FDF7CD"/>
<path d="M107.832 150.786L107.923 150.824C112.66 152.826 130.201 150.681 135.447 150.824C139.643 150.939 145.118 152.674 158.12 150.824C171.122 148.975 172.841 116.515 154.398 122.519C135.955 128.523 129.525 124.092 114.635 122.519C104.713 123.131 98.8033 128.587 100.828 138.673C102.835 148.676 104.178 149.243 107.832 150.786Z" stroke="#EB735B" stroke-width="2.36506"/>
<defs>
<linearGradient id="paint0_linear_329_82" x1="133.998" y1="52.5" x2="133.998" y2="211.5" gradientUnits="userSpaceOnUse">
<stop stop-color="#C8FDF6"/>
<stop offset="0.465407" stop-color="#369C98"/>
<stop offset="0.930814" stop-color="#4A6D68"/>
</linearGradient>
<linearGradient id="paint1_linear_329_82" x1="182.164" y1="6.30239" x2="181.007" y2="26.1694" gradientUnits="userSpaceOnUse">
<stop stop-color="#600505"/>
<stop offset="1" stop-color="#4A1111"/>
</linearGradient>
<linearGradient id="paint2_linear_329_82" x1="8.34122" y1="4.90786" x2="7.18392" y2="24.7749" gradientUnits="userSpaceOnUse">
<stop stop-color="#600505"/>
<stop offset="1" stop-color="#4A1111"/>
</linearGradient>
</defs>
</svg>
