<svg width="251" height="393" viewBox="0 0 251 393" fill="none" xmlns="http://www.w3.org/2000/svg">
<path d="M50.087 264.303L4 310.39" stroke="#1A564D" stroke-width="6.20861" stroke-linecap="round" stroke-linejoin="round"/>
<path d="M201.004 264.541L247.091 310.628" stroke="#1A564D" stroke-width="6.20861" stroke-linecap="round" stroke-linejoin="round"/>
<path d="M94.2639 335.941L79.8674 389.67L66.8027 386.169" stroke="#1A564D" stroke-width="6.20861" stroke-linecap="round" stroke-linejoin="round"/>
<path d="M161.842 335.701L176.238 389.43L189.303 385.929" stroke="#1A564D" stroke-width="6.20861" stroke-linecap="round" stroke-linejoin="round"/>
<path d="M124.013 3.08691C128.694 1.20412 136.262 -0.581742 143.77 0.179688C151.287 0.942225 158.771 4.2652 163.196 12.624L163.582 13.3545L162.815 13.0479C159.224 11.6115 154.716 11.007 150.524 10.8408C147.155 10.7073 144.007 10.8597 141.729 11.0801C148.653 13.2382 157.389 17.8979 162.721 25.4287C165.581 29.4696 167.461 34.337 167.551 40.0781C167.64 45.8134 165.943 52.4007 161.685 59.8877C160.725 62.1827 160.671 63.8969 161.144 65.2363C161.619 66.5836 162.649 67.6088 163.967 68.4814C165.288 69.3563 166.864 70.0554 168.404 70.7754C169.929 71.4882 171.425 72.2246 172.522 73.165C173.084 73.6464 173.861 74.6022 174.783 75.8828C175.711 77.1718 176.802 78.8143 177.995 80.6875C180.381 84.4344 183.178 89.1182 185.888 93.7803C191.306 103.102 196.389 112.356 197.151 113.881C197.203 113.985 197.25 114.102 197.259 114.216C197.263 114.276 197.26 114.355 197.223 114.435C197.183 114.521 197.115 114.584 197.034 114.621C196.898 114.683 196.753 114.656 196.667 114.635C196.566 114.609 196.452 114.564 196.334 114.509C195.867 114.288 195.132 113.809 194.228 113.169C192.407 111.881 189.815 109.877 187.107 107.775C184.397 105.671 181.568 103.467 179.265 101.77C178.113 100.921 177.097 100.202 176.296 99.6865C175.988 99.4884 175.714 99.3217 175.479 99.1904C175.786 99.6519 176.176 100.163 176.634 100.736C177.355 101.639 178.241 102.696 179.183 103.917C181.073 106.369 183.221 109.53 184.921 113.713C188.314 122.063 189.901 134.441 184.185 153.347C196.707 166.944 204.208 178.012 208.231 189.741C212.268 201.508 212.795 213.91 211.43 230.146L211.385 230.683L210.949 230.365C209.705 229.458 208.414 228.042 207.062 226.487C205.702 224.922 204.272 223.207 202.728 221.656C199.746 218.663 196.431 216.381 192.549 216.994C199.138 226.419 207.546 240.951 211.683 254.419C213.779 261.244 214.788 267.825 213.885 273.341C212.996 278.768 210.253 283.163 204.9 285.721C220.519 309.909 220.831 330.442 220.524 334.124L220.481 334.639L220.053 334.35C212.302 329.133 204.02 330.817 194.931 333.876C185.876 336.923 176.028 341.34 165.354 341.34C154.704 341.34 144.96 339.154 137.588 336.973C133.901 335.882 130.805 334.791 128.486 333.975C127.325 333.566 126.364 333.228 125.618 332.991C125.246 332.873 124.932 332.782 124.677 332.721C124.417 332.658 124.236 332.632 124.125 332.632H123.881C123.622 332.632 123.029 332.73 122.111 332.921C121.208 333.109 120.024 333.377 118.605 333.7C115.77 334.346 112.006 335.208 107.71 336.07C99.1202 337.794 88.3843 339.521 78.6533 339.521C68.8915 339.52 60.0394 335.56 51.7637 332.969C43.4613 330.369 35.714 329.126 27.9531 334.35L27.5244 334.639L27.4814 334.124C27.1746 330.442 27.4869 309.909 43.1055 285.721C37.7531 283.163 35.0097 278.768 34.1211 273.341C33.2181 267.825 34.227 261.244 36.3232 254.419C40.46 240.951 48.8676 226.419 55.457 216.994C51.5749 216.381 48.2597 218.663 45.2783 221.656C43.7343 223.207 42.3038 224.922 40.9434 226.487C39.5917 228.042 38.301 229.458 37.0566 230.365L36.6211 230.683L36.5762 230.146C35.2106 213.91 35.738 201.508 39.7744 189.741C43.798 178.012 51.2985 166.944 63.8213 153.347C58.105 134.441 59.6917 122.063 63.085 113.713C64.785 109.53 66.9331 106.369 68.8232 103.917C69.7647 102.696 70.6511 101.639 71.3721 100.736C71.8298 100.163 72.2197 99.6519 72.5273 99.1904C72.2917 99.3217 72.018 99.4884 71.71 99.6865C70.9088 100.202 69.8929 100.921 68.7412 101.77C66.4383 103.467 63.6092 105.671 60.8984 107.775C58.1911 109.877 55.5991 111.881 53.7783 113.169C52.8736 113.809 52.1392 114.288 51.6719 114.509C51.554 114.564 51.4404 114.609 51.3389 114.635C51.2533 114.656 51.1082 114.683 50.9717 114.621C50.8913 114.584 50.8233 114.521 50.7832 114.435C50.7463 114.355 50.7424 114.276 50.7471 114.216C50.7559 114.102 50.8024 113.985 50.8545 113.881C51.6171 112.356 56.6995 103.102 62.1182 93.7803C64.8282 89.1182 67.6251 84.4344 70.0107 80.6875C71.2034 78.8143 72.2949 77.1718 73.2227 75.8828C74.1444 74.6022 74.922 73.6464 75.4834 73.165C76.558 72.2439 77.902 71.355 79.2139 70.4189C80.5364 69.4753 81.8417 68.4731 82.8906 67.3018C83.9368 66.1334 84.7199 64.8043 85.0098 63.208C85.2991 61.6139 85.1012 59.7233 84.1367 57.4199C79.8821 49.9362 78.3199 43.5008 78.6162 37.9912C78.9131 32.4731 81.0734 27.9112 84.2109 24.1797C90.0497 17.2358 99.2799 13.1579 106.251 11.0771C103.975 10.8581 100.838 10.7078 97.4814 10.8408C93.2894 11.007 88.7814 11.6115 85.1904 13.0479L84.4238 13.3545L84.8096 12.624C89.2348 4.2652 96.7184 0.942224 104.236 0.179688C111.744 -0.581742 119.311 1.20412 123.993 3.08691L124.003 3.09082L124.013 3.08691Z" fill="#75C4B8"/>
<path d="M124.013 3.08691C128.694 1.20412 136.262 -0.581742 143.77 0.179688C151.287 0.942225 158.771 4.2652 163.196 12.624L163.582 13.3545L162.815 13.0479C159.224 11.6115 154.716 11.007 150.524 10.8408C147.155 10.7073 144.007 10.8597 141.729 11.0801C148.653 13.2382 157.389 17.8979 162.721 25.4287C165.581 29.4696 167.461 34.337 167.551 40.0781C167.64 45.8134 165.943 52.4007 161.685 59.8877C160.725 62.1827 160.671 63.8969 161.144 65.2363C161.619 66.5836 162.649 67.6088 163.967 68.4814C165.288 69.3563 166.864 70.0554 168.404 70.7754C169.929 71.4882 171.425 72.2246 172.522 73.165C173.084 73.6464 173.861 74.6022 174.783 75.8828C175.711 77.1718 176.802 78.8143 177.995 80.6875C180.381 84.4344 183.178 89.1182 185.888 93.7803C191.306 103.102 196.389 112.356 197.151 113.881C197.203 113.985 197.25 114.102 197.259 114.216C197.263 114.276 197.26 114.355 197.223 114.435C197.183 114.521 197.115 114.584 197.034 114.621C196.898 114.683 196.753 114.656 196.667 114.635C196.566 114.609 196.452 114.564 196.334 114.509C195.867 114.288 195.132 113.809 194.228 113.169C192.407 111.881 189.815 109.877 187.107 107.775C184.397 105.671 181.568 103.467 179.265 101.77C178.113 100.921 177.097 100.202 176.296 99.6865C175.988 99.4884 175.714 99.3217 175.479 99.1904C175.786 99.6519 176.176 100.163 176.634 100.736C177.355 101.639 178.241 102.696 179.183 103.917C181.073 106.369 183.221 109.53 184.921 113.713C188.314 122.063 189.901 134.441 184.185 153.347C196.707 166.944 204.208 178.012 208.231 189.741C212.268 201.508 212.795 213.91 211.43 230.146L211.385 230.683L210.949 230.365C209.705 229.458 208.414 228.042 207.062 226.487C205.702 224.922 204.272 223.207 202.728 221.656C199.746 218.663 196.431 216.381 192.549 216.994C199.138 226.419 207.546 240.951 211.683 254.419C213.779 261.244 214.788 267.825 213.885 273.341C212.996 278.768 210.253 283.163 204.9 285.721C220.519 309.909 220.831 330.442 220.524 334.124L220.481 334.639L220.053 334.35C212.302 329.133 204.02 330.817 194.931 333.876C185.876 336.923 176.028 341.34 165.354 341.34C154.704 341.34 144.96 339.154 137.588 336.973C133.901 335.882 130.805 334.791 128.486 333.975C127.325 333.566 126.364 333.228 125.618 332.991C125.246 332.873 124.932 332.782 124.677 332.721C124.417 332.658 124.236 332.632 124.125 332.632H123.881C123.622 332.632 123.029 332.73 122.111 332.921C121.208 333.109 120.024 333.377 118.605 333.7C115.77 334.346 112.006 335.208 107.71 336.07C99.1202 337.794 88.3843 339.521 78.6533 339.521C68.8915 339.52 60.0394 335.56 51.7637 332.969C43.4613 330.369 35.714 329.126 27.9531 334.35L27.5244 334.639L27.4814 334.124C27.1746 330.442 27.4869 309.909 43.1055 285.721C37.7531 283.163 35.0097 278.768 34.1211 273.341C33.2181 267.825 34.227 261.244 36.3232 254.419C40.46 240.951 48.8676 226.419 55.457 216.994C51.5749 216.381 48.2597 218.663 45.2783 221.656C43.7343 223.207 42.3038 224.922 40.9434 226.487C39.5917 228.042 38.301 229.458 37.0566 230.365L36.6211 230.683L36.5762 230.146C35.2106 213.91 35.738 201.508 39.7744 189.741C43.798 178.012 51.2985 166.944 63.8213 153.347C58.105 134.441 59.6917 122.063 63.085 113.713C64.785 109.53 66.9331 106.369 68.8232 103.917C69.7647 102.696 70.6511 101.639 71.3721 100.736C71.8298 100.163 72.2197 99.6519 72.5273 99.1904C72.2917 99.3217 72.018 99.4884 71.71 99.6865C70.9088 100.202 69.8929 100.921 68.7412 101.77C66.4383 103.467 63.6092 105.671 60.8984 107.775C58.1911 109.877 55.5991 111.881 53.7783 113.169C52.8736 113.809 52.1392 114.288 51.6719 114.509C51.554 114.564 51.4404 114.609 51.3389 114.635C51.2533 114.656 51.1082 114.683 50.9717 114.621C50.8913 114.584 50.8233 114.521 50.7832 114.435C50.7463 114.355 50.7424 114.276 50.7471 114.216C50.7559 114.102 50.8024 113.985 50.8545 113.881C51.6171 112.356 56.6995 103.102 62.1182 93.7803C64.8282 89.1182 67.6251 84.4344 70.0107 80.6875C71.2034 78.8143 72.2949 77.1718 73.2227 75.8828C74.1444 74.6022 74.922 73.6464 75.4834 73.165C76.558 72.2439 77.902 71.355 79.2139 70.4189C80.5364 69.4753 81.8417 68.4731 82.8906 67.3018C83.9368 66.1334 84.7199 64.8043 85.0098 63.208C85.2991 61.6139 85.1012 59.7233 84.1367 57.4199C79.8821 49.9362 78.3199 43.5008 78.6162 37.9912C78.9131 32.4731 81.0734 27.9112 84.2109 24.1797C90.0497 17.2358 99.2799 13.1579 106.251 11.0771C103.975 10.8581 100.838 10.7078 97.4814 10.8408C93.2894 11.007 88.7814 11.6115 85.1904 13.0479L84.4238 13.3545L84.8096 12.624C89.2348 4.2652 96.7184 0.942224 104.236 0.179688C111.744 -0.581742 119.311 1.20412 123.993 3.08691L124.003 3.09082L124.013 3.08691Z" fill="url(#paint0_linear_329_2)"/>
<path d="M110.251 18.3672C115.478 17.5996 120.736 19.3982 123.985 21.2881C127.235 19.3991 132.49 17.6029 137.715 18.3701C142.977 19.1431 148.159 22.511 151.208 30.8516L151.495 31.6367L150.771 31.2178C148.317 29.7964 145.231 29.1957 142.349 29.0303C140.036 28.8975 137.875 29.0482 136.312 29.2666C140.929 31.3382 145.464 35.1868 148.537 39.9443C151.829 45.0407 153.46 51.2107 151.674 57.3789C150.336 62 151.102 65.027 152.536 67.3457C153.259 68.5148 154.158 69.5144 155.069 70.4561C155.964 71.3805 156.887 72.2646 157.628 73.1787C158.526 73.9391 160.166 74.9518 162.211 76.2363C164.257 77.5215 166.681 79.0651 169.087 80.8633C173.887 84.4512 178.672 89.0957 180.215 94.8076L180.415 95.5479L179.763 95.1445C177.262 93.5969 173.916 92.5711 170.699 92.2979C167.579 92.0328 164.639 92.4811 162.712 93.7842C162.95 94.2951 163.398 94.7583 164.038 95.2285C164.765 95.762 165.698 96.2774 166.77 96.877C168.901 98.0692 171.521 99.5626 173.831 102.088C178.469 107.159 181.776 116.297 177.796 135.275C176.247 154.701 182.898 165.692 189.734 175.904C196.58 186.13 203.651 195.617 202.702 211.95L202.662 212.649L202.18 212.141C200.52 210.388 197.066 207.289 193.303 204.857C191.421 203.642 189.472 202.6 187.64 201.975C185.951 201.399 184.392 201.187 183.082 201.487C187.675 211 195.115 229.382 199.596 246.687C201.862 255.438 203.377 263.933 203.376 270.872C203.375 277.659 201.922 283.066 198.174 285.701C208.975 309.844 209.195 323.158 208.983 326.841L208.945 327.505L208.469 327.041C205.82 324.459 202.428 323.468 198.587 323.451C194.739 323.434 190.462 324.394 186.08 325.695C183.891 326.345 181.681 327.078 179.489 327.813C177.299 328.548 175.126 329.285 173.019 329.94C168.809 331.25 164.822 332.246 161.423 332.246C154.686 332.246 145.742 330.516 138.298 328.794C134.572 327.932 131.214 327.07 128.688 326.424C127.423 326.101 126.369 325.832 125.58 325.645C125.186 325.551 124.86 325.478 124.609 325.429C124.35 325.378 124.195 325.357 124.126 325.356H123.822V325.354C123.746 325.358 123.596 325.379 123.356 325.426C123.106 325.475 122.78 325.548 122.386 325.642C121.597 325.829 120.542 326.098 119.278 326.421C116.752 327.067 113.394 327.929 109.668 328.791C102.224 330.513 93.2803 332.243 86.543 332.243C83.1436 332.243 79.1573 331.247 74.9473 329.938C72.8394 329.282 70.6663 328.545 68.4766 327.811C66.285 327.075 64.0748 326.342 61.8857 325.692C57.5037 324.392 53.2271 323.431 49.3789 323.448C45.5376 323.465 42.146 324.457 39.4971 327.038L39.0205 327.502L38.9824 326.838C38.7706 323.155 38.9908 309.84 49.792 285.698C46.0439 283.063 44.5909 277.656 44.5898 270.869C44.5888 263.93 46.1039 255.435 48.3701 246.684C52.8511 229.379 60.2911 210.997 64.8838 201.484C63.5737 201.184 62.0144 201.396 60.3262 201.972C58.4936 202.597 56.5446 203.639 54.6631 204.854C50.8999 207.286 47.4463 210.385 45.7861 212.138L45.3037 212.646L45.2637 211.947C44.315 195.614 51.3854 186.127 58.2314 175.901C65.0682 165.689 71.7191 154.698 70.1699 135.272C66.1899 116.294 69.4965 107.156 74.1348 102.085C76.4447 99.5596 79.0651 98.0662 81.1963 96.874C82.2683 96.2743 83.2022 95.7592 83.9287 95.2256C84.5688 94.7554 85.0158 94.2922 85.2539 93.7812C83.327 92.4783 80.387 92.0299 77.2666 92.2949C74.0497 92.5682 70.7041 93.5939 68.2031 95.1416L67.5508 95.5449L67.751 94.8047C69.2939 89.0928 74.0785 84.4483 78.8789 80.8604C81.2848 79.0622 83.7092 77.5186 85.7549 76.2334C87.7998 74.9487 89.4399 73.9362 90.3379 73.1758C91.0785 72.2616 92.0016 71.3777 92.8965 70.4531C93.808 69.5114 94.7066 68.512 95.4297 67.3428C96.8636 65.024 97.6303 61.9971 96.292 57.376C94.5057 51.2077 96.1369 45.0378 99.4287 39.9414C102.502 35.1839 107.037 31.3352 111.653 29.2637C110.091 29.0452 107.93 28.8946 105.617 29.0273C102.735 29.1928 99.6484 29.7935 97.1943 31.2148L96.4707 31.6338L96.7578 30.8486C99.8074 22.508 104.988 19.1401 110.251 18.3672Z" fill="#84CCC2" fill-opacity="0.5"/>
<path d="M114.154 34.1436C117.801 33.4123 121.45 34.9756 123.857 36.7373L124.322 37.0908L124.357 37.1191C126.776 35.2415 131.061 33.4606 135.332 34.1963C139.705 34.9497 143.969 38.321 146.198 46.6475L146.435 47.5312L145.718 46.9639C143.942 45.5591 141.707 44.9638 139.615 44.7998C137.966 44.6705 136.423 44.8128 135.296 45.0225C136.77 45.7539 138.116 46.2541 139.332 46.7266C140.741 47.2739 141.997 47.7926 143.027 48.6055C145.124 50.2597 146.209 53.0586 146.209 59.4238C146.209 61.8505 146.036 63.7108 145.852 65.2061C145.666 66.7142 145.475 67.8097 145.43 68.7617C145.385 69.6944 145.485 70.4493 145.868 71.2441C146.256 72.0491 146.945 72.9172 148.124 74.0527C150.418 76.2626 152.496 77.299 155.174 78.9912C157.847 80.6805 161.052 82.9891 165.519 87.7109L165.103 88.1504C163.354 86.6727 160.416 86.5895 157.471 87.293C154.7 87.9547 152.038 89.287 150.558 90.6289C160.735 98.8796 165.857 111.353 168.573 123.626C171.314 136.008 171.617 148.243 172.164 155.804C172.436 159.564 173.134 161.968 174.229 163.941C175.328 165.924 176.836 167.49 178.784 169.577C182.681 173.752 188.187 179.867 195.177 195.21L194.651 195.509C194.385 195.125 193.873 194.721 193.128 194.316C192.39 193.915 191.453 193.528 190.373 193.164C188.214 192.437 185.51 191.812 182.742 191.353C179.975 190.893 177.153 190.601 174.76 190.537C173.563 190.505 172.478 190.53 171.563 190.618C170.799 190.692 170.166 190.81 169.69 190.968C171.37 195.626 174.054 201.753 176.868 208.772C179.735 215.923 182.725 223.98 184.88 232.276C189.164 248.774 190.167 266.309 180.231 279.589C187.131 287.714 191.747 294.98 194.625 300.683C196.074 303.555 197.084 306.034 197.723 308.027C198.358 310.012 198.633 311.541 198.593 312.505L198.578 312.855L198.233 312.79C191.94 311.596 184.033 313.098 176.423 314.922C172.634 315.83 168.906 316.821 165.532 317.58C162.157 318.34 159.092 318.878 156.604 318.878C154.108 318.878 150.954 318.244 147.625 317.305C144.291 316.364 140.76 315.11 137.503 313.858C134.246 312.607 131.259 311.355 129.014 310.418C127.89 309.949 126.955 309.56 126.264 309.288C125.918 309.152 125.636 309.046 125.425 308.976C125.338 308.947 125.266 308.925 125.207 308.909C125.148 308.926 125.076 308.948 124.99 308.977C124.779 309.047 124.497 309.152 124.151 309.288C123.46 309.56 122.525 309.95 121.401 310.419C119.157 311.356 116.169 312.607 112.912 313.858C109.656 315.11 106.124 316.364 102.79 317.305C99.4611 318.244 96.3069 318.879 93.8115 318.879C91.3227 318.879 88.2583 318.341 84.8828 317.581C81.5093 316.822 77.7813 315.831 73.9922 314.923C66.3823 313.099 58.4747 311.596 52.1816 312.79L51.8369 312.855L51.8223 312.505C51.7817 311.541 52.0569 310.012 52.6924 308.027C53.3308 306.034 54.3406 303.555 55.79 300.683C58.6675 294.98 63.2841 287.714 70.1836 279.59C60.2476 266.31 61.251 248.775 65.5352 232.277C67.6898 223.98 70.6799 215.924 73.5469 208.773C76.3612 201.754 79.0453 195.626 80.7246 190.968C80.249 190.81 79.6164 190.692 78.8516 190.618C77.9367 190.53 76.8516 190.505 75.6553 190.537C73.2623 190.601 70.44 190.893 67.6729 191.353C64.9052 191.812 62.2013 192.438 60.042 193.165C58.9621 193.529 58.025 193.915 57.2871 194.316C56.5426 194.721 56.0297 195.125 55.7637 195.509L55.2383 195.21C62.2277 179.868 67.7336 173.752 71.6309 169.577C73.5789 167.49 75.0868 165.924 76.1865 163.941C77.2807 161.968 77.9788 159.564 78.251 155.804C78.7983 148.243 79.1014 136.008 81.8418 123.626C84.5582 111.353 89.6807 98.8806 99.8584 90.6299C98.3779 89.2877 95.7155 87.9548 92.9443 87.293C89.9986 86.5895 87.0614 86.6734 85.3125 88.1514L84.8965 87.7109C89.3633 82.9893 92.5685 80.6805 95.2412 78.9912C97.9186 77.299 99.9974 76.2625 102.291 74.0527C103.469 72.9173 104.159 72.049 104.547 71.2441C104.93 70.4494 105.03 69.6943 104.985 68.7617C104.94 67.8097 104.749 66.7141 104.563 65.2061C104.379 63.7109 104.207 61.8505 104.207 59.4238C104.207 53.0588 105.291 50.2597 107.388 48.6055C108.418 47.7926 109.674 47.2739 111.083 46.7266C112.299 46.2541 113.645 45.7538 115.119 45.0225C113.992 44.8128 112.449 44.6705 110.8 44.7998C108.708 44.9638 106.473 45.5591 104.697 46.9639L103.98 47.5312L104.217 46.6475C106.44 38.3434 110.23 34.9308 114.154 34.1436Z" fill="#90D3C9" fill-opacity="0.75"/>
<circle cx="148.68" cy="163.696" r="18.1886" fill="white"/>
<mask id="mask0_329_2" style="mask-type:alpha" maskUnits="userSpaceOnUse" x="130" y="145" width="37" height="37">
<circle cx="148.68" cy="163.696" r="18.1886" fill="white"/>
</mask>
<g mask="url(#mask0_329_2)">
<circle cx="148.68" cy="156.42" r="13.3383" fill="#500E0E"/>
<circle cx="148.68" cy="156.42" r="13.3383" fill="url(#paint1_linear_329_2)"/>
<circle cx="154.136" cy="150.964" r="2.42515" fill="white"/>
</g>
<circle cx="98.3576" cy="163.696" r="18.1886" fill="white"/>
<mask id="mask1_329_2" style="mask-type:alpha" maskUnits="userSpaceOnUse" x="80" y="145" width="37" height="37">
<circle cx="98.3576" cy="163.696" r="18.1886" fill="white"/>
</mask>
<g mask="url(#mask1_329_2)">
<circle cx="98.3579" cy="156.42" r="13.3383" fill="#500E0E"/>
<circle cx="98.3579" cy="156.42" r="13.3383" fill="url(#paint2_linear_329_2)"/>
<circle cx="103.814" cy="150.964" r="2.42515" fill="white"/>
</g>
<path d="M155.046 279.801C142.815 286.685 114.599 278.686 98.5451 281.746C82.4914 284.806 82.848 247.274 95.4872 236.871C99.7388 233.528 111.943 244.012 124.429 243.12C132.896 242.516 143.576 235.016 151.712 236.871C160.159 238.797 167.277 272.916 155.046 279.801Z" fill="#500E0E"/>
<path d="M154.136 280.009C143.324 261.281 104.054 261.534 92.9014 280.851H138.565C139.743 280.851 149.437 280.29 154.136 280.009Z" fill="#B33131"/>
<mask id="mask2_329_2" style="mask-type:alpha" maskUnits="userSpaceOnUse" x="92" y="266" width="63" height="15">
<path d="M154.136 280.009C143.324 261.281 104.054 261.534 92.9014 280.851H138.565C139.743 280.851 149.437 280.29 154.136 280.009Z" fill="#B33131"/>
</mask>
<g mask="url(#mask2_329_2)">
<path d="M125.072 274.839C124.86 275.69 123.651 275.69 123.439 274.839L121.054 265.272C120.921 264.741 121.323 264.227 121.871 264.227L126.641 264.227C127.188 264.227 127.59 264.741 127.458 265.272L125.072 274.839Z" fill="#921C1C"/>
</g>
<path d="M136.617 280.801L136.554 280.842H156.549C155.941 276.661 152.15 261.916 147.043 261.916C149.084 272.804 140.67 278.201 136.617 280.801Z" fill="#FDF7CD"/>
<path d="M112.531 280.801L112.594 280.842H92.9012C93.5092 276.661 96.9973 261.916 102.105 261.916C100.063 272.804 108.478 278.201 112.531 280.801Z" fill="#FDF7CD"/>
<path d="M133.208 254.988C135.261 246.324 135.185 244.347 131.156 241.763L144.837 239.483C144.229 243.663 138.316 254.988 133.208 254.988Z" fill="#FDF7CD"/>
<path d="M114.23 255.215C112.178 246.55 112.254 244.574 116.282 241.99L102.601 239.71C103.209 243.89 109.122 255.215 114.23 255.215Z" fill="#FDF7CD"/>
<path d="M155.046 279.435C142.815 286.32 114.599 278.321 98.5451 281.381C82.4914 284.44 82.848 246.909 95.4872 236.506C99.7388 233.163 111.943 243.647 124.429 242.755C132.896 242.15 143.576 234.651 151.712 236.506C160.159 238.432 167.277 272.551 155.046 279.435Z" stroke="#EB735B" stroke-width="4.24402"/>
<path d="M112.91 70.3281C110.889 72.7716 106.847 77.8902 106.847 78.8162C108.931 78.4303 111.773 77.4658 112.91 77.8516" stroke="#54B4A6" stroke-opacity="0.58" stroke-width="3.03144" stroke-linecap="round" stroke-linejoin="round"/>
<path d="M81.3822 215.23C79.3613 217.674 75.3193 222.793 75.3193 223.718C77.4035 223.333 80.2454 222.368 81.3822 222.754" stroke="#54B4A6" stroke-opacity="0.58" stroke-width="3.03144" stroke-linecap="round" stroke-linejoin="round"/>
<path d="M86.2182 296.557C84.1972 299 80.1553 304.119 80.1553 305.045C82.2394 304.659 85.0814 303.694 86.2182 304.08" stroke="#54B4A6" stroke-opacity="0.58" stroke-width="3.03144" stroke-linecap="round" stroke-linejoin="round"/>
<path d="M136.554 70.3281C138.575 72.7716 142.617 77.8902 142.617 78.8162C140.533 78.4303 137.691 77.4658 136.554 77.8516" stroke="#54B4A6" stroke-opacity="0.58" stroke-width="3.03144" stroke-linecap="round" stroke-linejoin="round"/>
<path d="M160.791 208.498C162.812 210.942 166.854 216.06 166.854 216.986C164.769 216.6 161.927 215.636 160.791 216.022" stroke="#54B4A6" stroke-opacity="0.58" stroke-width="3.03144" stroke-linecap="round" stroke-linejoin="round"/>
<path d="M174.144 300.719C176.165 303.162 180.207 308.281 180.207 309.207C178.123 308.821 175.281 307.856 174.144 308.242" stroke="#54B4A6" stroke-opacity="0.58" stroke-width="3.03144" stroke-linecap="round" stroke-linejoin="round"/>
<defs>
<linearGradient id="paint0_linear_329_2" x1="124" y1="-61" x2="124.324" y2="379" gradientUnits="userSpaceOnUse">
<stop offset="0.124064" stop-color="#C8FDF6"/>
<stop offset="0.644611" stop-color="#369C98"/>
<stop offset="1" stop-color="#4A6D68"/>
</linearGradient>
<linearGradient id="paint1_linear_329_2" x1="142.368" y1="147.216" x2="141.393" y2="163.952" gradientUnits="userSpaceOnUse">
<stop stop-color="#600505"/>
<stop offset="1" stop-color="#4A1111"/>
</linearGradient>
<linearGradient id="paint2_linear_329_2" x1="92.0461" y1="147.216" x2="91.0712" y2="163.952" gradientUnits="userSpaceOnUse">
<stop stop-color="#600505"/>
<stop offset="1" stop-color="#4A1111"/>
</linearGradient>
</defs>
</svg>
